<svg xmlns="http://www.w3.org/2000/svg" xmlns:xlink="http://www.w3.org/1999/xlink" width="512" zoomAndPan="magnify" viewBox="0 0 384 383.999986" height="512" preserveAspectRatio="xMidYMid meet" version="1.0"><defs><clipPath id="c8e72072d7"><path d="M 64.078125 0 L 319.828125 0 L 319.828125 384 L 64.078125 384 Z M 64.078125 0 " clip-rule="nonzero"/></clipPath></defs><g clip-path="url(#c8e72072d7)"><path fill="#29abe2" d="M 315.992188 230.785156 C 318.390625 240.144531 319.828125 248.699219 319.828125 255.976562 C 319.828125 326.59375 262.589844 383.855469 191.996094 383.855469 C 121.320312 383.855469 64.078125 326.59375 64.078125 255.898438 C 64.078125 185.28125 191.914062 0.144531 191.914062 0.144531 C 191.914062 0.144531 271.382812 115.304688 305.039062 198.636719 L 285.773438 198.636719 C 262.589844 198.636719 239.964844 198.636719 236.84375 198.636719 C 232.367188 198.636719 228.210938 195.4375 227.011719 190.960938 C 226.53125 189.121094 226.53125 187.121094 226.453125 185.203125 C 226.371094 182.324219 225.332031 181.285156 222.453125 181.203125 C 220.296875 181.203125 218.058594 181.203125 215.820312 181.203125 C 215.417969 181.203125 214.941406 181.203125 214.539062 181.125 L 214.539062 161.210938 C 214.539062 161.128906 214.300781 155.050781 214.300781 155.050781 L 224.453125 155.851562 C 224.453125 155.851562 239.242188 157.613281 246.679688 158.410156 C 250.035156 158.730469 252.753906 157.453125 254.59375 154.492188 C 256.511719 151.214844 256.433594 147.773438 254.433594 144.65625 C 252.515625 141.699219 249.636719 140.738281 246.277344 141.058594 C 239.082031 141.855469 231.808594 142.816406 224.535156 143.535156 C 222.933594 143.695312 214.300781 143.535156 214.300781 143.535156 C 214.300781 143.535156 214.621094 137.617188 214.621094 137.140625 C 214.621094 135.378906 214.699219 133.699219 214.621094 132.019531 C 214.460938 128.023438 211.183594 124.664062 207.265625 124.421875 C 202.308594 124.101562 198.550781 127.621094 198.46875 132.582031 L 198.46875 137.140625 C 198.390625 136.898438 198.789062 144.417969 198.789062 144.417969 C 198.789062 144.417969 190.554688 143.695312 189.597656 143.617188 C 182.082031 142.738281 174.566406 141.9375 167.050781 140.976562 C 163.214844 140.496094 159.777344 142.097656 158.175781 145.457031 C 156.660156 148.65625 156.816406 151.933594 158.816406 154.894531 C 160.816406 157.851562 163.855469 158.652344 167.292969 158.25 C 173.765625 157.453125 186.636719 156.011719 186.636719 156.011719 L 198.871094 155.53125 C 198.871094 155.53125 198.390625 161.050781 198.46875 161.050781 L 198.46875 181.125 L 197.191406 181.125 C 194.632812 181.125 191.996094 181.125 189.4375 181.125 C 187.277344 181.125 186 182.402344 186 184.5625 C 186 185.363281 186 186.160156 186 186.960938 C 186 193.917969 181.363281 198.476562 174.488281 198.476562 C 164.011719 198.476562 168.890625 198.476562 158.417969 198.476562 C 155.300781 198.476562 152.339844 199.039062 149.382812 200.078125 C 138.589844 203.996094 131.554688 213.914062 131.554688 225.507812 C 131.554688 236.542969 131.554688 247.582031 131.554688 258.617188 L 131.554688 260.214844 C 129.714844 260.375 128.757812 261.417969 128.597656 263.015625 C 128.4375 264.214844 128.4375 265.574219 128.597656 266.855469 C 128.835938 268.695312 129.957031 269.574219 131.636719 269.574219 L 165.691406 269.574219 C 166.972656 269.574219 167.929688 269.011719 168.25 267.894531 C 168.570312 266.695312 168.730469 265.335938 168.730469 264.054688 C 168.730469 261.816406 167.851562 260.777344 165.773438 260.136719 C 165.773438 260.054688 165.691406 259.898438 165.691406 259.816406 C 165.691406 251.660156 165.691406 243.503906 165.691406 235.265625 C 165.691406 233.585938 166.890625 232.546875 168.652344 232.546875 C 177.765625 232.546875 171.527344 232.546875 180.5625 232.546875 C 181.203125 232.546875 181.523438 232.707031 181.761719 233.425781 C 182.082031 234.304688 182.5625 235.183594 183.039062 235.984375 C 185.039062 238.785156 187.835938 240.382812 190.875 241.742188 C 196.550781 244.222656 202.546875 244.941406 208.625 244.703125 C 214.300781 244.460938 219.738281 243.261719 224.691406 240.382812 C 227.570312 238.703125 229.96875 236.625 231.167969 233.347656 C 231.25 233.027344 231.96875 232.707031 232.367188 232.707031 C 234.925781 232.707031 245.480469 232.707031 259.148438 232.707031 L 259.148438 230.785156 Z M 315.992188 230.785156 " fill-opacity="1" fill-rule="nonzero"/></g></svg>