<svg xmlns="http://www.w3.org/2000/svg" xmlns:xlink="http://www.w3.org/1999/xlink" width="512" zoomAndPan="magnify" viewBox="0 0 384 383.999986" height="512" preserveAspectRatio="xMidYMid meet" version="1.0"><defs><clipPath id="2dc688e2a7"><path d="M 85 24 L 366.605469 24 L 366.605469 383 L 85 383 Z M 85 24 " clip-rule="nonzero"/></clipPath><clipPath id="c026f8f427"><path d="M 17.105469 0 L 340 0 L 340 384 L 17.105469 384 Z M 17.105469 0 " clip-rule="nonzero"/></clipPath></defs><g clip-path="url(#2dc688e2a7)"><path fill="#e6e6e6" d="M 359.277344 186.574219 L 366.628906 183.039062 C 361.355469 170.679688 355.964844 158.882812 350.335938 148.171875 C 348.371094 144.4375 346.378906 140.832031 344.355469 137.382812 C 343.359375 135.6875 342.222656 134.089844 340.964844 132.605469 C 337.371094 128.355469 332.777344 125.03125 327.535156 122.96875 L 324.984375 121.960938 L 315.199219 118.109375 L 310.757812 116.363281 L 305.71875 114.378906 L 294.582031 102.683594 L 294.582031 102.6875 L 294.566406 95.640625 L 294.617188 95.683594 C 323.839844 79.417969 317.90625 41.753906 297.515625 38.109375 C 297.324219 38.070312 297.167969 37.953125 297.082031 37.777344 C 290.707031 23.691406 272.289062 21.253906 261.808594 29.945312 C 261.660156 30.070312 261.460938 30.117188 261.273438 30.0625 C 244.285156 25.144531 232.835938 41.527344 242.171875 53.945312 C 240.609375 59.996094 240.351562 65.957031 240.847656 71.921875 C 240.910156 72.6875 240.902344 73.460938 240.800781 74.226562 C 239.480469 84.785156 240.433594 94.789062 245.78125 103.167969 C 246.878906 104.894531 248.710938 106.023438 250.738281 106.214844 C 251.332031 106.269531 255.125 107.449219 256.539062 107.566406 L 247.285156 115.121094 L 240.761719 118.242188 L 240.183594 118.519531 L 229.511719 123.625 L 229.519531 123.648438 C 228.992188 123.914062 228.46875 124.1875 227.953125 124.472656 C 227.9375 124.480469 227.917969 124.488281 227.902344 124.5 C 227.414062 124.769531 226.925781 125.046875 226.445312 125.335938 C 226.382812 125.375 226.316406 125.414062 226.253906 125.453125 C 225.820312 125.714844 225.386719 125.980469 224.964844 126.253906 C 224.839844 126.335938 224.714844 126.417969 224.589844 126.5 C 224.226562 126.742188 223.859375 126.984375 223.5 127.238281 C 223.304688 127.375 223.109375 127.519531 222.914062 127.65625 C 222.628906 127.863281 222.339844 128.070312 222.058594 128.285156 C 221.769531 128.5 221.488281 128.726562 221.203125 128.949219 C 221.015625 129.097656 220.824219 129.246094 220.636719 129.394531 C 220.207031 129.746094 219.78125 130.105469 219.363281 130.472656 C 219.324219 130.507812 219.28125 130.542969 219.242188 130.578125 C 218.761719 130.996094 218.292969 131.425781 217.832031 131.863281 L 201.5 147.402344 L 186.535156 161.636719 L 188.359375 164.066406 L 189.683594 165.835938 L 186.429688 169.671875 C 186.289062 169.828125 186.089844 169.886719 185.90625 169.851562 C 185.742188 169.820312 185.570312 169.710938 185.496094 169.523438 L 179.945312 155.6875 L 179.945312 154.4375 C 179.484375 153.507812 179.042969 152.570312 178.640625 151.613281 L 178.640625 152.421875 L 166.890625 123.144531 C 166.78125 122.859375 166.722656 122.558594 166.722656 122.253906 C 166.722656 121.953125 166.78125 121.660156 166.890625 121.382812 C 168.582031 117.210938 169.511719 110.910156 169.953125 106.136719 C 170.089844 104.703125 169.890625 103.265625 169.371094 101.929688 L 166.605469 94.835938 L 165.34375 91.136719 L 165.839844 90.972656 C 165.609375 90.710938 165.398438 90.433594 165.238281 90.125 C 165.1875 90.027344 165.15625 89.933594 165.117188 89.835938 L 164.90625 89.90625 C 164.519531 89.1875 163.582031 88.980469 162.933594 89.441406 L 158.058594 67.675781 C 157.902344 66.972656 157.238281 66.484375 156.503906 66.546875 C 148.683594 67.242188 141.078125 68.953125 133.695312 71.667969 C 133.015625 71.914062 132.621094 72.644531 132.785156 73.355469 L 136.113281 88.238281 L 135.9375 88.328125 C 135.085938 88.753906 134.429688 89.496094 134.160156 90.402344 C 133.679688 92.035156 134.019531 93.273438 135.25 94.070312 C 135.449219 94.191406 135.496094 94.457031 135.351562 94.632812 C 133.980469 96.390625 133.59375 98.207031 134.269531 100.109375 L 133.863281 100.246094 C 134.136719 100.554688 134.324219 100.953125 134.386719 101.445312 L 134.824219 101.300781 C 134.917969 101.464844 135.023438 101.640625 135.140625 101.8125 C 135.21875 101.929688 135.21875 102.074219 135.15625 102.199219 C 134.003906 104.378906 134.523438 107.171875 136.292969 109.019531 C 136.378906 109.121094 136.417969 109.246094 136.386719 109.359375 C 135.691406 112.601562 136.316406 115.332031 139.269531 116.371094 C 140.789062 120.027344 142.945312 123.222656 145.761719 125.921875 L 144.574219 126.328125 C 145.027344 126.601562 145.441406 126.925781 145.78125 127.308594 L 146.875 126.933594 C 147.269531 127.292969 147.691406 127.648438 148.117188 127.972656 C 148.960938 128.636719 149.476562 129.648438 149.5625 130.71875 C 151.015625 149.414062 153.472656 165 158.566406 178.589844 L 157.472656 178.992188 C 157.640625 179.394531 157.800781 179.800781 157.941406 180.210938 L 159.03125 179.8125 C 161.929688 187.222656 165.632812 194.046875 170.429688 200.441406 C 172.550781 203.257812 175.300781 205.578125 178.640625 206.53125 L 178.640625 207.101562 C 179.070312 207.28125 179.503906 207.449219 179.945312 207.601562 L 179.945312 206.839844 C 180 206.847656 180.054688 206.855469 180.101562 206.863281 C 183.585938 207.425781 187.15625 206.675781 190.140625 204.8125 L 209.761719 192.570312 L 211.292969 194.609375 L 212.777344 196.589844 L 212.78125 196.589844 L 226.796875 182.785156 L 228.445312 221.058594 L 218.992188 226.121094 C 218.296875 226.507812 217.996094 227.375 218.304688 228.117188 C 221.378906 235.410156 224.914062 242.042969 229.265625 248.253906 L 229.101562 255.253906 C 226.164062 264.210938 223.542969 273.507812 221.226562 283.007812 L 140.289062 283.007812 C 140.289062 283.007812 140.289062 283.007812 140.28125 283.015625 L 116.761719 288.058594 L 85.550781 322.175781 L 111.863281 316.625 C 111.878906 316.722656 111.9375 316.800781 112.023438 316.855469 L 110.230469 320.15625 L 109.289062 321.90625 L 103.050781 333.410156 L 101.746094 335.8125 L 94.542969 349.09375 L 112.179688 349.09375 L 112.179688 359.445312 L 112.667969 382.910156 L 339.050781 382.777344 C 339.335938 341.988281 334.578125 297.898438 323.378906 255.253906 C 323.386719 255.253906 323.386719 255.246094 323.386719 255.246094 C 323.386719 255.246094 323.386719 255.246094 323.378906 255.246094 L 323.949219 243.464844 C 331.773438 241.769531 338.992188 239.519531 345.460938 236.582031 C 345.566406 236.550781 345.667969 236.511719 345.777344 236.464844 C 358.453125 232.164062 365.832031 218.953125 363.175781 205.816406 Z M 333.828125 210.574219 C 331.066406 211.148438 328.269531 211.789062 325.449219 212.476562 L 326.355469 193.84375 L 329.097656 201.089844 L 330.386719 200.472656 L 334.269531 209.746094 C 334.414062 210.101562 334.207031 210.496094 333.828125 210.574219 Z M 333.828125 210.574219 " fill-opacity="1" fill-rule="nonzero"/></g><g clip-path="url(#c026f8f427)"><path fill="#fc5e39" d="M 232.867188 156.4375 L 229.511719 123.628906 L 240.183594 118.519531 L 244.214844 156.4375 Z M 324.984375 121.960938 L 314.550781 117.855469 L 306.878906 156.4375 L 318.4375 156.4375 Z M 294.546875 383.289062 L 339.613281 383.289062 C 339.902344 342.503906 334.578125 297.894531 323.382812 255.253906 L 326.351562 193.839844 L 318.441406 156.4375 L 232.863281 156.4375 L 226.800781 182.785156 L 229.101562 255.253906 C 226.164062 264.207031 223.539062 273.503906 221.222656 283.011719 L 283.640625 283.011719 L 304.671875 290.804688 L 316.777344 327.058594 L 294.546875 316.558594 L 306.878906 349.09375 L 294.546875 349.09375 Z M 101.742188 323.699219 L 101.742188 335.8125 L 103.050781 333.40625 L 103.050781 324.164062 L 109.289062 321.902344 L 110.230469 320.160156 L 102.167969 323.082031 C 101.917969 323.175781 101.742188 323.421875 101.742188 323.699219 Z M 179.929688 5.324219 C 179.929688 5.347656 179.945312 5.371094 179.945312 5.394531 L 179.945312 155.6875 L 178.640625 152.429688 L 178.640625 86.71875 L 165.34375 91.136719 L 164.980469 90.101562 C 164.960938 90.03125 164.9375 89.96875 164.90625 89.90625 L 178.640625 85.335938 L 178.640625 6.238281 L 56.894531 37.101562 L 56.894531 125.859375 L 66.839844 122.550781 L 66.839844 86.789062 C 66.839844 86.496094 67.027344 86.257812 67.296875 86.171875 L 82.507812 81.25 L 82.46875 46.105469 C 82.460938 45.808594 82.660156 45.554688 82.949219 45.476562 L 107.921875 38.640625 C 108.113281 38.585938 108.328125 38.632812 108.484375 38.753906 C 108.652344 38.878906 108.746094 39.066406 108.746094 39.265625 L 108.746094 72.773438 L 127.976562 66.554688 C 128.175781 66.484375 128.394531 66.515625 128.5625 66.640625 C 128.734375 66.765625 128.835938 66.964844 128.835938 67.175781 L 128.835938 101.929688 L 134.269531 100.109375 C 134.40625 100.503906 134.59375 100.898438 134.824219 101.300781 L 128.433594 103.429688 L 67.777344 123.617188 C 67.753906 123.632812 67.722656 123.632812 67.691406 123.648438 L 56.894531 127.246094 L 56.894531 215.941406 L 66.839844 212.285156 L 66.839844 153.234375 C 66.839844 152.957031 67.019531 152.707031 67.289062 152.617188 L 93.621094 143.667969 C 93.824219 143.597656 94.039062 143.628906 94.214844 143.75 C 94.378906 143.875 94.488281 144.078125 94.488281 144.285156 L 94.488281 202.128906 L 105.460938 198.097656 L 105.460938 140.109375 C 105.460938 139.820312 105.640625 139.574219 105.910156 139.488281 L 131.871094 130.648438 C 132.074219 130.578125 132.289062 130.617188 132.46875 130.742188 C 132.628906 130.863281 132.738281 131.058594 132.738281 131.273438 L 132.738281 188.074219 L 141.71875 184.777344 L 141.71875 127.769531 C 141.71875 127.492188 141.894531 127.246094 142.167969 127.152344 L 145.761719 125.921875 C 146.125 126.269531 146.488281 126.609375 146.875 126.933594 L 143.023438 128.242188 L 143.023438 184.300781 L 158.566406 178.589844 C 158.722656 179 158.867188 179.410156 159.03125 179.8125 L 56.894531 217.335938 L 56.894531 299.519531 L 66.039062 296.164062 L 66.039062 260.0625 C 66.039062 259.785156 66.207031 259.546875 66.46875 259.445312 L 81.332031 254.164062 L 81.332031 222.8125 C 81.332031 222.535156 81.511719 222.277344 81.78125 222.191406 L 105.460938 214.0625 C 105.664062 213.992188 105.878906 214.03125 106.058594 214.148438 C 106.21875 214.273438 106.328125 214.472656 106.328125 214.683594 L 106.328125 245.273438 L 124.589844 238.785156 L 124.589844 207.96875 C 124.589844 207.691406 124.761719 207.433594 125.03125 207.347656 L 148.722656 199.21875 C 148.914062 199.148438 149.136719 199.1875 149.308594 199.3125 C 149.476562 199.429688 149.578125 199.628906 149.578125 199.839844 L 149.578125 229.914062 L 160.632812 225.976562 C 160.832031 225.914062 161.046875 225.945312 161.21875 226.0625 C 161.394531 226.183594 161.496094 226.386719 161.496094 226.59375 L 161.496094 261.085938 L 178.640625 254.789062 L 178.640625 206.53125 C 179.054688 206.652344 179.480469 206.746094 179.921875 206.824219 C 179.929688 206.824219 179.9375 206.824219 179.945312 206.839844 L 179.945312 283.007812 L 178.640625 283.007812 L 178.640625 256.1875 L 161.109375 262.625 C 161.101562 262.632812 161.085938 262.632812 161.078125 262.640625 L 138.6875 270.863281 C 138.671875 270.871094 138.65625 270.871094 138.648438 270.878906 L 103.46875 283.804688 C 103.460938 283.804688 103.460938 283.804688 103.453125 283.804688 L 56.894531 300.914062 L 56.894531 382.132812 L 69.554688 376.609375 L 69.554688 335.378906 C 69.554688 335.09375 69.730469 334.855469 69.980469 334.761719 L 92.386719 326.640625 C 92.585938 326.5625 92.808594 326.59375 92.988281 326.71875 C 93.15625 326.839844 93.265625 327.042969 93.265625 327.25 L 93.265625 366.265625 L 101.746094 362.570312 L 101.746094 349.09375 L 103.050781 349.09375 L 103.050781 362.003906 L 112.179688 358.015625 L 112.179688 359.445312 L 92.996094 367.804688 C 92.917969 367.867188 92.824219 367.90625 92.734375 367.921875 L 70.464844 377.628906 C 70.464844 377.636719 70.457031 377.636719 70.449219 377.636719 L 56.5 383.726562 L 56.492188 383.726562 C 56.445312 383.75 56.398438 383.75 56.34375 383.757812 C 56.304688 383.773438 56.277344 383.785156 56.238281 383.785156 C 56.230469 383.785156 56.222656 383.785156 56.214844 383.78125 L 56.191406 383.78125 L 17.707031 380.871094 C 17.367188 380.847656 17.097656 380.570312 17.105469 380.222656 L 18.195312 29.179688 C 18.195312 29.164062 18.203125 29.148438 18.203125 29.132812 C 18.203125 29.078125 18.21875 29.023438 18.242188 28.96875 C 18.25 28.9375 18.257812 28.910156 18.273438 28.886719 C 18.304688 28.824219 18.351562 28.769531 18.394531 28.714844 C 18.410156 28.707031 18.417969 28.683594 18.433594 28.667969 C 18.441406 28.667969 18.441406 28.667969 18.441406 28.667969 C 18.511719 28.613281 18.589844 28.566406 18.675781 28.550781 L 125.078125 0.1875 C 125.148438 0.171875 125.226562 0.164062 125.292969 0.171875 L 179.34375 4.742188 C 179.367188 4.742188 179.375 4.75 179.390625 4.75 C 179.425781 4.757812 179.457031 4.765625 179.496094 4.789062 C 179.550781 4.804688 179.605469 4.828125 179.660156 4.867188 C 179.667969 4.875 179.683594 4.875 179.699219 4.882812 C 179.707031 4.890625 179.714844 4.90625 179.722656 4.914062 C 179.773438 4.960938 179.8125 5.015625 179.84375 5.070312 C 179.859375 5.09375 179.875 5.117188 179.882812 5.144531 C 179.914062 5.199219 179.921875 5.253906 179.929688 5.324219 Z M 70.859375 376.035156 L 91.960938 366.832031 L 91.960938 328.179688 L 70.859375 335.835938 Z M 102.554688 248.011719 L 91.226562 252.035156 L 91.226562 286.90625 L 102.546875 282.734375 Z M 137.761719 235.488281 L 127.542969 239.125 L 127.542969 273.5625 L 137.761719 269.808594 Z M 139.066406 235.027344 L 139.066406 269.332031 L 160.191406 261.566406 L 160.191406 227.523438 L 149.152344 231.445312 C 149.152344 231.445312 149.152344 231.453125 149.144531 231.453125 Z M 125.898438 238.328125 L 138.195312 233.957031 L 138.203125 233.949219 L 148.273438 230.367188 L 148.273438 200.757812 L 125.898438 208.441406 Z M 103.863281 247.542969 L 103.863281 282.257812 L 126.238281 274.042969 L 126.238281 239.589844 L 105.917969 246.8125 C 105.910156 246.820312 105.894531 246.820312 105.886719 246.828125 Z M 82.640625 253.699219 L 82.683594 253.683594 L 90.351562 250.953125 L 90.359375 250.953125 L 102.957031 246.480469 C 102.972656 246.472656 102.980469 246.472656 102.988281 246.457031 L 105.023438 245.746094 L 105.023438 215.601562 L 82.640625 223.285156 Z M 67.34375 295.683594 L 89.917969 287.382812 L 89.917969 252.507812 L 82.207031 255.246094 L 67.34375 260.527344 Z M 106.769531 197.617188 L 131.429688 188.554688 L 131.429688 132.1875 L 106.769531 140.574219 Z M 68.148438 211.804688 L 93.171875 202.617188 L 93.171875 145.199219 L 68.148438 153.707031 Z M 102.554688 76.15625 L 94.488281 78.753906 L 94.488281 113.351562 L 102.554688 110.660156 Z M 103.863281 75.738281 L 103.863281 110.234375 L 127.527344 102.351562 L 127.527344 68.070312 L 108.351562 74.273438 C 108.328125 74.28125 108.3125 74.296875 108.289062 74.304688 Z M 83.773438 46.597656 L 83.820312 80.820312 L 93.628906 77.65625 C 93.636719 77.648438 93.644531 77.65625 93.652344 77.648438 L 102.964844 74.644531 C 102.980469 74.636719 102.988281 74.628906 103.003906 74.628906 L 107.441406 73.191406 L 107.441406 40.132812 Z M 68.15625 122.117188 L 93.171875 113.785156 L 93.171875 79.179688 L 83.464844 82.3125 L 68.15625 87.269531 Z M 55.585938 37.214844 L 19.492188 29.984375 L 18.410156 379.617188 L 55.585938 382.425781 Z M 175.355469 5.71875 L 125.300781 1.480469 L 21.726562 29.09375 L 56.035156 35.96875 C 56.050781 35.960938 56.058594 35.957031 56.074219 35.957031 Z M 175.355469 5.71875 " fill-opacity="1" fill-rule="nonzero"/></g><path fill="#f9a429" d="M 294.546875 316.558594 L 306.878906 349.09375 L 94.542969 349.09375 L 101.742188 335.8125 L 103.050781 333.40625 L 109.289062 321.902344 L 110.230469 320.160156 L 112.179688 316.558594 L 85.550781 322.175781 L 116.765625 288.058594 L 140.289062 283.011719 L 283.640625 283.011719 L 304.671875 290.804688 L 316.777344 327.058594 Z M 294.546875 316.558594 " fill-opacity="1" fill-rule="nonzero"/><path fill="#ff967a" d="M 240.269531 74.28125 C 240.367188 73.515625 240.375 72.746094 240.316406 71.980469 C 239.816406 66.015625 240.609375 59.996094 242.171875 53.945312 C 248.085938 57.773438 253.226562 57.53125 264.121094 52.59375 C 264.589844 52.382812 265.15625 52.507812 265.453125 52.925781 C 269.75 58.933594 278.949219 61.347656 287.863281 60.25 C 288.5625 60.164062 289.15625 60.710938 289.121094 61.417969 C 288.796875 67.332031 290.128906 72.851562 292.710938 77.492188 C 298.546875 69.582031 310.800781 83.183594 294.558594 93.109375 L 294.566406 95.636719 L 294.582031 102.683594 L 294.601562 109.339844 C 294.609375 112.136719 293.582031 114.832031 291.714844 116.917969 C 286.558594 122.691406 280.519531 127.179688 274.046875 131.042969 C 272.808594 131.785156 271.238281 131.691406 270.097656 130.800781 C 264.957031 126.769531 260.976562 122.167969 258.152344 116.96875 C 257.273438 115.355469 256.84375 113.535156 256.84375 111.691406 L 256.84375 107.316406 L 256.863281 107.308594 C 254.789062 107.273438 252.695312 107.148438 250.542969 106.949219 C 248.515625 106.757812 246.683594 105.625 245.585938 103.898438 C 240.238281 95.523438 238.945312 84.84375 240.269531 74.28125 Z M 186.429688 169.667969 C 186.289062 169.824219 186.089844 169.886719 185.90625 169.851562 C 185.742188 169.816406 185.574219 169.710938 185.496094 169.527344 L 179.945312 155.6875 L 178.640625 152.425781 L 166.894531 123.144531 C 166.78125 122.855469 166.71875 122.558594 166.71875 122.253906 C 166.71875 121.957031 166.78125 121.660156 166.894531 121.382812 C 168.585938 117.214844 169.507812 110.910156 169.953125 106.136719 C 170.089844 104.707031 169.890625 103.269531 169.367188 101.925781 L 166.605469 94.835938 L 165.34375 91.136719 L 164.984375 90.101562 C 164.960938 90.03125 164.933594 89.96875 164.90625 89.910156 C 164.523438 89.183594 163.582031 88.976562 162.9375 89.445312 C 162.851562 89.5 162.773438 89.570312 162.695312 89.65625 C 162.390625 90.011719 162.082031 90.441406 161.8125 90.945312 C 161.710938 91.136719 161.605469 91.332031 161.507812 91.546875 C 161.386719 91.828125 161.273438 92.125 161.1875 92.4375 C 161.167969 92.464844 161.160156 92.5 161.152344 92.535156 C 160.792969 93.78125 160.699219 95.324219 161.160156 97.164062 C 161.394531 98.113281 161.777344 99.144531 162.34375 100.25 L 162.414062 101.5 L 163.007812 111.761719 C 156.8125 113.707031 150.328125 115.007812 143.609375 115.738281 C 142.871094 115.816406 142.191406 115.328125 142.023438 114.605469 L 141.640625 112.90625 L 144.1875 109.191406 C 144.648438 108.519531 145.273438 107.976562 146.007812 107.601562 C 148.8125 106.199219 150.226562 104.332031 150.949219 102.816406 C 151.488281 101.664062 150.433594 100.398438 149.195312 100.738281 L 147.914062 101.089844 L 147.0625 101.324219 C 147 101.339844 146.984375 101.261719 147.027344 101.238281 C 147.96875 100.707031 148.683594 100.023438 149.222656 99.292969 C 149.378906 99.082031 149.519531 98.863281 149.648438 98.648438 C 150.03125 98 150.304688 97.339844 150.484375 96.726562 C 150.53125 96.582031 150.546875 96.441406 150.546875 96.308594 C 150.546875 96.230469 150.539062 96.152344 150.53125 96.074219 C 150.53125 96.066406 150.53125 96.046875 150.519531 96.039062 C 150.511719 95.96875 150.496094 95.910156 150.476562 95.847656 C 150.460938 95.769531 150.425781 95.691406 150.382812 95.613281 C 150.320312 95.488281 150.242188 95.375 150.144531 95.273438 C 150.03125 95.148438 149.902344 95.054688 149.761719 94.984375 C 149.753906 94.96875 149.738281 94.96875 149.726562 94.957031 C 149.683594 94.933594 149.640625 94.914062 149.597656 94.90625 C 149.535156 94.878906 149.476562 94.863281 149.421875 94.84375 C 149.171875 94.773438 148.898438 94.773438 148.621094 94.863281 L 146.566406 95.359375 L 146.554688 95.367188 L 146.113281 95.472656 C 146.058594 95.488281 146.035156 95.421875 146.078125 95.386719 C 147.265625 94.542969 148.105469 93.597656 148.71875 92.660156 C 148.722656 92.65625 148.730469 92.652344 148.734375 92.648438 C 148.8125 92.523438 148.898438 92.394531 148.96875 92.273438 C 149.117188 92.019531 149.25 91.765625 149.371094 91.511719 C 149.421875 91.390625 149.476562 91.269531 149.527344 91.148438 C 149.578125 91.023438 149.625 90.902344 149.667969 90.78125 C 149.796875 90.421875 149.902344 90.082031 149.972656 89.753906 C 150.199219 88.679688 149.230469 87.738281 148.167969 87.992188 L 145.902344 88.523438 L 144.917969 88.757812 C 144.867188 88.765625 144.839844 88.695312 144.890625 88.671875 C 145.886719 88.050781 146.625 87.378906 147.167969 86.71875 C 147.652344 86.132812 148.003906 85.546875 148.238281 85 C 148.769531 83.742188 147.394531 82.515625 146.164062 83.132812 L 136.117188 88.234375 L 135.933594 88.332031 C 135.089844 88.757812 134.425781 89.5 134.15625 90.40625 C 133.675781 92.035156 134.015625 93.273438 135.246094 94.070312 C 135.445312 94.191406 135.5 94.453125 135.351562 94.636719 C 133.984375 96.386719 133.597656 98.210938 134.269531 100.113281 C 134.410156 100.503906 134.59375 100.898438 134.828125 101.296875 C 134.914062 101.464844 135.027344 101.636719 135.140625 101.8125 C 135.21875 101.925781 135.21875 102.074219 135.160156 102.195312 C 134.007812 104.375 134.523438 107.175781 136.292969 109.023438 C 136.378906 109.121094 136.414062 109.242188 136.386719 109.363281 C 135.691406 112.601562 136.316406 115.328125 139.273438 116.367188 C 140.789062 120.03125 142.949219 123.222656 145.761719 125.925781 C 146.121094 126.273438 146.488281 126.613281 146.871094 126.9375 C 147.269531 127.292969 147.6875 127.644531 148.117188 127.972656 C 148.960938 128.636719 149.476562 129.648438 149.5625 130.722656 C 151.015625 149.410156 153.476562 165.003906 158.5625 178.589844 C 158.71875 179 158.867188 179.410156 159.035156 179.808594 C 161.925781 187.222656 165.628906 194.042969 170.429688 200.441406 C 172.546875 203.261719 175.300781 205.578125 178.640625 206.53125 C 179.058594 206.652344 179.484375 206.75 179.921875 206.828125 C 179.929688 206.828125 179.9375 206.828125 179.945312 206.835938 C 180 206.84375 180.050781 206.851562 180.105469 206.863281 C 183.589844 207.429688 187.152344 206.679688 190.140625 204.8125 L 209.765625 192.566406 L 189.730469 165.777344 Z M 363.175781 205.816406 L 359.28125 186.570312 L 330.386719 200.46875 L 334.265625 209.75 C 334.414062 210.105469 334.203125 210.5 333.828125 210.578125 C 317.378906 213.988281 299.941406 219.542969 281.941406 226.324219 C 280.753906 226.769531 279.472656 226.917969 278.226562 226.734375 L 272.765625 225.941406 L 254.746094 223.324219 C 253.5 223.144531 252.460938 224.347656 252.878906 225.542969 C 253.488281 227.335938 254.890625 229.507812 258.089844 230.085938 C 259.109375 230.269531 260.050781 230.746094 260.871094 231.382812 L 263.003906 233.050781 L 234.992188 249.035156 L 249.027344 253.578125 C 254.550781 255.355469 260.523438 255.234375 265.957031 253.210938 L 277.425781 248.957031 C 279.222656 248.292969 281.113281 247.9375 283.027344 247.882812 C 307.183594 247.1875 328.792969 244.152344 345.460938 236.582031 C 345.566406 236.546875 345.671875 236.511719 345.777344 236.46875 C 358.453125 232.160156 365.835938 218.949219 363.175781 205.816406 Z M 363.175781 205.816406 " fill-opacity="1" fill-rule="nonzero"/><path fill="#321a2a" d="M 242.171875 53.945312 C 231.628906 40.121094 244.261719 24.53125 261.253906 29.449219 C 261.4375 29.5 261.636719 29.457031 261.785156 29.335938 C 272.269531 20.640625 291.082031 22.976562 297.457031 37.0625 C 297.539062 37.238281 297.695312 37.359375 297.886719 37.394531 C 318.277344 41.039062 325.253906 80.988281 294.617188 95.683594 L 294.566406 95.636719 L 294.558594 93.109375 C 310.800781 83.183594 298.546875 69.582031 292.710938 77.492188 C 290.128906 72.851562 288.796875 67.332031 289.121094 61.417969 C 289.15625 60.710938 288.5625 60.164062 287.863281 60.25 C 278.949219 61.347656 269.75 58.933594 265.453125 52.925781 C 265.15625 52.507812 264.589844 52.382812 264.121094 52.59375 C 253.226562 57.53125 248.085938 57.773438 242.171875 53.945312 Z M 271.96875 77.800781 C 273.023438 78.070312 274.160156 77.195312 274.507812 75.84375 C 274.851562 74.492188 274.277344 73.175781 273.222656 72.90625 C 272.164062 72.636719 271.03125 73.511719 270.683594 74.863281 C 270.339844 76.214844 270.914062 77.53125 271.96875 77.800781 Z M 243.371094 73.28125 C 243.136719 74.609375 243.714844 75.824219 244.667969 75.992188 C 245.621094 76.164062 246.582031 75.222656 246.820312 73.898438 C 247.054688 72.570312 246.476562 71.355469 245.523438 71.1875 C 244.570312 71.015625 243.605469 71.957031 243.371094 73.28125 Z M 251.832031 67.691406 C 250.257812 72.992188 249.070312 78.371094 247.980469 83.769531 C 247.78125 84.628906 248.085938 85.640625 248.75 86.25 C 249.078125 86.5625 249.488281 86.78125 249.921875 86.898438 C 250.027344 86.925781 250.140625 86.945312 250.246094 86.964844 L 250.507812 86.996094 C 250.679688 87.023438 250.855469 87.042969 251.03125 87.054688 C 252.433594 87.183594 253.851562 87.21875 255.246094 87.089844 C 256.664062 86.964844 257.980469 86.769531 259.414062 86.394531 C 260.164062 86.117188 260.707031 85.410156 260.835938 84.703125 C 261.019531 84.039062 261.183594 83.367188 261.339844 82.695312 C 260.679688 83.859375 260.496094 85.566406 259.21875 85.785156 C 258.636719 85.882812 257.886719 85.933594 257.230469 85.980469 C 256.550781 86.023438 255.875 86.066406 255.199219 86.070312 C 253.847656 86.074219 252.503906 86.019531 251.175781 85.824219 L 250.425781 85.71875 L 250.246094 85.679688 C 250.015625 85.613281 249.804688 85.492188 249.636719 85.328125 C 249.296875 84.984375 249.148438 84.515625 249.261719 84.023438 C 250.3125 78.617188 251.265625 73.191406 251.832031 67.691406 Z M 257.773438 93.539062 C 257.164062 93.523438 256.550781 93.480469 255.855469 93.398438 C 256.289062 93.957031 256.929688 94.324219 257.59375 94.539062 C 258.261719 94.765625 258.984375 94.835938 259.691406 94.765625 C 260.398438 94.691406 261.105469 94.476562 261.714844 94.078125 C 262.320312 93.695312 262.835938 93.125 263.039062 92.445312 C 261.8125 93.09375 260.738281 93.339844 259.558594 93.464844 C 258.972656 93.527344 258.382812 93.542969 257.773438 93.539062 Z M 273.996094 70.097656 C 274.433594 70.214844 274.855469 70.371094 275.304688 70.546875 L 276.75 71.175781 C 276.480469 70.039062 275.492188 69.152344 274.34375 68.835938 C 273.769531 68.683594 273.164062 68.660156 272.601562 68.777344 C 272.039062 68.890625 271.503906 69.117188 271.0625 69.507812 C 271.632812 69.644531 272.144531 69.710938 272.628906 69.796875 C 273.109375 69.886719 273.558594 69.976562 273.996094 70.097656 Z M 245.976562 67.230469 C 245.503906 67.0625 244.980469 67.019531 244.476562 67.097656 C 243.460938 67.261719 242.523438 67.902344 242.179688 68.882812 C 242.699219 68.800781 243.121094 68.695312 243.523438 68.605469 C 243.925781 68.527344 244.296875 68.449219 244.675781 68.390625 C 245.050781 68.328125 245.433594 68.289062 245.847656 68.238281 C 246.261719 68.195312 246.699219 68.15625 247.210938 68.054688 C 246.882812 67.648438 246.449219 67.386719 245.976562 67.230469 Z M 266.066406 106.332031 C 264.53125 106.511719 262.988281 106.617188 261.445312 106.734375 C 258.359375 106.925781 255.257812 107.027344 252.136719 107.058594 C 255.222656 107.53125 258.347656 107.773438 261.480469 107.75 C 263.046875 107.753906 264.613281 107.675781 266.179688 107.5625 C 267.761719 107.476562 269.414062 107.097656 270.898438 106.425781 C 273.75 105.019531 276.441406 103.457031 279.027344 101.667969 C 281.617188 99.898438 284.042969 97.894531 286.25 95.683594 C 283.714844 97.507812 281.121094 99.207031 278.476562 100.808594 C 275.832031 102.394531 273.097656 103.90625 270.359375 105.234375 C 269.011719 105.863281 267.585938 106.207031 266.066406 106.332031 Z M 247.726562 121.097656 C 248.109375 123.0625 248.664062 125.003906 249.394531 126.878906 C 250.847656 130.632812 253.039062 134.101562 255.753906 137.085938 L 256.003906 137.367188 C 256.140625 137.515625 256.320312 137.636719 256.511719 137.707031 C 256.890625 137.859375 257.34375 137.816406 257.691406 137.609375 L 258.976562 136.855469 L 261.546875 135.34375 L 264.117188 133.828125 L 264.757812 133.449219 L 265.078125 133.261719 L 265.234375 133.171875 C 265.257812 133.160156 265.28125 133.148438 265.304688 133.140625 C 265.402344 133.105469 265.515625 133.109375 265.609375 133.152344 C 265.65625 133.171875 265.699219 133.199219 265.738281 133.234375 L 265.949219 133.476562 L 269.863281 137.976562 L 270.839844 139.101562 L 271.332031 139.664062 L 271.574219 139.945312 C 271.691406 140.082031 271.886719 140.246094 272.085938 140.328125 C 272.488281 140.515625 272.972656 140.5 273.371094 140.289062 C 273.460938 140.242188 273.570312 140.164062 273.632812 140.113281 L 273.773438 139.996094 L 274.0625 139.757812 L 275.210938 138.808594 L 279.785156 134.976562 L 282.003906 133.121094 C 282.082031 133.070312 282.183594 133.050781 282.277344 133.070312 C 282.339844 133.085938 282.332031 133.078125 282.445312 133.136719 L 282.777344 133.304688 L 284.101562 133.988281 L 289.402344 136.722656 L 290.726562 137.402344 L 291.394531 137.75 C 291.78125 137.945312 292.25 137.949219 292.636719 137.765625 C 292.734375 137.71875 292.828125 137.664062 292.914062 137.597656 C 292.953125 137.566406 293 137.523438 293.03125 137.496094 L 293.097656 137.429688 L 293.363281 137.160156 L 293.886719 136.621094 C 294.242188 136.265625 294.582031 135.894531 294.917969 135.519531 C 297.640625 132.5625 299.992188 129.257812 301.863281 125.703125 C 302.800781 123.929688 303.613281 122.089844 304.304688 120.207031 C 304.996094 118.328125 305.527344 116.382812 305.71875 114.382812 C 304.976562 116.246094 304.339844 118.109375 303.621094 119.949219 C 302.898438 121.785156 302.054688 123.570312 301.097656 125.289062 C 299.183594 128.730469 296.8125 131.90625 294.085938 134.742188 C 293.75 135.097656 293.410156 135.453125 293.054688 135.792969 L 292.527344 136.308594 L 292.261719 136.566406 L 292.199219 136.632812 C 292.183594 136.644531 292.183594 136.644531 292.175781 136.652344 C 292.164062 136.660156 292.148438 136.667969 292.132812 136.675781 C 292.070312 136.703125 291.992188 136.703125 291.9375 136.671875 L 291.28125 136.332031 L 289.960938 135.640625 L 284.675781 132.882812 L 283.355469 132.191406 L 283.023438 132.019531 C 282.917969 131.960938 282.679688 131.855469 282.496094 131.828125 C 282.101562 131.757812 281.679688 131.835938 281.339844 132.050781 C 281.144531 132.175781 281.070312 132.253906 280.972656 132.332031 L 280.6875 132.570312 L 280.113281 133.042969 L 278.964844 133.996094 L 274.375 137.804688 L 273.234375 138.765625 L 272.949219 139.003906 L 272.808594 139.125 C 272.773438 139.152344 272.78125 139.144531 272.765625 139.15625 C 272.71875 139.179688 272.660156 139.1875 272.609375 139.164062 C 272.578125 139.148438 272.578125 139.152344 272.53125 139.101562 L 272.285156 138.824219 L 271.789062 138.265625 L 270.800781 137.148438 L 266.84375 132.6875 L 266.722656 132.546875 L 266.660156 132.476562 L 266.558594 132.371094 C 266.414062 132.238281 266.246094 132.128906 266.0625 132.054688 C 265.699219 131.90625 265.28125 131.894531 264.910156 132.027344 C 264.820312 132.058594 264.730469 132.101562 264.644531 132.152344 L 264.476562 132.25 L 264.160156 132.441406 L 263.519531 132.828125 L 260.964844 134.363281 L 258.410156 135.902344 L 257.136719 136.671875 C 257.058594 136.722656 256.96875 136.734375 256.882812 136.707031 C 256.839844 136.691406 256.808594 136.671875 256.773438 136.636719 L 256.523438 136.371094 C 253.816406 133.539062 251.605469 130.226562 250.09375 126.59375 C 249.335938 124.78125 248.75 122.898438 248.324219 120.972656 C 247.898438 119.042969 247.679688 117.089844 247.285156 115.121094 C 247.082031 117.125 247.34375 119.128906 247.726562 121.097656 Z M 306.878906 161.363281 L 319.480469 161.363281 L 318.4375 156.445312 L 306.878906 156.445312 Z M 244.214844 156.4375 L 232.847656 156.4375 L 231.753906 161.355469 L 244.214844 161.355469 Z M 311.640625 256.679688 C 309.679688 256.878906 307.722656 257.101562 305.761719 257.277344 L 299.871094 257.722656 C 292.015625 258.253906 284.136719 258.5 276.261719 258.414062 C 268.382812 258.414062 260.507812 258.097656 252.644531 257.554688 C 248.714844 257.292969 244.785156 256.957031 240.867188 256.554688 C 238.902344 256.355469 236.949219 256.101562 234.992188 255.875 C 233.035156 255.625 231.089844 255.324219 229.101562 255.25 C 232.941406 256.238281 236.878906 256.65625 240.785156 257.230469 C 244.703125 257.738281 248.632812 258.179688 252.566406 258.546875 C 260.441406 259.246094 268.34375 259.613281 276.253906 259.722656 C 284.160156 259.75 292.074219 259.519531 299.957031 258.859375 L 305.863281 258.273438 C 307.828125 258.050781 309.785156 257.777344 311.746094 257.535156 C 315.648438 256.914062 319.601562 256.496094 323.382812 255.25 C 321.386719 255.304688 319.441406 255.613281 317.496094 255.914062 C 315.542969 256.167969 313.59375 256.449219 311.640625 256.679688 Z M 340.558594 211.621094 C 339.949219 211.21875 339.289062 210.898438 338.605469 210.648438 C 337.917969 210.398438 337.207031 210.21875 336.476562 210.136719 C 335.75 210.046875 335.007812 210.042969 334.265625 210.210938 C 334.925781 210.578125 335.578125 210.855469 336.222656 211.121094 C 336.867188 211.394531 337.511719 211.636719 338.15625 211.875 C 338.804688 212.113281 339.453125 212.34375 340.125 212.546875 C 340.792969 212.757812 341.476562 212.953125 342.230469 213.070312 C 341.746094 212.480469 341.171875 212.019531 340.558594 211.621094 Z M 136.117188 88.234375 L 146.164062 83.132812 C 147.394531 82.515625 148.769531 83.742188 148.238281 85 C 148.003906 85.546875 147.652344 86.132812 147.167969 86.71875 C 146.347656 87.195312 145.597656 87.695312 144.839844 88.183594 L 142.574219 89.605469 C 141.824219 90.082031 141.066406 90.554688 140.308594 91.058594 C 139.550781 91.558594 138.792969 92.0625 138.058594 92.683594 C 139.011719 92.570312 139.90625 92.308594 140.769531 91.96875 C 141.640625 91.636719 142.476562 91.207031 143.269531 90.710938 C 144.0625 90.214844 144.8125 89.636719 145.476562 88.96875 C 145.625 88.828125 145.761719 88.679688 145.902344 88.523438 L 148.167969 87.992188 C 149.230469 87.738281 150.199219 88.679688 149.972656 89.753906 C 149.902344 90.082031 149.796875 90.421875 149.667969 90.78125 C 149.632812 90.902344 149.589844 91.023438 149.527344 91.148438 C 149.484375 91.269531 149.433594 91.390625 149.371094 91.511719 C 149.257812 91.765625 149.125 92.019531 148.96875 92.273438 C 148.894531 92.402344 148.800781 92.53125 148.71875 92.660156 C 147.007812 93.824219 145.347656 94.855469 143.65625 95.933594 C 142.773438 96.492188 141.902344 97.050781 141.039062 97.660156 C 140.179688 98.253906 139.316406 98.875 138.511719 99.605469 C 139.566406 99.363281 140.570312 98.976562 141.539062 98.542969 C 142.511719 98.113281 143.453125 97.609375 144.351562 97.035156 C 145.128906 96.535156 145.859375 95.988281 146.554688 95.367188 L 146.566406 95.359375 L 148.621094 94.863281 C 148.898438 94.773438 149.171875 94.773438 149.421875 94.84375 C 149.484375 94.855469 149.546875 94.871094 149.597656 94.90625 C 149.648438 94.921875 149.710938 94.949219 149.761719 94.984375 C 149.902344 95.054688 150.03125 95.148438 150.144531 95.273438 C 150.242188 95.375 150.320312 95.488281 150.382812 95.613281 C 150.398438 95.648438 150.40625 95.691406 150.425781 95.726562 C 150.441406 95.769531 150.460938 95.804688 150.476562 95.847656 C 150.496094 95.910156 150.511719 95.96875 150.519531 96.039062 C 150.539062 96.125 150.546875 96.214844 150.546875 96.308594 C 150.546875 96.441406 150.53125 96.582031 150.484375 96.726562 C 150.304688 97.339844 150.03125 98 149.648438 98.648438 C 149.527344 98.863281 149.378906 99.082031 149.222656 99.292969 C 148.421875 99.695312 147.699219 100.148438 146.984375 100.601562 C 146.269531 101.054688 145.570312 101.523438 144.875 102.003906 C 144.175781 102.484375 143.488281 102.972656 142.816406 103.503906 C 142.136719 104.019531 141.46875 104.558594 140.832031 105.203125 C 141.71875 105.039062 142.546875 104.734375 143.339844 104.375 C 144.132812 104.019531 144.890625 103.574219 145.613281 103.085938 C 146.339844 102.589844 147.019531 102.03125 147.628906 101.394531 C 147.722656 101.296875 147.820312 101.195312 147.914062 101.089844 L 149.195312 100.738281 C 150.433594 100.398438 151.488281 101.664062 150.949219 102.816406 C 150.226562 104.332031 148.8125 106.199219 146.007812 107.601562 C 145.273438 107.976562 144.648438 108.519531 144.1875 109.191406 L 141.640625 112.90625 L 142.023438 114.605469 C 142.191406 115.328125 142.871094 115.816406 143.609375 115.738281 C 150.328125 115.007812 156.8125 113.707031 163.007812 111.761719 L 162.414062 101.5 C 162.46875 101.542969 162.503906 101.601562 162.554688 101.65625 C 162.972656 102.066406 163.453125 102.421875 164.027344 102.675781 C 163.863281 102.074219 163.625 101.550781 163.382812 101.054688 C 163.136719 100.546875 162.886719 100.078125 162.632812 99.605469 C 162.371094 99.136719 162.117188 98.664062 161.832031 98.183594 C 161.628906 97.84375 161.414062 97.503906 161.160156 97.164062 C 160.691406 95.273438 160.804688 93.710938 161.1875 92.4375 C 161.273438 92.125 161.386719 91.828125 161.507812 91.546875 C 161.605469 91.332031 161.710938 91.136719 161.8125 90.945312 C 162.082031 90.441406 162.390625 90.011719 162.695312 89.65625 C 162.773438 89.570312 162.851562 89.5 162.9375 89.445312 L 158.058594 67.679688 C 157.902344 66.972656 157.238281 66.484375 156.507812 66.546875 C 148.683594 67.242188 141.074219 68.953125 133.695312 71.664062 C 133.015625 71.917969 132.625 72.640625 132.78125 73.355469 Z M 184.539062 176.800781 C 185.574219 176.035156 186.21875 174.820312 186.457031 173.558594 C 186.671875 172.285156 186.527344 170.976562 185.90625 169.851562 C 185.585938 171.097656 185.453125 172.214844 185.183594 173.296875 C 185.0625 173.835938 184.90625 174.359375 184.738281 174.898438 C 184.574219 175.441406 184.390625 175.980469 184.234375 176.59375 L 184.234375 176.636719 C 184.234375 176.679688 184.242188 176.714844 184.269531 176.757812 C 184.328125 176.84375 184.453125 176.863281 184.539062 176.800781 Z M 294.972656 316.421875 C 295.050781 316.652344 294.929688 316.910156 294.6875 316.988281 C 294.640625 317.003906 294.59375 317.011719 294.550781 317.011719 L 248.957031 317.15625 L 243.183594 317.164062 L 243.183594 317.210938 L 210.722656 317.210938 L 210.722656 317.203125 L 208.210938 317.203125 L 208.210938 317.210938 L 175.75 317.210938 L 175.75 317.148438 L 173.351562 317.140625 L 173.351562 317.210938 L 140.890625 317.210938 L 140.890625 317.070312 L 134.980469 317.054688 L 112.179688 316.902344 C 111.992188 316.894531 111.839844 316.738281 111.847656 316.554688 C 111.847656 316.476562 111.871094 316.398438 111.921875 316.335938 C 116.539062 310.691406 121.207031 305.082031 125.898438 299.496094 L 132.960938 291.144531 C 135.3125 288.351562 137.652344 285.558594 140.289062 283.007812 C 138.25 286.054688 135.898438 288.847656 133.5625 291.648438 L 126.578125 300.070312 C 122.054688 305.476562 117.503906 310.859375 112.921875 316.214844 L 126.453125 316.121094 L 126.453125 307.664062 C 126.324219 307.300781 126.238281 306.945312 126.238281 306.574219 C 126.238281 302.976562 132.542969 300.109375 140.890625 299.753906 L 140.890625 292.226562 C 140.761719 291.871094 140.675781 291.515625 140.675781 291.136719 C 140.675781 287.292969 147.902344 284.273438 157.121094 284.273438 C 166.34375 284.273438 173.570312 287.292969 173.570312 291.136719 C 173.570312 291.515625 173.484375 291.871094 173.351562 292.226562 L 173.351562 300.15625 C 174.117188 300.03125 174.921875 299.9375 175.75 299.867188 L 175.75 292.226562 C 175.617188 291.871094 175.53125 291.515625 175.53125 291.136719 C 175.53125 287.292969 182.75 284.273438 191.980469 284.273438 C 201.207031 284.273438 208.433594 287.292969 208.433594 291.136719 C 208.433594 291.515625 208.339844 291.871094 208.210938 292.226562 L 208.210938 300.363281 C 209.015625 300.210938 209.847656 300.078125 210.722656 299.96875 L 210.722656 292.226562 C 210.589844 291.871094 210.503906 291.515625 210.503906 291.136719 C 210.503906 287.292969 217.730469 284.273438 226.945312 284.273438 C 236.171875 284.273438 243.398438 287.292969 243.398438 291.136719 C 243.398438 291.515625 243.316406 291.871094 243.183594 292.226562 L 243.183594 301.050781 C 245.917969 300.210938 249.335938 299.707031 253.066406 299.707031 C 262.296875 299.707031 269.523438 302.730469 269.523438 306.574219 C 269.523438 306.945312 269.4375 307.300781 269.308594 307.664062 L 269.308594 316.027344 L 293.929688 316.105469 L 288.738281 299.898438 L 286.039062 291.5 C 285.136719 288.707031 284.253906 285.898438 283.636719 283.007812 C 284.839844 285.707031 285.785156 288.5 286.6875 291.289062 L 289.449219 299.667969 Z M 211.8125 291.136719 C 211.8125 293.820312 217.894531 296.691406 226.945312 296.691406 C 236.011719 296.691406 242.09375 293.820312 242.09375 291.136719 C 242.09375 288.453125 236.011719 285.582031 226.945312 285.582031 C 217.894531 285.582031 211.8125 288.453125 211.8125 291.136719 Z M 176.839844 291.136719 C 176.839844 293.820312 182.921875 296.691406 191.980469 296.691406 C 201.046875 296.691406 207.128906 293.820312 207.128906 291.136719 C 207.128906 288.453125 201.046875 285.582031 191.980469 285.582031 C 182.921875 285.582031 176.839844 288.453125 176.839844 291.136719 Z M 141.980469 291.136719 C 141.980469 293.820312 148.0625 296.691406 157.121094 296.691406 C 166.179688 296.691406 172.261719 293.820312 172.261719 291.136719 C 172.261719 288.453125 166.179688 285.582031 157.121094 285.582031 C 148.0625 285.582031 141.980469 288.453125 141.980469 291.136719 Z M 157.832031 306.574219 C 157.832031 303.882812 151.75 301.023438 142.683594 301.023438 C 142.074219 301.023438 141.480469 301.027344 140.890625 301.058594 C 132.832031 301.402344 127.542969 304.070312 127.542969 306.574219 C 127.542969 309.066406 132.832031 311.734375 140.890625 312.074219 C 141.480469 312.113281 142.074219 312.121094 142.683594 312.121094 C 151.75 312.121094 157.832031 309.25 157.832031 306.574219 Z M 194.4375 306.574219 C 194.4375 303.882812 188.355469 301.023438 179.296875 301.023438 C 178.042969 301.023438 176.863281 301.066406 175.75 301.175781 C 174.914062 301.246094 174.109375 301.347656 173.351562 301.460938 C 167.671875 302.375 164.148438 304.535156 164.148438 306.574219 C 164.148438 308.617188 167.671875 310.761719 173.351562 311.671875 C 174.109375 311.789062 174.914062 311.890625 175.75 311.957031 C 176.863281 312.066406 178.042969 312.121094 179.296875 312.121094 C 188.355469 312.121094 194.4375 309.25 194.4375 306.574219 Z M 230.484375 306.574219 C 230.484375 303.882812 224.402344 301.023438 215.34375 301.023438 C 213.699219 301.023438 212.152344 301.113281 210.722656 301.277344 C 209.839844 301.386719 209 301.523438 208.210938 301.679688 C 203.242188 302.683594 200.203125 304.671875 200.203125 306.574219 C 200.203125 308.460938 203.242188 310.449219 208.210938 311.457031 C 209 311.609375 209.839844 311.75 210.722656 311.859375 C 212.152344 312.019531 213.699219 312.121094 215.34375 312.121094 C 224.402344 312.121094 230.484375 309.25 230.484375 306.574219 Z M 268.21875 306.574219 C 268.21875 303.890625 262.132812 301.023438 253.066406 301.023438 C 249.125 301.023438 245.742188 301.554688 243.183594 302.40625 C 239.859375 303.488281 237.925781 305.058594 237.925781 306.574219 C 237.925781 308.082031 239.859375 309.660156 243.183594 310.738281 C 245.742188 311.578125 249.125 312.121094 253.066406 312.121094 C 262.132812 312.121094 268.21875 309.25 268.21875 306.574219 Z M 230.164062 250.167969 C 230.625 250.804688 231.515625 250.988281 232.203125 250.605469 L 234.992188 249.035156 L 239.589844 246.410156 C 239.734375 246.488281 239.871094 246.574219 240.011719 246.648438 C 240.734375 247.039062 241.480469 247.363281 242.242188 247.65625 C 243 247.945312 243.773438 248.199219 244.570312 248.394531 C 245.363281 248.59375 246.175781 248.75 247.03125 248.785156 C 246.367188 248.242188 245.660156 247.820312 244.933594 247.4375 C 244.210938 247.050781 243.464844 246.726562 242.707031 246.433594 C 242.046875 246.183594 241.371094 245.96875 240.683594 245.785156 L 244.476562 243.621094 C 245.003906 243.808594 245.53125 243.976562 246.070312 244.117188 C 246.828125 244.316406 247.597656 244.476562 248.382812 244.574219 C 249.164062 244.675781 249.957031 244.738281 250.785156 244.671875 C 250.09375 244.210938 249.371094 243.875 248.636719 243.585938 C 247.90625 243.285156 247.15625 243.050781 246.398438 242.851562 C 246.261719 242.816406 246.125 242.792969 245.988281 242.757812 L 262.085938 233.574219 C 262.523438 233.824219 262.972656 234.058594 263.445312 234.246094 C 264.023438 234.488281 264.625 234.6875 265.292969 234.777344 C 264.90625 234.222656 264.453125 233.777344 263.976562 233.375 C 263.5 232.964844 262.992188 232.609375 262.464844 232.285156 C 262.042969 232.03125 261.601562 231.804688 261.148438 231.601562 L 260.871094 231.382812 C 260.050781 230.746094 259.109375 230.269531 258.089844 230.085938 C 254.890625 229.507812 253.488281 227.335938 252.878906 225.542969 C 252.460938 224.347656 253.5 223.144531 254.746094 223.324219 L 272.765625 225.941406 C 269.617188 218.109375 265.515625 210.820312 260.453125 204.0625 C 259.980469 203.433594 259.109375 203.25 258.421875 203.636719 L 218.46875 226.074219 C 217.773438 226.464844 217.46875 227.328125 217.78125 228.070312 C 221.152344 236.074219 225.25 243.46875 230.164062 250.167969 Z M 112.179688 358.015625 L 112.179688 383.292969 L 294.550781 383.292969 L 294.550781 349.09375 L 112.179688 349.09375 Z M 112.179688 358.015625 " fill-opacity="1" fill-rule="nonzero"/></svg>