<svg xmlns="http://www.w3.org/2000/svg" xmlns:xlink="http://www.w3.org/1999/xlink" width="512" zoomAndPan="magnify" viewBox="0 0 384 383.999986" height="512" preserveAspectRatio="xMidYMid meet" version="1.0"><defs><clipPath id="a8c41d6eaa"><path d="M 136 3.359375 L 302 3.359375 L 302 156 L 136 156 Z M 136 3.359375 " clip-rule="nonzero"/></clipPath><clipPath id="20af0fdb5f"><path d="M 220.34375 89.335938 L 233.148438 89.335938 L 233.148438 96.289062 L 220.34375 96.289062 Z M 220.34375 89.335938 " clip-rule="nonzero"/></clipPath><clipPath id="6e7fbec544"><path d="M 220.414062 96.214844 C 223.238281 94.589844 225.957031 93.011719 228.519531 91.507812 C 230.257812 90.6875 231.808594 89.957031 233.121094 89.339844 C 229.027344 91.6875 224.769531 93.976562 220.414062 96.214844 " clip-rule="nonzero"/></clipPath><clipPath id="867dd1788f"><path d="M 141 3.359375 L 279 3.359375 L 279 136 L 141 136 Z M 141 3.359375 " clip-rule="nonzero"/></clipPath><clipPath id="38c237c426"><path d="M 142 3.359375 L 263 3.359375 L 263 135 L 142 135 Z M 142 3.359375 " clip-rule="nonzero"/></clipPath></defs><g clip-path="url(#a8c41d6eaa)"><path fill="#f7931e" d="M 136.414062 155.625 C 136.414062 155.625 142.1875 126.425781 150.488281 107.660156 C 158.789062 88.894531 183.332031 56.414062 196.324219 36.929688 C 209.316406 17.441406 219.570312 3.367188 219.570312 3.367188 L 301.652344 3.367188 C 301.652344 3.367188 283.421875 30.074219 279.210938 48.835938 C 275 67.601562 239.269531 87.453125 232.773438 91.0625 C 226.277344 94.671875 136.414062 155.625 136.414062 155.625 " fill-opacity="1" fill-rule="nonzero"/></g><path fill="#f7931e" d="M 208.957031 195.355469 C 208.957031 195.355469 229.605469 201.070312 259.121094 185.90625 C 268.453125 181.113281 257.917969 172.257812 244.507812 174.789062 C 238.871094 175.855469 208.957031 195.355469 208.957031 195.355469 " fill-opacity="1" fill-rule="nonzero"/><path fill="#aa9072" d="M 259.941406 73.230469 C 260.085938 73.113281 260.226562 73 260.371094 72.886719 C 260.292969 72.976562 260.21875 73.066406 260.140625 73.152344 C 260.074219 73.179688 260.007812 73.203125 259.941406 73.230469 " fill-opacity="1" fill-rule="nonzero"/><path fill="#a86b23" d="M 160.652344 124.949219 C 160.695312 124.863281 168.570312 109.449219 182.667969 102.25 C 196.804688 95.03125 258.695312 45.472656 258.695312 45.472656 C 258.695312 45.472656 259.78125 45.035156 261.15625 45.035156 C 264.128906 45.035156 268.457031 47.0625 266.035156 59.90625 C 264.898438 65.914062 262.757812 70.046875 260.371094 72.886719 C 260.226562 73 260.085938 73.117188 259.941406 73.230469 C 256.171875 74.703125 252.542969 76.648438 249.121094 79.121094 C 249.121094 79.121094 240.535156 84.460938 228.519531 91.507812 C 215.296875 97.757812 191.429688 109.175781 182.59375 114.277344 C 174.996094 117.828125 167.585938 121.359375 160.652344 124.949219 " fill-opacity="1" fill-rule="nonzero"/><path fill="#f7931e" d="M 285.707031 156.382812 C 285.707031 156.382812 296.257812 167.796875 282.460938 172.738281 C 261.640625 180.199219 233.855469 177.070312 233.855469 177.070312 C 233.855469 177.070312 257.195312 166.246094 269.949219 159.75 C 282.699219 153.253906 285.707031 156.382812 285.707031 156.382812 " fill-opacity="1" fill-rule="nonzero"/><path fill="#f7931e" d="M 302.429688 141.703125 C 302.429688 141.703125 304.351562 162.878906 275.722656 162.875 C 257.117188 162.875 255.992188 158.066406 255.992188 158.066406 C 255.992188 158.066406 283.902344 136.652344 302.429688 141.703125 " fill-opacity="1" fill-rule="nonzero"/><path fill="#e07e1e" d="M 231.441406 195.375 C 231.441406 195.375 241.617188 177.242188 250.367188 174.34375 C 250.367188 174.34375 256.8125 175.292969 259.769531 177.25 C 259.769531 177.25 285.015625 175.269531 288.585938 168.445312 C 288.585938 168.445312 283.507812 173.269531 268.863281 174.953125 C 258.757812 176.117188 254.515625 174.695312 253.886719 172.53125 C 253.257812 170.363281 276.933594 156.125 279.226562 156.09375 C 281.511719 156.066406 286.515625 156.378906 288.652344 160.980469 C 288.652344 160.980469 295.492188 158.945312 299.339844 153.054688 C 299.339844 153.054688 296.636719 156.832031 289.5625 159.179688 C 289.5625 159.179688 285.0625 155.628906 280.613281 155.175781 L 302.308594 144.808594 C 302.308594 144.808594 302.933594 143.300781 302.453125 142.757812 C 301.976562 142.214844 242.246094 164.25 225.644531 196.167969 C 225.644531 196.167969 228.84375 195.851562 231.441406 195.375 " fill-opacity="1" fill-rule="nonzero"/><path fill="#185901" d="M 249.121094 79.121094 C 193.179688 119.570312 76.28125 139.058594 133.222656 196.410156 C 163.457031 226.863281 213.804688 213.984375 233.855469 188.636719 C 266.03125 147.960938 326.421875 139.671875 339.808594 129.675781 C 373.636719 104.414062 293.726562 46.867188 249.121094 79.121094 " fill-opacity="1" fill-rule="nonzero"/><path fill="#ffab7e" d="M 373.40625 303.339844 L 303.75 298.316406 L 285.828125 349.570312 C 285.828125 349.570312 361.378906 371.703125 370.519531 373.148438 C 379.664062 374.59375 383.992188 309.558594 373.40625 303.339844 " fill-opacity="1" fill-rule="nonzero"/><path fill="#f7931e" d="M 53.480469 275.46875 C 53.480469 275.46875 49.304688 243.222656 59.820312 243.222656 C 78.445312 243.222656 65.847656 264.328125 92.25 280.546875 C 121.535156 298.539062 57.601562 292.058594 53.480469 275.46875 " fill-opacity="1" fill-rule="nonzero"/><path fill="#f7931e" d="M 88.238281 269.113281 C 88.238281 269.113281 77.40625 249.269531 85.101562 242.167969 C 92.714844 235.144531 102.652344 243.917969 106.53125 252.832031 C 110.40625 261.75 122.421875 269.113281 122.421875 269.113281 C 122.421875 269.113281 107.039062 282.65625 88.238281 269.113281 " fill-opacity="1" fill-rule="nonzero"/><path fill="#f7931e" d="M 145.074219 275.089844 C 145.074219 275.089844 185.320312 278.191406 203.542969 272.886719 C 230.609375 265.003906 240.773438 270.539062 265.105469 279.90625 C 269.394531 281.558594 280.34375 280.140625 285.828125 282.640625 C 303.507812 290.714844 318.90625 289.980469 328.566406 289.425781 C 332.085938 289.222656 335.1875 291.722656 335.738281 295.207031 C 338.847656 315.023438 346.566406 376.726562 321.4375 373.171875 C 302.015625 370.425781 288.75 363.085938 270.546875 356.417969 C 266.75 355.027344 257.429688 355.300781 253.707031 354.246094 C 246.308594 352.144531 238.886719 347.167969 231.816406 347.421875 C 204.128906 348.410156 97.335938 339.96875 83.988281 332.324219 C 70.640625 324.679688 145.074219 275.089844 145.074219 275.089844 " fill-opacity="1" fill-rule="nonzero"/><path fill="#f7931e" d="M 6.738281 311.414062 C 2.863281 309.40625 1.734375 304.351562 4.445312 300.933594 C 7.019531 297.6875 15.089844 293.300781 27.179688 294.855469 C 53.132812 298.195312 60.585938 302.894531 116.621094 288.078125 C 172.652344 273.265625 215.230469 344.929688 195.324219 346.351562 C 154.8125 349.246094 73.617188 344.519531 40.316406 329.121094 C 27.816406 323.339844 13.292969 314.816406 6.738281 311.414062 " fill-opacity="1" fill-rule="nonzero"/><path fill="#f9a94b" d="M 86.730469 316.609375 C 86.730469 316.609375 101.523438 330.808594 109.464844 333.691406 C 117.40625 336.574219 139.28125 334.667969 139.28125 334.667969 C 139.28125 334.667969 114.480469 313.964844 106.199219 313.003906 C 97.917969 312.039062 86.730469 316.609375 86.730469 316.609375 " fill-opacity="1" fill-rule="nonzero"/><path fill="#f9a94b" d="M 52.769531 319.933594 C 52.769531 319.933594 58.660156 326.234375 68.425781 329.601562 C 78.1875 332.972656 94.613281 334.050781 94.613281 334.050781 C 94.613281 334.050781 86.128906 319.257812 80.007812 317.484375 C 76.273438 316.402344 52.769531 319.933594 52.769531 319.933594 " fill-opacity="1" fill-rule="nonzero"/><path fill="#f9a94b" d="M 187.832031 275.386719 C 188.597656 275.085938 194.140625 275.539062 203.070312 273.015625 C 218.59375 268.621094 235.363281 267.09375 250.792969 274.421875 C 255.007812 276.421875 261.007812 281.671875 267.960938 283.5625 C 272.46875 284.792969 277.355469 281.574219 282.339844 282.640625 C 285.03125 283.21875 292.035156 286.855469 294.488281 288.101562 C 306.097656 293.996094 329.375 294.855469 329.375 294.855469 C 329.375 294.855469 338.699219 335.617188 332.714844 339.707031 C 326.730469 343.796875 293.285156 310.113281 287.03125 300.730469 C 280.773438 291.347656 291.363281 329.207031 298.820312 335.746094 C 306.28125 342.28125 266.300781 340.46875 259.324219 327.828125 C 252.347656 315.191406 264.261719 305.542969 248.820312 292.550781 C 239.667969 284.851562 215.574219 279.558594 186.941406 282.085938 C 176.835938 282.976562 187.832031 275.386719 187.832031 275.386719 " fill-opacity="1" fill-rule="nonzero"/><path fill="#a86b23" d="M 195.414062 325.847656 C 191.597656 319.109375 185.6875 311.648438 178.171875 305.027344 C 190.214844 303.34375 197.90625 302.222656 197.90625 302.222656 C 197.90625 302.222656 199.976562 294.65625 201.121094 285.242188 C 207.195312 285.324219 211.992188 285.609375 215.089844 286.148438 C 270.46875 295.765625 228.238281 314.691406 195.414062 325.847656 " fill-opacity="1" fill-rule="nonzero"/><path fill="#a86b23" d="M 166.46875 334.667969 C 166.46875 334.667969 153.65625 334.136719 136.539062 332.429688 C 130.828125 327.828125 117.546875 317.472656 109.6875 314.074219 C 134.925781 310.988281 160.984375 307.433594 178.171875 305.027344 C 185.6875 311.648438 191.597656 319.109375 195.414062 325.847656 C 179.890625 331.128906 166.46875 334.667969 166.46875 334.667969 M 99.0625 327.234375 C 98.15625 327.066406 97.253906 326.894531 96.355469 326.714844 C 94 326.25 91.53125 325.886719 88.988281 325.609375 C 86.210938 321.949219 82.855469 318.308594 80.007812 317.484375 C 82.25 317.246094 84.542969 317 86.867188 316.742188 C 87.792969 317.621094 93.25 322.757812 99.0625 327.234375 M 44.136719 325.273438 C 24.066406 325.273438 21.113281 305.71875 20.867188 301.03125 C 20.632812 296.5625 21.808594 296.335938 21.921875 296.324219 C 21.929688 296.78125 21.960938 297.214844 22.023438 297.613281 C 23.175781 305.070312 28.304688 317.886719 38.417969 320.152344 C 38.8125 320.242188 39.1875 320.285156 39.546875 320.285156 C 39.71875 320.285156 39.882812 320.273438 40.046875 320.257812 C 40.628906 320.335938 41.238281 320.378906 41.875 320.378906 C 41.894531 320.378906 41.910156 320.378906 41.929688 320.378906 C 44.851562 320.367188 48.519531 320.210938 52.769531 319.933594 C 52.777344 319.941406 54.988281 322.304688 58.945312 324.910156 C 53.375 325.058594 48.304688 325.253906 44.261719 325.273438 C 44.21875 325.273438 44.179688 325.273438 44.136719 325.273438 " fill-opacity="1" fill-rule="nonzero"/><path fill="#a87233" d="M 136.539062 332.429688 C 125.117188 331.285156 111.785156 329.621094 99.0625 327.234375 C 93.25 322.757812 87.792969 317.621094 86.867188 316.742188 C 94.207031 315.929688 101.910156 315.023438 109.6875 314.074219 C 117.546875 317.472656 130.828125 327.828125 136.539062 332.429688 " fill-opacity="1" fill-rule="nonzero"/><path fill="#a87233" d="M 88.988281 325.605469 C 82.945312 324.9375 76.492188 324.730469 70.21875 324.730469 C 66.34375 324.730469 62.539062 324.8125 58.945312 324.910156 C 54.988281 322.304688 52.777344 319.941406 52.769531 319.933594 C 60.304688 319.445312 69.675781 318.578125 80.007812 317.484375 C 82.855469 318.308594 86.210938 321.949219 88.988281 325.605469 " fill-opacity="1" fill-rule="nonzero"/><path fill="#d9e021" d="M 197.90625 302.222656 C 197.90625 302.222656 210.800781 255.167969 190.003906 249.769531 C 124.507812 232.769531 29.738281 277.355469 29.738281 277.355469 C 29.738281 277.355469 21.394531 320.453125 41.929688 320.378906 C 74.269531 320.261719 197.90625 302.222656 197.90625 302.222656 " fill-opacity="1" fill-rule="nonzero"/><path fill="#e1e64d" d="M 30.195312 271.785156 C 30.195312 271.785156 20.867188 290.160156 22.019531 297.613281 C 23.175781 305.070312 28.300781 317.886719 38.417969 320.152344 C 48.53125 322.417969 46.730469 294.507812 46.730469 294.507812 C 46.730469 294.507812 30.488281 284.070312 30.195312 271.785156 " fill-opacity="1" fill-rule="nonzero"/><path fill="#18482c" d="M 31.769531 267.277344 C 31.769531 267.277344 106.492188 244.390625 182.476562 243.675781 C 197.363281 243.535156 207.171875 267.988281 197.851562 272.835938 C 173.507812 285.503906 93.308594 296.113281 56.144531 296.382812 C 38.097656 296.511719 31.199219 283.695312 30.1875 274.777344 C 29.671875 270.234375 31.769531 267.277344 31.769531 267.277344 " fill-opacity="1" fill-rule="nonzero"/><path fill="#1f5e39" d="M 31.472656 271.113281 C 30.65625 268.125 32.371094 265.035156 35.335938 264.152344 C 53.199219 258.824219 116.910156 241.230469 181.359375 240.625 C 196.246094 240.480469 204.679688 264.792969 197.351562 267.566406 C 171.6875 277.277344 94.734375 290.382812 60.082031 292.542969 C 40.445312 293.765625 33.707031 279.316406 31.472656 271.113281 " fill-opacity="1" fill-rule="nonzero"/><path fill="#939816" d="M 102.148438 314.980469 C 102.148438 314.980469 88.535156 303.617188 88.171875 296.871094 C 88.128906 296.046875 88.183594 295.285156 88.316406 294.574219 C 92.480469 294.199219 96.777344 293.769531 101.148438 293.289062 L 123.300781 312.011719 L 102.148438 314.980469 " fill-opacity="1" fill-rule="nonzero"/><path fill="#25411c" d="M 88.316406 294.574219 C 88.753906 292.183594 90.050781 290.441406 91.300781 289.257812 C 92.742188 289.066406 94.203125 288.871094 95.675781 288.664062 L 101.148438 293.289062 C 96.777344 293.769531 92.480469 294.199219 88.316406 294.574219 " fill-opacity="1" fill-rule="nonzero"/><path fill="#294e24" d="M 91.300781 289.261719 C 92.71875 287.925781 94.078125 287.316406 94.078125 287.316406 L 95.675781 288.664062 C 94.203125 288.871094 92.742188 289.066406 91.300781 289.261719 " fill-opacity="1" fill-rule="nonzero"/><path fill="#f7931e" d="M 96.804688 285.421875 C 96.804688 285.421875 102.320312 280.878906 122.675781 283.410156 C 150.550781 286.878906 144.964844 303.585938 185.835938 292.378906 C 226.707031 281.175781 250.792969 299.476562 250.792969 299.476562 C 250.792969 299.476562 201.972656 335.382812 200.007812 335.609375 C 143.449219 342.050781 68.496094 301.589844 96.804688 285.421875 " fill-opacity="1" fill-rule="nonzero"/><path fill="#c1c123" d="M 72.214844 308.222656 C 72.214844 310.316406 70.515625 312.011719 68.425781 312.011719 C 66.332031 312.011719 64.632812 310.316406 64.632812 308.222656 C 64.632812 306.128906 66.332031 304.433594 68.425781 304.433594 C 70.515625 304.433594 72.214844 306.128906 72.214844 308.222656 " fill-opacity="1" fill-rule="nonzero"/><path fill="#c1c123" d="M 84.101562 304.09375 C 84.101562 305.476562 82.984375 306.59375 81.601562 306.59375 C 80.21875 306.59375 79.101562 305.476562 79.101562 304.09375 C 79.101562 302.714844 80.21875 301.59375 81.601562 301.59375 C 82.984375 301.59375 84.101562 302.714844 84.101562 304.09375 " fill-opacity="1" fill-rule="nonzero"/><path fill="#c1c123" d="M 194.855469 281.5 C 194.855469 282.882812 193.734375 284.003906 192.351562 284.003906 C 190.972656 284.003906 189.851562 282.882812 189.851562 281.5 C 189.851562 280.121094 190.972656 279 192.351562 279 C 193.734375 279 194.855469 280.121094 194.855469 281.5 " fill-opacity="1" fill-rule="nonzero"/><path fill="#c1c123" d="M 182.964844 292.722656 C 182.964844 295.015625 181.109375 296.875 178.816406 296.875 C 176.527344 296.875 174.667969 295.015625 174.667969 292.722656 C 174.667969 290.433594 176.527344 288.574219 178.816406 288.574219 C 181.109375 288.574219 182.964844 290.433594 182.964844 292.722656 " fill-opacity="1" fill-rule="nonzero"/><path fill="#c1c123" d="M 166.40625 288.941406 C 166.40625 290.53125 165.121094 291.820312 163.53125 291.820312 C 161.941406 291.820312 160.652344 290.53125 160.652344 288.941406 C 160.652344 287.351562 161.941406 286.0625 163.53125 286.0625 C 165.121094 286.0625 166.40625 287.351562 166.40625 288.941406 " fill-opacity="1" fill-rule="nonzero"/><path fill="#c1c123" d="M 57.21875 304.6875 C 57.21875 305.914062 56.222656 306.910156 54.996094 306.910156 C 53.765625 306.910156 52.769531 305.914062 52.769531 304.6875 C 52.769531 303.457031 53.765625 302.460938 54.996094 302.460938 C 56.222656 302.460938 57.21875 303.457031 57.21875 304.6875 " fill-opacity="1" fill-rule="nonzero"/><path fill="#f9a94b" d="M 133.285156 316.609375 C 133.285156 316.609375 83.753906 292.140625 96.804688 285.421875 C 107.949219 279.683594 132.804688 283.648438 139.695312 288.394531 C 147.628906 293.859375 153.257812 325.03125 133.285156 316.609375 " fill-opacity="1" fill-rule="nonzero"/><path fill="#f9a94b" d="M 155.496094 295.4375 C 155.496094 295.4375 162.878906 319.257812 188.503906 324.789062 C 221.820312 331.984375 245.167969 324.308594 250.21875 314.203125 C 255.269531 304.101562 225.800781 287.628906 208.589844 288.847656 C 185.136719 290.507812 185.136719 293.964844 167.429688 295.960938 C 165.164062 296.214844 182.609375 301.210938 192.472656 315.769531 C 192.472656 315.769531 165.6875 293.59375 155.496094 295.4375 " fill-opacity="1" fill-rule="nonzero"/><path fill="#f9a94b" d="M 57.9375 256.394531 C 57.578125 256.355469 55.320312 244.757812 61.273438 244.304688 C 67.230469 243.855469 70.117188 253.328125 70.117188 253.328125 C 70.117188 253.328125 61.90625 256.84375 57.9375 256.394531 " fill-opacity="1" fill-rule="nonzero"/><path fill="#f9a94b" d="M 84.101562 250.359375 C 84.101562 250.359375 84.101562 242.5 89.15625 240.425781 C 94.207031 238.351562 102.382812 247.363281 102.382812 247.363281 C 102.382812 247.363281 90.960938 249.921875 84.101562 250.359375 " fill-opacity="1" fill-rule="nonzero"/><path fill="#f9a94b" d="M 19.84375 313 C 19.84375 313 -0.00390625 306.183594 4.445312 300.933594 C 8.894531 295.679688 17.859375 294.75 19.277344 294.65625 C 19.277344 294.65625 15.753906 306.265625 19.84375 313 " fill-opacity="1" fill-rule="nonzero"/><path fill="#faba6f" d="M 101.628906 286.476562 C 101.628906 286.476562 111.058594 282.957031 124.867188 284.3125 C 138.671875 285.664062 141.46875 295.859375 141.828125 298.925781 C 142.1875 301.996094 90.210938 291.4375 101.628906 286.476562 " fill-opacity="1" fill-rule="nonzero"/><path fill="#f9a94b" d="M 146.957031 292.230469 C 146.957031 292.230469 150.128906 300.972656 151.089844 314.085938 C 151.601562 321.046875 168.414062 328.222656 174.910156 327.828125 C 181.40625 327.4375 167.167969 316.230469 162.160156 310.039062 C 157.828125 304.683594 153.703125 294.992188 153.257812 294.855469 C 152.8125 294.71875 150.910156 292.230469 146.957031 292.230469 " fill-opacity="1" fill-rule="nonzero"/><path fill="#faba6f" d="M 176.265625 296.941406 C 176.265625 296.941406 205.003906 305.703125 224.472656 303.617188 C 243.945312 301.535156 229.320312 292.132812 217.257812 290.628906 C 205.191406 289.121094 181.292969 296.941406 176.265625 296.941406 " fill-opacity="1" fill-rule="nonzero"/><path fill="#faba6f" d="M 279.691406 285.15625 C 279.691406 285.15625 286.007812 282.6875 289.976562 287.558594 C 293.945312 292.433594 316.863281 324.898438 326.609375 327.613281 C 336.355469 330.324219 329.855469 306.070312 329.855469 306.070312 C 329.855469 306.070312 340.144531 336.488281 330.9375 334.667969 C 321.738281 332.851562 288.171875 294.417969 283.300781 293.335938 C 278.425781 292.25 281.136719 321.121094 283.839844 326.355469 C 286.550781 331.585938 260.746094 297.90625 279.691406 285.15625 " fill-opacity="1" fill-rule="nonzero"/><path fill="#faba6f" d="M 196.503906 275.832031 C 196.503906 275.832031 216.539062 272.574219 221.042969 270.957031 C 225.554688 269.339844 241.617188 269.515625 255.511719 281.0625 C 255.511719 281.0625 255.871094 284.492188 243.242188 281.0625 C 230.609375 277.636719 230.058594 273.8125 196.503906 275.832031 " fill-opacity="1" fill-rule="nonzero"/><path fill="#e07e1e" d="M 2.957031 305.398438 C 2.957031 305.398438 2.398438 309.804688 5.527344 312.484375 C 8.65625 315.167969 44.238281 332.785156 56.113281 337.363281 C 73.4375 344.039062 128.472656 349.8125 137.375 350.773438 C 146.277344 351.734375 207.152344 349.8125 215.8125 350.773438 C 224.476562 351.734375 239.871094 351.976562 246.609375 356.066406 C 253.347656 360.15625 262.25 359.046875 265.859375 359.363281 C 269.464844 359.675781 305.796875 374.351562 315.421875 377.480469 C 325.046875 380.605469 333.613281 369.1875 335.367188 363.832031 C 335.367188 363.832031 327.933594 373.871094 312.777344 368.335938 C 297.617188 362.804688 271.152344 347.164062 267.300781 349.089844 C 263.453125 351.015625 258.640625 355.105469 253.585938 351.253906 C 248.535156 347.40625 240.59375 340.097656 237.949219 341.707031 C 235.300781 343.316406 218.21875 343.074219 189.828125 343.796875 C 161.4375 344.519531 78.667969 341.707031 52.914062 332.007812 C 41.167969 327.585938 4.480469 314.15625 2.957031 305.398438 " fill-opacity="1" fill-rule="nonzero"/><path fill="#228310" d="M 341.886719 103.933594 C 341.886719 103.933594 352.8125 117.8125 334.71875 124.949219 C 316.625 132.082031 272.6875 140.601562 251.902344 161.792969 C 231.117188 182.984375 213.847656 203.757812 190.085938 208.167969 C 172.582031 211.421875 161.601562 207.625 157.039062 205.402344 C 155.65625 204.730469 154.96875 203.152344 155.425781 201.683594 C 157.265625 195.753906 160.363281 179.992188 144.835938 171.855469 C 133.957031 166.152344 121.375 175.386719 121.375 175.386719 C 121.375 175.386719 114.5625 166.515625 129.917969 147.597656 C 138.21875 137.375 171.28125 122.179688 203.71875 106.21875 C 230.378906 93.101562 255.179688 79.417969 266.03125 74.839844 C 286.1875 66.332031 318.308594 74.339844 341.886719 103.933594 " fill-opacity="1" fill-rule="nonzero"/><path fill="#2fb202" d="M 127.933594 157.988281 C 127.933594 157.988281 168.878906 185.378906 205.113281 177.722656 C 231.496094 172.148438 230.492188 141.222656 255.511719 133.042969 C 280.535156 124.863281 342.59375 114.757812 341.652344 105.617188 C 340.71875 96.472656 308.957031 73.617188 274.457031 77.949219 C 239.957031 82.28125 211.761719 107.476562 190.730469 116.324219 C 168.660156 125.605469 117.136719 148.519531 127.933594 157.988281 " fill-opacity="1" fill-rule="nonzero"/><g clip-path="url(#20af0fdb5f)"><g clip-path="url(#6e7fbec544)"><path fill="#8a7710" d="M 220.414062 89.339844 L 233.121094 89.339844 L 233.121094 96.214844 L 220.414062 96.214844 " fill-opacity="1" fill-rule="nonzero"/></g></g><path fill="#616212" d="M 182.59375 114.277344 C 191.429688 109.175781 215.292969 97.757812 228.519531 91.507812 C 225.957031 93.011719 223.238281 94.589844 220.414062 96.214844 C 208.171875 102.507812 195.128906 108.417969 182.59375 114.277344 " fill-opacity="1" fill-rule="nonzero"/><path fill="#185901" d="M 182.59375 114.277344 C 195.128906 108.417969 208.171875 102.507812 220.414062 96.214844 C 224.769531 93.976562 229.027344 91.6875 233.121094 89.339844 C 235.949219 88.007812 237.652344 87.214844 237.652344 87.214844 C 236.886719 87.796875 236.097656 88.804688 235.371094 90.136719 C 225.742188 95.121094 214.894531 100.71875 203.722656 106.21875 C 198.402344 108.835938 193.066406 111.433594 187.824219 113.992188 C 187.175781 113.894531 186.550781 113.859375 185.972656 113.859375 C 184.015625 113.859375 182.59375 114.277344 182.59375 114.277344 " fill-opacity="1" fill-rule="nonzero"/><path fill="#1d6e09" d="M 192.195312 115.683594 C 190.785156 114.6875 189.25 114.199219 187.824219 113.988281 C 193.066406 111.433594 198.402344 108.835938 203.722656 106.21875 C 214.894531 100.722656 225.742188 95.125 235.371094 90.136719 C 235.136719 90.570312 234.910156 91.035156 234.6875 91.53125 C 218.382812 100.082031 204.167969 110.316406 192.195312 115.683594 " fill-opacity="1" fill-rule="nonzero"/><path fill="#248602" d="M 217.363281 137.550781 C 207.230469 137.550781 198.292969 124.230469 194.878906 118.605469 C 194.105469 117.332031 193.183594 116.382812 192.199219 115.683594 C 204.167969 110.316406 218.382812 100.082031 234.6875 91.53125 C 233.191406 94.914062 232.152344 99.6875 232.511719 104.652344 C 233.09375 112.59375 236.023438 128.472656 223.511719 135.8125 C 221.4375 137.027344 219.378906 137.550781 217.363281 137.550781 " fill-opacity="1" fill-rule="nonzero"/><path fill="#7cc65e" d="M 191.847656 174.394531 C 190.53125 174.394531 188.875 174.269531 186.960938 174.03125 C 172.425781 159.675781 151.8125 150.929688 140.09375 150.929688 C 138.773438 150.929688 137.566406 151.042969 136.496094 151.269531 C 134.699219 151.648438 133.105469 152.128906 131.6875 152.691406 C 131.335938 151.125 132.140625 149.625 134.429688 148.257812 C 134.429688 148.257812 156.382812 131.117188 172.503906 128.710938 C 173.472656 128.566406 174.460938 128.5 175.464844 128.5 C 191.175781 128.5 210.546875 145.394531 211 154.214844 C 211.484375 163.597656 211.019531 172.738281 193.15625 174.34375 C 192.765625 174.378906 192.328125 174.394531 191.847656 174.394531 " fill-opacity="1" fill-rule="nonzero"/><path fill="#185901" d="M 340.5625 124.273438 C 339.625 124.273438 338.496094 124.15625 337.144531 123.867188 C 351.785156 116.503906 341.886719 103.929688 341.886719 103.929688 C 341.09375 102.933594 340.289062 101.957031 339.472656 101.007812 C 338.6875 99.960938 337.707031 98.855469 336.546875 97.714844 C 332.226562 91.535156 322.464844 83.378906 309.710938 77.9375 C 300.527344 73.667969 291.335938 71.632812 282.929688 71.632812 C 282.46875 71.632812 282.011719 71.636719 281.554688 71.652344 C 282.664062 71.40625 283.878906 71.292969 285.191406 71.292969 C 291.269531 71.292969 299.445312 73.707031 309.105469 76.625 C 326.429688 81.859375 354.503906 110.546875 345.15625 121.914062 C 345.15625 121.914062 344.746094 124.273438 340.5625 124.273438 " fill-opacity="1" fill-rule="nonzero"/><path fill="#1c6907" d="M 337.144531 123.867188 C 333.433594 123.074219 328.019531 120.992188 320.117188 116.53125 C 332.886719 112.859375 342.019531 109.164062 341.65625 105.617188 C 341.519531 104.316406 340.765625 102.742188 339.46875 101.011719 C 340.285156 101.960938 341.089844 102.933594 341.886719 103.933594 C 341.886719 103.933594 351.78125 116.503906 337.144531 123.867188 M 309.710938 77.941406 C 301.605469 74.480469 292.289062 72.117188 282.398438 72.054688 C 282.234375 72.054688 282.074219 72.054688 281.910156 72.054688 C 281.296875 72.054688 280.683594 72.0625 280.085938 72.074219 C 280.554688 71.90625 281.042969 71.765625 281.554688 71.652344 C 282.011719 71.640625 282.46875 71.632812 282.925781 71.632812 C 291.332031 71.632812 300.523438 73.671875 309.710938 77.941406 " fill-opacity="1" fill-rule="nonzero"/><path fill="#217c01" d="M 320.117188 116.53125 C 316.488281 114.480469 312.335938 111.929688 307.585938 108.773438 C 324.550781 108.183594 337.980469 106.496094 338.761719 104.65625 C 339.410156 103.113281 338.589844 100.636719 336.546875 97.714844 C 337.707031 98.851562 338.6875 99.960938 339.472656 101.011719 C 340.765625 102.742188 341.523438 104.316406 341.65625 105.617188 C 342.019531 109.164062 332.890625 112.859375 320.117188 116.53125 " fill-opacity="1" fill-rule="nonzero"/><path fill="#80ae6b" d="M 239.464844 88.019531 C 243.25 84.085938 254.246094 74.601562 273.859375 72.480469 C 271.097656 73.015625 268.476562 73.808594 266.03125 74.835938 C 260.386719 77.21875 250.964844 82.070312 239.464844 88.019531 " fill-opacity="1" fill-rule="nonzero"/><path fill="#83bb70" d="M 237.71875 89.980469 C 237.792969 89.898438 237.867188 89.816406 237.949219 89.738281 C 237.949219 89.738281 238.445312 89.082031 239.464844 88.019531 C 250.960938 82.070312 260.386719 77.222656 266.03125 74.839844 C 268.476562 73.804688 271.097656 73.015625 273.859375 72.480469 C 275.84375 72.265625 277.921875 72.125 280.085938 72.078125 C 277.84375 72.894531 276.125 74.402344 275 76.804688 C 274.828125 77.175781 274.695312 77.550781 274.605469 77.929688 C 274.558594 77.9375 274.507812 77.941406 274.457031 77.949219 C 261.273438 79.605469 249.011719 84.304688 237.71875 89.980469 " fill-opacity="1" fill-rule="nonzero"/><path fill="#87c96c" d="M 294.664062 108.996094 C 261.46875 108.996094 223.894531 104.566406 237.714844 89.976562 C 249.011719 84.304688 261.273438 79.605469 274.453125 77.949219 C 274.507812 77.945312 274.554688 77.9375 274.605469 77.929688 C 272.761719 85.726562 288.144531 95.539062 304.59375 106.757812 C 305.617188 107.457031 306.609375 108.128906 307.585938 108.773438 C 303.445312 108.917969 299.089844 108.996094 294.664062 108.996094 " fill-opacity="1" fill-rule="nonzero"/><path fill="#80ae6b" d="M 336.546875 97.714844 C 336.453125 97.625 336.359375 97.53125 336.265625 97.441406 C 327.9375 88.613281 318.828125 82.175781 309.710938 77.9375 C 322.464844 83.378906 332.230469 91.535156 336.546875 97.714844 " fill-opacity="1" fill-rule="nonzero"/><path fill="#81b36d" d="M 336.261719 97.441406 C 326.839844 88.375 306.195312 77.410156 283.1875 77.410156 C 280.355469 77.410156 277.496094 77.574219 274.605469 77.929688 C 274.695312 77.550781 274.828125 77.175781 275 76.808594 C 276.125 74.402344 277.847656 72.894531 280.085938 72.074219 C 280.6875 72.0625 281.296875 72.054688 281.910156 72.054688 C 282.074219 72.054688 282.234375 72.054688 282.398438 72.054688 C 292.289062 72.117188 301.605469 74.480469 309.710938 77.941406 C 318.832031 82.175781 327.9375 88.609375 336.261719 97.441406 " fill-opacity="1" fill-rule="nonzero"/><path fill="#83b96b" d="M 307.585938 108.773438 C 306.613281 108.125 305.617188 107.457031 304.59375 106.757812 C 288.148438 95.539062 272.761719 85.726562 274.605469 77.929688 C 277.492188 77.574219 280.355469 77.40625 283.1875 77.40625 C 306.199219 77.40625 326.839844 88.375 336.261719 97.441406 C 336.359375 97.53125 336.453125 97.625 336.546875 97.714844 C 338.585938 100.636719 339.410156 103.113281 338.761719 104.652344 C 337.980469 106.496094 324.550781 108.179688 307.585938 108.773438 " fill-opacity="1" fill-rule="nonzero"/><path fill="#f7931e" d="M 226.007812 43.066406 C 226.007812 43.066406 196.503906 67.847656 193.4375 90.21875 C 190.367188 112.59375 211.121094 147.71875 226.007812 128.710938 C 234.394531 118.007812 216.113281 95.832031 230.945312 90.082031 C 250.929688 82.332031 261.285156 72.417969 265.617188 49.320312 C 269.949219 26.222656 239.332031 30.074219 226.007812 43.066406 " fill-opacity="1" fill-rule="nonzero"/><path fill="#e07e1e" d="M 290.878906 312.011719 C 290.878906 312.011719 304.234375 331.007812 317.226562 340.050781 C 330.21875 349.089844 341.25 348.710938 339.03125 325.664062 C 339.03125 325.664062 342.320312 351.511719 335.367188 363.832031 C 335.367188 363.832031 336.25 364.167969 331.066406 367.457031 C 331.066406 367.457031 334.347656 362.621094 334.71875 357.929688 C 335.089844 353.238281 333.46875 351.976562 333.46875 351.976562 C 333.46875 351.976562 307.664062 348.011719 290.878906 312.011719 " fill-opacity="1" fill-rule="nonzero"/><path fill="#ffc792" d="M 339.328125 300.882812 C 339.328125 300.882812 346.804688 331.765625 347.351562 345.722656 C 347.902344 359.675781 376.515625 362.917969 376.515625 362.917969 C 376.515625 362.917969 378.632812 353.40625 379.601562 341.707031 C 380.835938 326.8125 378.867188 306.191406 373.40625 303.339844 L 339.328125 300.882812 " fill-opacity="1" fill-rule="nonzero"/><g clip-path="url(#867dd1788f)"><path fill="#f9a94b" d="M 154.59375 127.085938 C 154.59375 127.085938 162.640625 107.058594 176.835938 98.398438 C 191.03125 89.738281 239.148438 29.832031 254.789062 24.058594 C 270.429688 18.285156 278.609375 3.367188 278.609375 3.367188 L 219.570312 3.367188 C 219.570312 3.367188 187.324219 49.441406 175.804688 66.519531 C 164.28125 83.597656 146.757812 102.25 141.785156 135.808594 L 154.59375 127.085938 " fill-opacity="1" fill-rule="nonzero"/></g><path fill="#f9a94b" d="M 213.699219 127.085938 C 213.699219 127.085938 219.78125 123.539062 217.4375 106.578125 C 215.089844 89.617188 201.375 90.699219 201.375 90.699219 C 201.375 90.699219 215.453125 90.339844 222.671875 88.171875 C 229.886719 86.007812 256.476562 65.796875 262.667969 48.476562 C 268.863281 31.152344 260.328125 23.851562 266.742188 17.027344 C 266.742188 17.027344 226.640625 25.019531 211.84375 41.621094 C 197.046875 58.21875 192.875 86.230469 193.171875 93.195312 C 193.464844 100.164062 195.703125 127.023438 213.699219 127.085938 " fill-opacity="1" fill-rule="nonzero"/><g clip-path="url(#38c237c426)"><path fill="#faba6f" d="M 167.089844 90.699219 C 167.089844 90.699219 182.246094 84.710938 195.242188 65.4375 C 208.234375 46.167969 217.4375 36.542969 217.4375 36.542969 C 217.4375 36.542969 200.914062 62.117188 198.257812 76.230469 C 195.601562 90.339844 195.789062 108.648438 202.457031 117.539062 C 209.128906 126.425781 215.289062 103.691406 209.234375 96.113281 C 203.179688 88.535156 200.753906 84.761719 213.699219 83.398438 C 226.640625 82.039062 239.992188 68.300781 247.933594 45.035156 C 255.875 21.773438 247.570312 19.605469 254.429688 12.75 C 261.285156 5.894531 262.671875 3.367188 262.671875 3.367188 L 213.699219 3.367188 C 213.699219 3.367188 166.578125 79.691406 159.0625 90.527344 C 144.578125 111.398438 142.050781 134.15625 142.050781 134.15625 C 142.050781 134.15625 150.488281 127.511719 157.347656 115.238281 C 164.203125 102.96875 171.242188 96.957031 167.269531 95.75 C 163.300781 94.550781 165.144531 91.613281 167.089844 90.699219 " fill-opacity="1" fill-rule="nonzero"/></g><path fill="#f9a94b" d="M 255.992188 173.21875 C 255.992188 173.21875 263.089844 165.398438 271.632812 161.070312 C 280.175781 156.738281 286.652344 157.164062 288.105469 161.160156 C 289.5625 165.160156 288.019531 169.492188 279.226562 171.054688 C 270.429688 172.621094 255.992188 173.21875 255.992188 173.21875 " fill-opacity="1" fill-rule="nonzero"/><path fill="#0b4c27" d="M 90.230469 278.953125 C 78.523438 278.953125 70.042969 276.628906 69.546875 272.726562 C 69.394531 271.550781 69.984375 270.332031 71.191406 269.121094 C 71.191406 269.121094 74.75 265.066406 81.496094 260.3125 C 83.351562 259.003906 81.195312 254.449219 86.433594 251.503906 C 86.4375 251.503906 86.433594 251.503906 86.4375 251.503906 L 90.046875 250.835938 C 87.121094 251.941406 84.582031 253.742188 84.355469 257.667969 C 84.054688 262.742188 73.316406 264.898438 73.074219 270.226562 C 73.074219 270.226562 72.039062 277.40625 86.816406 277.40625 C 87.136719 277.40625 87.464844 277.402344 87.800781 277.394531 C 100.78125 277.125 138.1875 269.636719 132.671875 261.609375 C 133.890625 262.421875 134.617188 263.367188 134.753906 264.429688 C 135.421875 269.679688 121.367188 275.792969 103.359375 278.085938 C 98.726562 278.675781 94.285156 278.953125 90.230469 278.953125 " fill-opacity="1" fill-rule="nonzero"/><path fill="#0b4c27" d="M 120.113281 258.351562 C 116.882812 258.273438 114.5 257.867188 114.960938 255.082031 C 115.773438 250.132812 109.644531 253.128906 108.0625 247.519531 L 109.144531 247.320312 C 109.140625 247.328125 108.269531 249.546875 111.632812 250.691406 C 115 251.832031 116.503906 252.976562 116.082031 254.660156 C 115.765625 255.933594 115.273438 257.207031 120.113281 258.351562 " fill-opacity="1" fill-rule="nonzero"/><path fill="#f9a94b" d="M 283.703125 155.476562 C 283.703125 155.476562 289.558594 158.59375 294.546875 155.476562 C 299.53125 152.359375 301.652344 145.726562 301.652344 145.726562 C 301.652344 145.726562 286.09375 152.777344 283.703125 155.476562 " fill-opacity="1" fill-rule="nonzero"/><path fill="#f9a94b" d="M 235.058594 191.265625 C 235.058594 191.265625 255.390625 188.015625 259 182.84375 C 262.609375 177.671875 252.503906 174.425781 250.097656 175.023438 C 247.691406 175.625 238.308594 185.488281 235.058594 191.265625 " fill-opacity="1" fill-rule="nonzero"/><path fill="#e07e1e" d="M 253.363281 188.660156 C 253.363281 188.660156 240.113281 194.761719 227.960938 195.902344 L 233.300781 192.28125 C 233.300781 192.28125 235.453125 193.632812 253.363281 188.660156 " fill-opacity="1" fill-rule="nonzero"/><path fill="#afd49b" d="M 252.082031 81.316406 C 252.082031 81.316406 270.203125 72.296875 289.5625 75.542969 C 308.925781 78.789062 326.429688 91.0625 329.859375 96.113281 C 333.285156 101.167969 242.84375 88.234375 252.082031 81.316406 " fill-opacity="1" fill-rule="nonzero"/><path fill="#acdd9a" d="M 109.136719 187.316406 C 109.84375 185.066406 111.335938 183.144531 113.3125 181.859375 C 117.785156 178.949219 129.597656 171.753906 137.394531 171.550781 C 147.234375 171.292969 155.800781 180.746094 154.453125 192.578125 C 153.09375 204.492188 130.976562 210.019531 130.976562 210.019531 C 130.976562 210.019531 120.832031 212.558594 110.914062 197.59375 C 109.171875 194.964844 107.90625 191.242188 109.136719 187.316406 " fill-opacity="1" fill-rule="nonzero"/><path fill="#a9c3a0" d="M 130.976562 210.019531 C 130.976562 210.019531 131.488281 209.890625 132.351562 209.632812 C 131.929688 209.816406 131.472656 209.945312 130.976562 210.019531 M 108.839844 188.453125 C 108.847656 188.429688 108.855469 188.40625 108.863281 188.382812 C 108.855469 188.402344 108.855469 188.425781 108.847656 188.449219 C 108.847656 188.449219 108.84375 188.449219 108.839844 188.453125 " fill-opacity="1" fill-rule="nonzero"/><path fill="#8fb880" d="M 129.378906 210.128906 C 128.859375 210.128906 128.332031 210.09375 127.796875 210.03125 C 129.957031 208.492188 131.296875 206.125 131.050781 203.054688 C 130.121094 191.410156 118.203125 186.988281 115.753906 186.875 C 115.550781 186.863281 114.449219 186.742188 113.992188 186.742188 C 113.917969 186.742188 113.859375 186.746094 113.828125 186.753906 C 112.46875 187.074219 110.558594 187.5 108.847656 188.449219 C 108.851562 188.425781 108.855469 188.402344 108.863281 188.382812 C 109.277344 187.066406 110.03125 185.828125 111.191406 184.726562 C 111.191406 184.726562 114.675781 182.890625 119.070312 182.890625 C 122.414062 182.890625 126.289062 183.953125 129.558594 187.714844 C 137.253906 196.574219 137.683594 207.328125 132.351562 209.632812 C 131.484375 209.890625 130.980469 210.019531 130.980469 210.019531 C 130.457031 210.09375 129.921875 210.128906 129.378906 210.128906 " fill-opacity="1" fill-rule="nonzero"/><path fill="#2b8838" d="M 115.753906 186.875 C 115.515625 186.863281 114.058594 186.699219 113.828125 186.753906 C 110.804688 187.46875 105.066406 188.683594 104.832031 195.078125 C 104.539062 203.09375 109.835938 209.496094 116.746094 211.503906 C 123.652344 213.511719 131.621094 210.183594 131.050781 203.054688 C 130.121094 191.410156 118.203125 186.988281 115.753906 186.875 " fill-opacity="1" fill-rule="nonzero"/><path fill="#39b54a" d="M 104.777344 196.933594 C 104.804688 197.414062 104.15625 207.9375 117.496094 211.503906 C 129.910156 214.824219 126.128906 200.769531 121.617188 194.695312 C 117.335938 188.929688 103.972656 184.144531 104.777344 196.933594 " fill-opacity="1" fill-rule="nonzero"/><path fill="#2b8838" d="M 116.460938 202.347656 C 116.460938 204.96875 114.875 207.097656 112.921875 207.097656 C 110.964844 207.097656 109.382812 204.96875 109.382812 202.347656 C 109.382812 199.722656 110.964844 197.59375 112.921875 197.59375 C 114.875 197.59375 116.460938 199.722656 116.460938 202.347656 " fill-opacity="1" fill-rule="nonzero"/><path fill="#227005" d="M 73.074219 270.226562 C 73.074219 270.226562 71.992188 277.71875 87.800781 277.394531 C 101.21875 277.117188 140.746094 269.121094 131.960938 260.792969 C 126.710938 255.8125 113.949219 261.214844 114.960938 255.082031 C 115.796875 250 109.316406 253.289062 107.949219 247.058594 C 106.582031 240.824219 114.277344 209.550781 114.761719 204.015625 C 115.242188 198.480469 110.550781 201.300781 109.828125 204.738281 C 109.085938 208.269531 100.363281 242.425781 99.332031 246.6875 C 98.300781 250.953125 84.894531 248.402344 84.355469 257.667969 C 84.058594 262.742188 73.316406 264.898438 73.074219 270.226562 " fill-opacity="1" fill-rule="nonzero"/><path fill="#cdebc2" d="M 112.414062 182.441406 C 112.414062 182.441406 123.5625 175.492188 133.222656 186.742188 C 139.121094 193.609375 137.917969 200 139.359375 201.851562 C 140.804688 203.703125 152.351562 196.507812 152.835938 189.761719 C 153.316406 183.015625 146.6875 171.9375 140.867188 171.867188 C 135.042969 171.792969 127.753906 171.773438 112.414062 182.441406 " fill-opacity="1" fill-rule="nonzero"/><path fill="#238502" d="M 96.234375 261.277344 C 96.234375 261.277344 92.90625 263.242188 114.519531 261.355469 C 121.515625 260.746094 130.417969 261.273438 130.878906 263.800781 C 131.34375 266.328125 119.8125 270.417969 108.867188 273.0625 C 97.917969 275.710938 73.8125 275.652344 73.957031 270.027344 C 74.097656 264.402344 84.804688 261.636719 86.550781 261.636719 C 88.292969 261.636719 89.035156 260.367188 86.550781 259.589844 C 83.753906 258.71875 84.066406 252.835938 90.519531 251.472656 C 96.972656 250.105469 99.179688 250.050781 100.324219 247.984375 C 100.472656 247.710938 100.578125 245.140625 100.925781 243.671875 C 103.203125 234.015625 109.722656 204.488281 111.390625 203.65625 C 113.316406 202.691406 114.453125 204.335938 112.921875 210.128906 C 111.390625 215.921875 105.136719 242.792969 106.21875 245.238281 C 107.300781 247.683594 109.464844 250.085938 107.179688 251.652344 C 107.179688 251.652344 108.265625 251.65625 110.910156 252.316406 C 113.554688 252.972656 113.804688 255.441406 112.683594 256.882812 C 111.332031 258.628906 108.746094 259.351562 107.0625 259.710938 C 106.230469 259.890625 96.234375 261.277344 96.234375 261.277344 " fill-opacity="1" fill-rule="nonzero"/><path fill="#477f31" d="M 181.625 209.265625 C 184.253906 209.078125 187.074219 208.730469 190.085938 208.167969 C 190.089844 208.167969 190.089844 208.167969 190.09375 208.167969 C 187.429688 208.824219 184.53125 209.210938 181.625 209.265625 " fill-opacity="1" fill-rule="nonzero"/><path fill="#4e9c3b" d="M 180.933594 209.273438 C 171.347656 209.273438 161.867188 205.589844 160.652344 195.902344 C 160.015625 190.789062 158.0625 173.34375 143.394531 169.457031 C 141.238281 168.886719 139.105469 168.628906 137.03125 168.628906 C 131.144531 168.628906 125.726562 170.691406 121.582031 173.460938 C 121.582031 173.460938 118.042969 162.472656 126.515625 155.636719 C 126.660156 156.492188 127.121094 157.277344 127.933594 157.992188 C 127.933594 157.992188 159.417969 179.050781 191.601562 179.070312 C 196.242188 184.636719 199.886719 190.875 201.859375 197.636719 C 203.222656 202.320312 197.597656 206.3125 190.09375 208.167969 C 190.089844 208.167969 190.089844 208.167969 190.085938 208.167969 C 187.074219 208.730469 184.25 209.078125 181.625 209.265625 C 181.394531 209.269531 181.160156 209.273438 180.933594 209.273438 " fill-opacity="1" fill-rule="nonzero"/><path fill="#57bd31" d="M 191.601562 179.074219 C 159.417969 179.050781 127.933594 157.992188 127.933594 157.992188 C 127.121094 157.277344 126.660156 156.492188 126.515625 155.636719 C 127.898438 154.523438 129.597656 153.519531 131.6875 152.691406 C 133.601562 161.277344 170.179688 171.941406 186.960938 174.03125 C 188.589844 175.644531 190.144531 177.324219 191.601562 179.074219 " fill-opacity="1" fill-rule="nonzero"/><path fill="#8cca71" d="M 186.960938 174.03125 C 170.179688 171.941406 133.601562 161.277344 131.6875 152.691406 C 133.105469 152.128906 134.699219 151.648438 136.496094 151.269531 C 137.566406 151.042969 138.773438 150.933594 140.09375 150.933594 C 151.8125 150.933594 172.425781 159.679688 186.960938 174.03125 " fill-opacity="1" fill-rule="nonzero"/><path fill="#ffcd9f" d="M 343.8125 303.9375 C 343.8125 303.9375 347.179688 328.796875 351.992188 336.296875 C 356.804688 343.796875 377.976562 345 377.976562 345 C 377.976562 345 383.511719 318.941406 373.40625 303.339844 L 343.8125 303.9375 " fill-opacity="1" fill-rule="nonzero"/><path fill="#2fb202" d="M 109.230469 257.375 C 109.230469 257.375 85.496094 261.371094 85.152344 257.234375 C 84.804688 253.097656 90.152344 251.863281 94.488281 251.804688 C 98.84375 251.742188 103.792969 249.367188 103.140625 247.800781 C 102.488281 246.238281 101.070312 245.296875 102.382812 240.113281 C 103.691406 234.929688 109.828125 205.578125 111.152344 204.738281 C 112.476562 203.894531 113.074219 206.601562 111.992188 210.179688 C 110.910156 213.761719 104.441406 242.160156 104.820312 244.289062 C 105.257812 246.722656 108.261719 249.207031 106.621094 250.769531 C 105.734375 251.613281 104.40625 252.707031 106.53125 252.832031 C 110.878906 253.097656 113.566406 255.757812 109.230469 257.375 " fill-opacity="1" fill-rule="nonzero"/><path fill="#a8df95" d="M 88.84375 257.257812 C 87.695312 257.257812 86.84375 257.027344 86.550781 256.433594 C 86.550781 256.433594 85.652344 254.464844 88.894531 253.578125 C 89.144531 253.507812 89.425781 253.480469 89.742188 253.480469 C 90.640625 253.480469 91.820312 253.714844 93.382812 253.953125 C 94.945312 254.191406 96.890625 254.425781 99.316406 254.425781 C 99.738281 254.425781 100.171875 254.417969 100.625 254.40625 C 100.625 254.40625 92.894531 257.257812 88.84375 257.257812 " fill-opacity="1" fill-rule="nonzero"/><path fill="#2fb202" d="M 86.007812 264.042969 C 86.007812 264.042969 97.375 264.042969 108.683594 264.464844 C 115.800781 264.730469 118.109375 270.421875 103.140625 272.886719 C 88.171875 275.351562 71.449219 275.886719 74.21875 269.121094 C 76.984375 262.359375 86.007812 264.042969 86.007812 264.042969 " fill-opacity="1" fill-rule="nonzero"/><path fill="#a8df95" d="M 80.136719 271.339844 C 76.636719 271.339844 74.003906 270.820312 74.941406 269.121094 C 75.691406 267.761719 76.769531 267.277344 78.1875 267.277344 C 81.300781 267.277344 86.054688 269.59375 92.625 270.027344 C 93.210938 270.066406 85.609375 271.339844 80.136719 271.339844 " fill-opacity="1" fill-rule="nonzero"/><path fill="#a8df95" d="M 106.046875 227.828125 C 106.011719 227.828125 105.988281 227.769531 105.976562 227.652344 C 105.832031 226.097656 110.183594 205.878906 111.1875 205.878906 C 111.195312 205.878906 111.203125 205.878906 111.210938 205.882812 C 112.128906 206.167969 106.765625 227.828125 106.046875 227.828125 " fill-opacity="1" fill-rule="nonzero"/><path fill="#a4ddac" d="M 106.074219 200.070312 C 105.800781 200.070312 105.636719 199.875 105.636719 199.875 C 105.636719 199.875 103.351562 191.847656 108.765625 190.324219 C 109.28125 190.179688 109.804688 190.109375 110.328125 190.109375 C 115.328125 190.109375 120.535156 196.195312 120.773438 199.023438 C 120.773438 199.023438 120.386719 199.054688 119.820312 199.054688 C 118.902344 199.054688 117.511719 198.972656 116.558594 198.53125 C 115.46875 198.027344 112.222656 195.414062 109.984375 195.414062 C 109.066406 195.414062 108.320312 195.851562 107.960938 197.054688 C 107.203125 199.582031 106.503906 200.070312 106.074219 200.070312 " fill-opacity="1" fill-rule="nonzero"/><path fill="#20662a" d="M 125.046875 191.566406 C 125.046875 191.566406 129.855469 199.804688 128.082031 206.664062 C 127.234375 209.945312 124.902344 211.460938 124.902344 211.460938 C 124.902344 211.460938 129.148438 210.421875 130.496094 207.097656 C 131.84375 203.777344 131 196.148438 125.046875 191.566406 " fill-opacity="1" fill-rule="nonzero"/><path fill="#1c5534" d="M 190.808594 253.050781 C 190.546875 253.050781 190.230469 253 189.851562 252.898438 C 186.574219 252.003906 178.941406 250.078125 168.730469 250.078125 C 163.945312 250.078125 158.59375 250.5 152.859375 251.652344 C 149.765625 252.273438 147.046875 252.53125 144.667969 252.53125 C 133.253906 252.53125 129.675781 246.601562 129.675781 246.601562 C 140.558594 244.570312 159.003906 242.464844 171.335938 242.464844 C 176.386719 242.464844 180.414062 242.816406 182.476562 243.671875 C 189.015625 246.390625 193.855469 253.050781 190.808594 253.050781 " fill-opacity="1" fill-rule="nonzero"/><path fill="#1c5534" d="M 140.746094 276.40625 C 146.789062 272.847656 184.984375 257.316406 193.164062 257.316406 C 193.453125 257.316406 193.707031 257.332031 193.917969 257.375 C 197.367188 258.027344 197.847656 264.382812 187.539062 267.773438 C 170.707031 273.304688 140.746094 276.40625 140.746094 276.40625 " fill-opacity="1" fill-rule="nonzero"/><path fill="#267245" d="M 48.378906 283.765625 C 47.710938 283.765625 46.992188 283.554688 46.203125 283.140625 C 30.1875 274.777344 36.082031 267.277344 36.082031 267.277344 C 39.960938 262.207031 70.609375 258.148438 70.609375 258.148438 C 70.609375 258.148438 58.113281 261.914062 56.171875 269.121094 C 53.421875 279.355469 51.421875 283.769531 48.378906 283.765625 " fill-opacity="1" fill-rule="nonzero"/><path fill="#cdd23c" d="M 39.335938 308.269531 C 37.78125 308.269531 36.523438 306.164062 36.523438 303.566406 C 36.523438 300.96875 37.78125 298.863281 39.335938 298.863281 C 40.890625 298.863281 42.152344 300.96875 42.152344 303.566406 C 42.152344 306.164062 40.890625 308.269531 39.335938 308.269531 " fill-opacity="1" fill-rule="nonzero"/><path fill="#cdd23c" d="M 28.027344 291.453125 C 26.808594 291.453125 25.824219 289.804688 25.824219 287.769531 C 25.824219 285.738281 26.808594 284.089844 28.027344 284.089844 C 29.242188 284.089844 30.230469 285.738281 30.230469 287.769531 C 30.230469 289.804688 29.242188 291.453125 28.027344 291.453125 " fill-opacity="1" fill-rule="nonzero"/><path fill="#cdd23c" d="M 35.6875 295.71875 C 35.027344 295.71875 34.496094 294.828125 34.496094 293.730469 C 34.496094 292.628906 35.027344 291.738281 35.6875 291.738281 C 36.34375 291.738281 36.878906 292.628906 36.878906 293.730469 C 36.878906 294.828125 36.34375 295.71875 35.6875 295.71875 " fill-opacity="1" fill-rule="nonzero"/><path fill="#cdd23c" d="M 32.988281 312.011719 C 32.234375 312.011719 31.621094 310.988281 31.621094 309.722656 C 31.621094 308.457031 32.234375 307.433594 32.988281 307.433594 C 33.746094 307.433594 34.359375 308.457031 34.359375 309.722656 C 34.359375 310.988281 33.746094 312.011719 32.988281 312.011719 " fill-opacity="1" fill-rule="nonzero"/><path fill="#cdd23c" d="M 28.285156 303.035156 C 27.269531 303.035156 26.441406 301.652344 26.441406 299.949219 C 26.441406 298.246094 27.269531 296.867188 28.285156 296.867188 C 29.304688 296.867188 30.132812 298.246094 30.132812 299.949219 C 30.132812 301.652344 29.304688 303.035156 28.285156 303.035156 " fill-opacity="1" fill-rule="nonzero"/></svg>