<svg xmlns="http://www.w3.org/2000/svg" xmlns:xlink="http://www.w3.org/1999/xlink" width="512" zoomAndPan="magnify" viewBox="0 0 384 383.999986" height="512" preserveAspectRatio="xMidYMid meet" version="1.0"><path fill="#000000" d="M 355.144531 90.546875 C 346.792969 96.070312 341.910156 101.195312 335.535156 108.5 C 328.320312 116.738281 321.722656 124.957031 312.34375 131.070312 C 306.351562 135 302.902344 141.695312 295.886719 143.550781 C 297.960938 141.054688 300 138.535156 302.335938 136.0625 C 309.070312 128.945312 317.175781 123.324219 323.734375 115.984375 C 328.367188 110.820312 332.679688 103.976562 336.722656 98.429688 C 342.132812 90.96875 349.683594 82.910156 356.949219 77.167969 C 366.152344 69.875 377.089844 54.308594 366.289062 44.289062 C 356.726562 35.40625 342.304688 45.636719 334.820312 51.949219 C 327.886719 57.78125 320.226562 62.808594 313.777344 69.222656 C 306.796875 76.214844 298.429688 81.253906 291.339844 87.941406 C 278.265625 100.246094 264.441406 111.882812 253.617188 126.214844 C 252.207031 128.09375 250.019531 132.417969 247.636719 133.902344 C 253.417969 118.679688 263.378906 105.855469 273.113281 92.929688 C 282.949219 79.773438 291.621094 65.773438 300.125 51.75 C 306.265625 41.632812 326.738281 15.996094 305.648438 10.078125 C 297.875 7.890625 288.359375 15.378906 282.835938 19.691406 C 270.691406 29.117188 262.871094 42.644531 251.257812 52.679688 C 240.878906 61.660156 235.007812 74.003906 228.667969 85.976562 C 226.742188 89.621094 202.734375 124.226562 202.734375 125.015625 C 202.003906 124.484375 200.792969 124.671875 200.175781 125.328125 C 195.976562 129.835938 191.304688 134.125 186.96875 138.644531 C 179.816406 146.046875 156.511719 152.777344 156.003906 136.65625 C 155.746094 128.203125 161.132812 119.371094 163.492188 111.5 C 166.382812 101.902344 170.027344 92.140625 174.042969 82.996094 C 177.851562 74.300781 177.230469 65.699219 176.847656 56.347656 C 176.625 50.378906 176.761719 45.167969 171.140625 42.140625 C 159.5625 35.875 148.28125 58.066406 143.773438 64.515625 C 138.496094 72 133.652344 80.699219 129.414062 88.804688 C 128.179688 91.1875 126.328125 93.90625 125.597656 96.488281 C 124.300781 101.035156 123.65625 109.164062 120.234375 112.253906 C 118 114.242188 118.800781 121.136719 117.429688 121.507812 C 112.464844 122.878906 109.695312 133.097656 107.25 136.964844 C 102.453125 144.585938 99.292969 151.851562 96.203125 160.378906 C 92.695312 170.175781 86.019531 178.367188 82.464844 187.867188 C 79.535156 195.664062 79.644531 204.609375 77.296875 212.75 C 75.753906 218.074219 74.429688 224.722656 73.988281 230.023438 C 72.21875 231.703125 69.21875 232.160156 68.042969 234.199219 C 67.734375 234.707031 67.535156 235.410156 67.363281 236.140625 C 66.917969 236.25 66.5 236.507812 66.152344 237.003906 C 62.175781 242.984375 56.167969 248.457031 49.980469 252.101562 C 49.496094 252.347656 49.125 252.832031 48.769531 253.363281 C 48.769531 253.386719 48.730469 253.386719 48.707031 253.410156 C 45.148438 257.03125 40.132812 254.796875 36.066406 256.808594 C 35.054688 257.316406 34.078125 258.6875 33.285156 259.476562 C 30 262.789062 27.542969 264.691406 22.996094 266.433594 C 19.238281 267.867188 20.5 270.363281 14.828125 269.128906 C 12.589844 268.621094 12.058594 268.644531 9.835938 268.816406 C 6.695312 269.089844 5.460938 272.734375 4.449219 275.09375 C 0.0507812 285.511719 1.878906 299.335938 2.457031 310.332031 C 3.164062 323.390625 10.933594 334.757812 18.199219 344.902344 C 25.253906 354.785156 28.9375 365.324219 39.796875 372.167969 C 48.078125 377.382812 58.886719 382.90625 68.933594 380 C 71.269531 379.320312 73.441406 376.914062 74.210938 374.664062 C 75.804688 369.894531 87.8125 364.285156 91.804688 361.285156 C 96.5625 357.699219 99.824219 352.597656 104.0625 348.472656 C 108.992188 343.640625 114.945312 341.652344 120.9375 338.511719 C 121.027344 338.488281 121.050781 338.402344 121.136719 338.339844 C 124.953125 339.191406 129.574219 332.816406 131.875 330.851562 C 137.679688 325.921875 140.128906 321.402344 148.011719 318.632812 C 152.273438 317.140625 155.410156 312.9375 159.699219 311.132812 C 176.652344 304.042969 193.195312 296.269531 209.976562 288.808594 C 218.882812 284.855469 226.101562 278.492188 234.058594 273.082031 C 243.484375 266.679688 252.355469 260.058594 261.636719 253.449219 C 262.003906 253.164062 262.226562 252.855469 262.363281 252.496094 C 272.101562 246.035156 283.714844 242.304688 292.933594 234.816406 C 300 229.070312 305.832031 225.476562 311.984375 218.558594 C 316.691406 213.21875 322.957031 208.511719 326.910156 202.679688 C 335.769531 189.632812 345.246094 176.957031 354.144531 163.996094 C 357.480469 159.15625 365.25 144.761719 358.738281 139.398438 C 358.160156 138.890625 357.480469 138.535156 356.75 138.226562 C 366.574219 125.820312 377.335938 113.6875 380.820312 97.921875 C 384.09375 83.058594 362.472656 85.691406 355.144531 90.546875 " fill-opacity="1" fill-rule="nonzero"/><path fill="#000000" d="M 375.964844 100.417969 C 379.71875 83.355469 359.445312 92.472656 355.007812 95.933594 C 353.277344 97.28125 351.449219 98.699219 349.570312 99.886719 C 343.121094 103.867188 338.378906 111.464844 333.917969 117.578125 C 325.984375 128.550781 311.847656 133.320312 304.472656 144.699219 C 302.25 148.160156 297.171875 147.703125 294.785156 151.320312 C 292.933594 154.078125 286.433594 153.878906 283.652344 155.078125 C 276.980469 160.019531 270.160156 164.789062 263.511719 169.78125 C 255.667969 175.671875 259.730469 183.050781 261.660156 190.757812 C 262.339844 193.390625 258.273438 194.515625 257.621094 191.882812 C 255.496094 183.382812 251.207031 174.832031 259.078125 167.878906 C 270.496094 157.808594 283.738281 151.210938 293.746094 139.597656 C 304.832031 126.722656 318.300781 117.246094 327.601562 102.777344 C 334.363281 92.25 344.667969 82.464844 353.96875 74.1875 C 357.652344 70.914062 360.765625 66.726562 363.460938 62.585938 C 367.683594 57.535156 366.4375 51.898438 359.667969 45.671875 C 355.402344 44.746094 351.535156 45.523438 348.027344 48.019531 C 341.996094 51.617188 337.167969 56.460938 331.484375 60.386719 C 318.832031 69.0625 308.847656 80.785156 296.21875 89.59375 C 289.347656 94.414062 284.578125 102.050781 277.957031 107.261719 C 270.582031 113.09375 264.835938 118.308594 259.101562 125.882812 C 257.0625 128.601562 254.964844 136.175781 252.292969 137.519531 C 249.070312 139.125 246.992188 137.273438 243.992188 138.050781 C 243.261719 138.25 242.445312 138.050781 241.941406 137.519531 C 237.960938 133.28125 234.738281 128.996094 228.707031 127.453125 C 226.0625 126.785156 227.1875 122.71875 229.832031 123.386719 C 234.625 124.621094 240.542969 127.957031 243.238281 132.308594 C 243.347656 132.503906 243.460938 132.617188 243.570312 132.777344 C 249.972656 115.925781 261.300781 102.296875 271.707031 87.742188 C 282.34375 72.878906 291.339844 57.136719 301.210938 41.792969 C 304.324219 36.976562 308.140625 31.898438 309.824219 26.351562 C 311.167969 21.878906 313.46875 10.695312 300.878906 14.367188 C 297.628906 15.316406 294.515625 16.664062 291.648438 18.542969 C 280.253906 26.089844 272.742188 36.109375 263.796875 46.140625 C 258.855469 51.664062 252.542969 55.988281 247.945312 61.710938 C 243.125 67.714844 239.53125 74.757812 235.859375 81.476562 C 229.300781 93.550781 220.824219 103.867188 213.730469 115.527344 C 211.308594 119.496094 209.359375 127.054688 205.058594 129.5625 C 203.882812 130.257812 202.226562 129.503906 202.09375 129.75 C 200.261719 132.972656 195.097656 136.261719 192.40625 139.066406 C 188.230469 143.414062 184.050781 146.304688 178.53125 148.738281 C 173.054688 151.183594 159.722656 153.929688 155.917969 147.503906 C 151.433594 139.96875 151.320312 135.136719 153.84375 126.722656 C 157.574219 114.269531 162.34375 102.125 166.46875 89.78125 C 168.953125 82.269531 173.007812 76.238281 172.921875 67.875 C 172.882812 64.046875 172.921875 60.203125 172.636719 56.347656 C 172.191406 49.652344 163.777344 45.277344 158.808594 50.738281 C 149.183594 61.351562 140.90625 75.820312 134.320312 88.472656 C 131.167969 94.5 128.15625 100.195312 128.03125 107.175781 C 127.980469 111.191406 125.4375 112.5 123.210938 115.21875 C 121.558594 117.246094 124.585938 121.644531 123.0625 124.597656 C 121.976562 126.785156 118.753906 124.796875 117.453125 127.402344 C 114.488281 133.519531 110.585938 138.867188 107.199219 144.699219 C 103.542969 150.949219 101.773438 158.140625 98.96875 164.789062 C 96.164062 171.460938 93.421875 177.886719 89.40625 183.964844 C 85.046875 190.621094 85.6875 197.234375 84.03125 204.496094 C 81.871094 214.011719 78.027344 233.382812 78.027344 233.382812 C 78.027344 235.519531 75.582031 236.027344 74.429688 234.902344 C 73.589844 235.347656 72.75 235.769531 71.910156 236.363281 C 71.492188 236.671875 71.378906 243.492188 71.40625 244.132812 C 71.664062 252.964844 79.261719 260.898438 84.414062 267.433594 C 86.070312 269.546875 83.128906 272.550781 81.4375 270.410156 C 76.570312 264.246094 67.535156 255.328125 67.289062 246.9375 C 67.253906 246.035156 67.167969 244.773438 67.09375 243.429688 C 65.992188 245.109375 64.757812 246.542969 62.484375 247.839844 C 58.839844 249.914062 57.378906 254.375 53.117188 255.523438 C 47.113281 257.117188 56.007812 272.351562 57.851562 275.355469 C 60.753906 279.925781 68.957031 285.25 74.160156 286.992188 C 76.707031 287.832031 75.605469 291.898438 73.035156 291.058594 C 60.46875 286.882812 52.414062 276.589844 47.707031 264.804688 C 47.285156 263.714844 47.089844 261.492188 47.261719 259.195312 C 42.960938 260.738281 38.453125 259.984375 34.632812 264.296875 C 30.59375 268.867188 22.535156 274.007812 16.484375 273.746094 C 8.328125 273.390625 6.253906 278.011719 6.300781 286.289062 C 6.328125 291.921875 6.5 297.53125 6.5 303.175781 C 6.5 317.164062 11.714844 328.667969 19.730469 339.859375 C 27.617188 350.878906 32.222656 362.851562 44.503906 370.179688 C 50.203125 373.550781 56.230469 376.183594 62.964844 376.515625 C 66.105469 376.691406 71.34375 371.019531 73.960938 368.414062 C 76.484375 365.890625 81.253906 363.753906 84.191406 361.652344 C 89.976562 357.550781 93.621094 352.757812 98.527344 347.964844 C 104.085938 342.578125 109.496094 339.6875 115.949219 336.351562 C 111.882812 334.535156 108.792969 332.347656 105.851562 328.023438 C 103.046875 323.957031 99.070312 320.226562 96.585938 315.964844 C 96.253906 315.347656 94.4375 311.222656 93.113281 309.316406 C 92.433594 309.789062 91.484375 310.070312 90.753906 309.539062 C 80.609375 301.941406 78.582031 288.253906 75.753906 276.949219 C 75.097656 274.316406 79.175781 273.214844 79.820312 275.824219 C 80.855469 280.035156 81.339844 286.3125 83.351562 289.820312 C 84.984375 292.6875 85.269531 295.40625 87.109375 298.347656 C 89.320312 301.917969 91.65625 302.941406 90.730469 305.746094 C 91.101562 304.660156 92.164062 303.980469 93.3125 304.289062 C 100.328125 306.179688 113.699219 343.75 124.273438 331.359375 C 127.054688 328.074219 132.304688 323.167969 135.667969 320.253906 C 137.546875 318.632812 138.804688 317.507812 141.214844 316.609375 C 148.589844 313.890625 153.980469 308.367188 161.441406 305.894531 C 179.394531 300.027344 198.273438 290.75 214.683594 281.542969 C 223.074219 276.835938 230.472656 270.128906 238.9375 265.222656 C 245.574219 261.40625 251.230469 256.054688 257.347656 251.421875 C 257.457031 251.003906 257.679688 250.582031 258.125 250.273438 C 267.132812 243.6875 278.304688 239.808594 287.582031 233.445312 C 294.425781 228.738281 301.210938 224.351562 306.734375 218.136719 C 310.527344 213.863281 314.617188 209.910156 318.460938 205.734375 C 328.34375 194.960938 337.253906 180.886719 345.050781 168.457031 C 347.855469 163.996094 351.957031 160.808594 354.144531 155.894531 C 356.21875 151.210938 358.121094 139.289062 349.039062 142.402344 C 336.363281 146.75 324.636719 154.546875 315.714844 164.8125 C 310.167969 171.238281 308.453125 180.269531 301.382812 185.65625 C 291.84375 192.945312 284.667969 202.0625 273.359375 206.882812 C 268.171875 209.09375 263.601562 212.21875 258.804688 214.960938 C 259.027344 216.113281 258.375 217.570312 256.839844 217.742188 C 255.765625 217.851562 254.742188 218.867188 253.949219 219.507812 C 253.058594 220.199219 252.070312 220.832031 251.09375 221.410156 C 249.378906 222.472656 247.054688 224.105469 247.277344 226.378906 C 247.523438 229.097656 243.324219 229.070312 243.0625 226.378906 C 242.730469 222.871094 245.621094 219.84375 248.402344 218.136719 C 249.664062 217.371094 250.8125 216.421875 252.035156 215.582031 C 251.789062 214.765625 251.984375 213.839844 252.960938 213.332031 C 256.582031 211.539062 259.757812 207.253906 263.289062 206.128906 C 264.441406 205.757812 265.539062 205.398438 266.625 205.003906 C 265.875 204.71875 265.121094 204.421875 264.390625 204.078125 C 261.980469 202.992188 260.042969 201.222656 258.152344 199.371094 C 256.246094 197.429688 259.226562 194.464844 261.128906 196.394531 C 262.808594 198.046875 264.5 199.679688 266.773438 200.519531 C 267.640625 200.851562 268.480469 201.46875 269.46875 201.382812 C 270.421875 201.273438 271.335938 201.027344 272.273438 200.914062 C 273.125 200.828125 273.695312 201.222656 274.003906 201.78125 C 278.265625 199.566406 282.246094 196.925781 286.199219 193.589844 C 290.671875 189.808594 294.5625 185.484375 299.246094 182.035156 C 304.347656 178.304688 306.066406 171.214844 309.265625 166.40625 C 309.933594 165.40625 310.726562 164.367188 311.503906 163.355469 C 310.550781 163.527344 309.464844 163.15625 309.03125 161.984375 C 308.453125 160.21875 307.808594 158.585938 306.488281 157.238281 C 305.226562 155.980469 303.855469 154.804688 302.582031 153.53125 C 300.617188 151.65625 303.621094 148.691406 305.558594 150.566406 C 307.128906 152.113281 308.933594 153.484375 310.304688 155.226562 C 311.640625 156.929688 312.429688 158.808594 313.097656 160.859375 C 313.171875 161.03125 313.171875 161.191406 313.171875 161.367188 C 319.78125 153.59375 329.011719 146.503906 337.449219 142.066406 C 341.15625 140.128906 346.964844 137.582031 352.066406 137.433594 C 360.679688 126.4375 372.9375 114.183594 375.964844 100.417969 Z M 355.144531 90.546875 C 362.472656 85.691406 384.09375 83.058594 380.820312 97.921875 C 377.335938 113.6875 366.574219 125.820312 356.75 138.226562 C 357.480469 138.535156 358.160156 138.890625 358.738281 139.398438 C 365.25 144.761719 357.480469 159.15625 354.144531 163.996094 C 345.246094 176.957031 335.769531 189.632812 326.910156 202.679688 C 322.957031 208.511719 316.691406 213.21875 311.984375 218.558594 C 305.832031 225.476562 300 229.070312 292.933594 234.816406 C 283.714844 242.304688 272.101562 246.035156 262.363281 252.496094 C 262.226562 252.855469 262.003906 253.164062 261.636719 253.449219 C 252.355469 260.058594 243.484375 266.679688 234.058594 273.082031 C 226.101562 278.492188 218.882812 284.855469 209.964844 288.808594 C 193.195312 296.269531 176.652344 304.042969 159.699219 311.132812 C 155.410156 312.9375 152.273438 317.140625 148.011719 318.632812 C 140.128906 321.402344 137.679688 325.921875 131.875 330.851562 C 129.574219 332.816406 124.953125 339.191406 121.136719 338.339844 C 121.050781 338.402344 121.027344 338.488281 120.9375 338.511719 C 114.945312 341.652344 108.992188 343.640625 104.0625 348.472656 C 99.824219 352.597656 96.5625 357.699219 91.804688 361.285156 C 87.8125 364.285156 75.804688 369.894531 74.210938 374.664062 C 73.457031 376.914062 71.269531 379.320312 68.933594 380 C 58.886719 382.90625 48.078125 377.382812 39.796875 372.167969 C 28.9375 365.324219 25.269531 354.785156 18.199219 344.902344 C 10.933594 334.757812 3.164062 323.390625 2.457031 310.332031 C 1.878906 299.335938 0.0507812 285.511719 4.449219 275.09375 C 5.460938 272.734375 6.695312 269.089844 9.835938 268.816406 C 12.058594 268.644531 12.589844 268.621094 14.828125 269.128906 C 20.5 270.363281 19.238281 267.867188 22.996094 266.433594 C 27.542969 264.691406 30 262.789062 33.285156 259.476562 C 34.078125 258.6875 35.054688 257.316406 36.066406 256.808594 C 40.132812 254.796875 45.148438 257.03125 48.707031 253.410156 C 48.730469 253.386719 48.769531 253.386719 48.769531 253.363281 C 49.125 252.832031 49.496094 252.347656 49.980469 252.101562 C 56.167969 248.457031 62.175781 242.984375 66.152344 237.003906 C 66.5 236.507812 66.917969 236.25 67.363281 236.140625 C 67.535156 235.410156 67.734375 234.707031 68.042969 234.199219 C 69.21875 232.160156 72.21875 231.703125 73.988281 230.023438 C 74.429688 224.722656 75.753906 218.074219 77.296875 212.75 C 79.644531 204.609375 79.535156 195.664062 82.464844 187.867188 C 86.019531 178.367188 92.695312 170.175781 96.203125 160.378906 C 99.292969 151.851562 102.453125 144.585938 107.25 136.964844 C 109.695312 133.097656 112.464844 122.878906 117.429688 121.507812 C 118.800781 121.136719 118 114.242188 120.234375 112.253906 C 123.65625 109.164062 124.300781 101.035156 125.597656 96.488281 C 126.328125 93.90625 128.179688 91.1875 129.414062 88.804688 C 133.652344 80.699219 138.496094 72 143.773438 64.515625 C 148.28125 58.066406 159.5625 35.875 171.140625 42.140625 C 176.761719 45.167969 176.625 50.378906 176.847656 56.347656 C 177.230469 65.699219 177.851562 74.300781 174.042969 82.996094 C 170.027344 92.140625 166.382812 101.902344 163.492188 111.5 C 161.132812 119.371094 155.746094 128.203125 156.003906 136.65625 C 156.511719 152.777344 179.816406 146.046875 186.96875 138.644531 C 191.316406 134.125 195.976562 129.835938 200.175781 125.328125 C 200.792969 124.671875 202.003906 124.484375 202.734375 125.015625 C 202.734375 124.226562 226.742188 89.621094 228.667969 85.976562 C 235.007812 74.003906 240.878906 61.660156 251.257812 52.679688 C 262.871094 42.644531 270.691406 29.117188 282.835938 19.691406 C 288.375 15.378906 297.875 7.890625 305.648438 10.078125 C 326.738281 15.996094 306.265625 41.632812 300.125 51.75 C 291.621094 65.773438 282.949219 79.773438 273.101562 92.929688 C 263.378906 105.855469 253.417969 118.679688 247.636719 133.902344 C 250.019531 132.417969 252.207031 128.09375 253.617188 126.214844 C 264.441406 111.882812 278.265625 100.246094 291.339844 87.941406 C 298.429688 81.253906 306.796875 76.214844 313.777344 69.222656 C 320.226562 62.808594 327.886719 57.78125 334.820312 51.949219 C 342.304688 45.636719 356.726562 35.40625 366.289062 44.289062 C 377.089844 54.308594 366.152344 69.875 356.949219 77.167969 C 349.683594 82.910156 342.132812 90.96875 336.722656 98.429688 C 332.679688 103.976562 328.367188 110.820312 323.734375 115.984375 C 317.175781 123.324219 309.070312 128.945312 302.335938 136.0625 C 300 138.535156 297.960938 141.054688 295.886719 143.550781 C 302.902344 141.695312 306.351562 135 312.34375 131.070312 C 321.722656 124.957031 328.320312 116.738281 335.546875 108.5 C 341.910156 101.195312 346.792969 96.070312 355.144531 90.546875 " fill-opacity="1" fill-rule="nonzero"/><path fill="#4d4d4d" d="M 15.925781 317.621094 C 16.570312 320.253906 20.632812 319.128906 19.992188 316.496094 C 18.667969 311.246094 16.308594 306.230469 16.308594 300.707031 C 16.308594 294.332031 15.976562 288.425781 16.792969 282 C 17.125 279.332031 12.886719 279.355469 12.589844 282 C 11.886719 287.722656 11.070312 293.6875 11.910156 299.445312 C 12.863281 305.785156 14.359375 311.394531 15.925781 317.621094 Z M 38.214844 277.898438 C 39.453125 274.785156 38.808594 270.746094 38.761719 267.519531 C 38.722656 264.804688 34.523438 264.804688 34.546875 267.519531 C 34.609375 270.632812 34.878906 273.699219 34.152344 276.789062 C 33.59375 279.195312 31.433594 282.074219 30.171875 284.210938 C 28.765625 286.535156 32.382812 288.671875 33.792969 286.335938 C 35.410156 283.65625 37.019531 280.816406 38.214844 277.898438 Z M 58.53125 374.242188 C 61.074219 375.195312 62.175781 371.128906 59.652344 370.203125 C 51.734375 367.3125 46.46875 359.777344 41.417969 353.4375 C 36.3125 347.101562 31.632812 340.476562 27.703125 333.300781 C 26.417969 330.914062 22.796875 333.039062 24.082031 335.425781 C 28.011719 342.664062 32.605469 350.523438 38.453125 356.402344 C 44.976562 363.050781 49.273438 370.882812 58.53125 374.242188 Z M 60.804688 338.203125 C 61.335938 340.847656 65.375 339.722656 64.867188 337.078125 C 64.226562 333.804688 62.148438 331.222656 60.097656 328.667969 C 59.394531 327.765625 57.886719 327.914062 57.121094 328.667969 C 56.257812 329.542969 56.429688 330.742188 57.121094 331.644531 C 58.726562 333.632812 60.296875 335.648438 60.804688 338.203125 Z M 65.027344 367.484375 C 67.289062 369.054688 69.390625 365.410156 67.167969 363.867188 C 64.421875 361.925781 62.65625 358.898438 60.097656 356.710938 C 58.046875 354.945312 55.082031 357.921875 57.121094 359.691406 C 59.964844 362.125 61.953125 365.324219 65.027344 367.484375 Z M 67.5625 329.816406 C 68.933594 332.148438 72.554688 330.039062 71.183594 327.691406 C 69.390625 324.578125 67.140625 321.796875 65.128906 318.820312 C 63.609375 316.582031 59.964844 318.683594 61.46875 320.933594 C 63.496094 323.898438 65.734375 326.703125 67.5625 329.816406 Z M 70.230469 362.011719 C 72.132812 363.953125 75.097656 360.976562 73.195312 359.046875 C 71.046875 356.859375 69.042969 354.476562 66.660156 352.511719 C 65.757812 351.78125 64.558594 351.632812 63.695312 352.511719 C 62.929688 353.265625 62.792969 354.746094 63.695312 355.488281 C 66.078125 357.453125 68.070312 359.824219 70.230469 362.011719 Z M 79.289062 360.703125 C 80.5 360.355469 80.917969 359.246094 80.746094 358.121094 C 80.574219 356.933594 79.707031 356.070312 78.953125 355.230469 C 78.078125 354.214844 76.988281 353.179688 76.347656 352.003906 C 75 349.621094 71.378906 351.746094 72.691406 354.128906 C 73.308594 355.203125 74.160156 356.132812 75.023438 356.996094 C 75.496094 357.503906 76.59375 358.503906 76.707031 359.246094 C 76.839844 360.355469 78.273438 360.976562 79.289062 360.703125 Z M 81.871094 354.414062 C 82.339844 356.664062 86.019531 356.550781 85.960938 353.992188 C 85.933594 352.5625 85.402344 351.472656 83.96875 351.015625 C 81.808594 350.375 80.722656 353.042969 81.871094 354.414062 Z M 84.675781 331.976562 C 86.996094 333.386719 89.097656 329.730469 86.800781 328.332031 C 66.832031 316.210938 54.574219 297.789062 47.558594 275.824219 C 46.753906 273.277344 42.675781 274.367188 43.492188 276.949219 C 50.84375 300.003906 63.71875 319.238281 84.675781 331.976562 Z M 92.050781 294.171875 C 92.101562 296.863281 96.3125 296.863281 96.253906 294.171875 C 96.203125 289.933594 95.386719 285.757812 95.335938 281.542969 C 95.277344 278.824219 91.0625 278.824219 91.125 281.542969 C 91.1875 285.757812 92 289.933594 92.050781 294.171875 Z M 117.429688 327.429688 C 119.308594 329.394531 122.285156 326.429688 120.40625 324.464844 C 116.8125 320.648438 114.09375 316.273438 111.398438 311.8125 C 109.015625 307.859375 106.519531 304.636719 105.0625 300.136719 C 104.222656 297.59375 100.15625 298.679688 100.996094 301.261719 C 102.542969 305.921875 104.875 309.984375 107.753906 313.914062 C 111.089844 318.460938 113.539062 323.316406 117.429688 327.429688 Z M 132.503906 122.375 C 133.53125 122.375 134.714844 121.421875 134.605469 120.273438 C 134.320312 117.667969 132.332031 116.097656 130.28125 114.726562 C 128.03125 113.207031 125.929688 116.851562 128.15625 118.332031 C 128.734375 118.753906 130.34375 119.828125 130.390625 120.273438 C 130.503906 121.421875 131.269531 122.375 132.503906 122.375 Z M 148.628906 111.859375 C 148.652344 114.578125 152.867188 114.578125 152.828125 111.859375 C 152.742188 107.003906 151.765625 102.382812 149.269531 98.167969 C 147.863281 95.847656 144.242188 97.972656 145.625 100.308594 C 147.75 103.890625 148.566406 107.707031 148.628906 111.859375 Z M 152.890625 99.320312 C 153.757812 101.902344 157.820312 100.777344 156.957031 98.195312 C 156.472656 96.796875 156.03125 95.390625 155.546875 93.992188 C 154.683594 91.4375 150.640625 92.535156 151.484375 95.117188 C 151.964844 96.515625 152.445312 97.921875 152.890625 99.320312 Z M 198.164062 141.785156 C 198.496094 139.089844 194.285156 139.125 193.949219 141.785156 C 193.417969 146.132812 191.789062 150.285156 190.058594 154.273438 C 188.957031 156.734375 192.578125 158.871094 193.679688 156.398438 C 195.742188 151.65625 197.546875 146.949219 198.164062 141.785156 Z M 201.4375 145.515625 C 201.546875 148.207031 205.761719 148.234375 205.652344 145.515625 C 205.589844 143.859375 205.167969 142.316406 204.636719 140.746094 C 203.796875 138.199219 199.730469 139.289062 200.574219 141.871094 C 200.96875 143.082031 201.386719 144.253906 201.4375 145.515625 Z M 211.261719 138.027344 C 211.261719 135.222656 210.789062 132.308594 207.835938 131.332031 C 205.253906 130.476562 204.15625 134.542969 206.714844 135.394531 C 207.15625 135.53125 207.058594 138.027344 207.058594 138.027344 C 207.058594 140.832031 211.261719 140.832031 211.261719 138.027344 Z M 216.226562 125.992188 C 217.511719 128.402344 221.132812 126.277344 219.835938 123.894531 C 219.425781 123.078125 218.882812 122.347656 218.4375 121.535156 C 217.152344 119.148438 213.535156 121.285156 214.820312 123.671875 C 215.238281 124.484375 215.769531 125.214844 216.226562 125.992188 Z M 235.800781 137.324219 C 238.605469 137.324219 238.605469 133.121094 235.800781 133.121094 C 232.996094 133.121094 230.140625 132.417969 227.496094 133.875 C 225.109375 135.199219 227.953125 138.84375 230.300781 137.519531 C 231.203125 137.015625 231.597656 137.25 232.574219 137.296875 C 233.894531 137.386719 235.800781 137.324219 235.800781 137.324219 Z M 237.207031 142.933594 C 239.925781 142.90625 239.925781 138.707031 237.207031 138.730469 C 233.277344 138.78125 229.941406 139.683594 226.828125 142.152344 C 224.691406 143.835938 227.695312 146.8125 229.804688 145.117188 C 231.980469 143.414062 234.488281 142.96875 237.207031 142.933594 Z M 238.554688 214.828125 C 240.035156 212.554688 236.390625 210.441406 234.933594 212.6875 C 233.957031 214.234375 233.105469 215.863281 232.128906 217.371094 C 230.648438 219.644531 234.292969 221.746094 235.75 219.507812 C 236.75 217.964844 237.566406 216.332031 238.554688 214.828125 Z M 241.027344 190.957031 C 242.867188 188.96875 239.902344 185.988281 238.046875 187.980469 C 235.179688 191.066406 233.785156 196.417969 235.859375 200.320312 C 237.121094 202.730469 240.742188 200.605469 239.480469 198.222656 C 238.914062 197.160156 239.285156 195.75 239.308594 194.601562 C 239.359375 193.167969 240.0625 191.996094 241.027344 190.957031 Z M 243.683594 178.835938 C 245.277344 176.648438 241.644531 174.550781 240.0625 176.710938 C 240.347656 176.277344 239.617188 176.761719 239.394531 176.820312 C 238.9375 176.957031 238.40625 177.132812 238.011719 177.351562 C 237.207031 177.824219 236.390625 178.835938 235.886719 179.625 C 234.539062 181.664062 233.414062 184.050781 231.511719 185.632812 C 229.410156 187.359375 232.402344 190.3125 234.488281 188.597656 C 236.480469 186.964844 237.542969 184.617188 239.035156 182.566406 C 239.726562 181.578125 239.863281 181.085938 240.988281 180.75 C 242.164062 180.40625 242.976562 179.8125 243.683594 178.835938 Z M 246.089844 157.90625 C 248.785156 157.746094 248.785156 153.53125 246.089844 153.707031 C 244.695312 153.792969 243.484375 154.273438 242.164062 154.609375 C 240.878906 154.941406 239.640625 154.519531 238.46875 155.386719 C 237.542969 156.066406 237.097656 157.214844 237.738281 158.253906 C 238.269531 159.179688 239.679688 159.6875 240.59375 159.007812 C 241.1875 158.609375 242.558594 158.785156 243.285156 158.671875 C 244.25 158.5 245.117188 157.96875 246.089844 157.90625 Z M 245.84375 149.726562 C 245.980469 152.421875 250.195312 152.445312 250.046875 149.726562 C 249.933594 146.949219 248.253906 144.785156 247.636719 142.152344 C 247.019531 139.511719 242.976562 140.632812 243.59375 143.277344 C 244.101562 145.464844 245.757812 147.480469 245.84375 149.726562 Z M 252.320312 177.402344 C 253.246094 174.832031 249.179688 173.734375 248.253906 176.277344 C 245.335938 184.445312 238.972656 197.601562 247.859375 204.496094 C 249.996094 206.128906 253 203.1875 250.835938 201.53125 C 243.59375 195.921875 249.933594 184.050781 252.320312 177.402344 Z M 252.628906 241.808594 C 252.628906 241.808594 252.628906 236.1875 252.628906 233.382812 C 252.628906 230.589844 247.019531 230.589844 247.019531 233.382812 C 247.019531 236.1875 247.019531 239.003906 247.019531 241.808594 C 247.019531 244.613281 252.628906 244.613281 252.628906 241.808594 Z M 256.839844 164.441406 C 259.558594 164.441406 259.558594 160.242188 256.839844 160.242188 C 246.066406 160.265625 237.542969 161.921875 229.175781 168.792969 C 227.074219 170.535156 230.078125 173.472656 232.152344 171.769531 C 239.617188 165.652344 247.328125 164.480469 256.839844 164.441406 Z M 256.136719 240.882812 C 256.222656 243.578125 260.4375 243.601562 260.351562 240.882812 C 260.238281 236.421875 258.609375 232.210938 258.496094 227.785156 C 258.410156 225.09375 254.195312 225.054688 254.285156 227.785156 C 254.394531 232.234375 256.027344 236.449219 256.136719 240.882812 Z M 268.320312 198.332031 C 268.515625 201.027344 272.71875 201.050781 272.519531 198.332031 C 272.347656 196.121094 271.0625 194.207031 269.542969 192.636719 C 267.664062 190.671875 264.6875 193.675781 266.578125 195.613281 C 267.246094 196.304688 268.222656 197.34375 268.320312 198.332031 Z M 288.558594 217.125 C 290.609375 218.867188 293.613281 215.890625 291.535156 214.148438 C 289.125 212.15625 287.605469 209.351562 285.445312 207.140625 C 283.566406 205.175781 280.601562 208.179688 282.46875 210.105469 C 284.640625 212.332031 286.148438 215.136719 288.558594 217.125 Z M 290.277344 167.023438 C 290.449219 169.71875 294.648438 169.71875 294.476562 167.023438 C 294.367188 165.296875 293.585938 164.144531 292.796875 162.675781 C 291.511719 160.292969 287.867188 162.429688 289.152344 164.8125 C 289.546875 165.492188 290.226562 166.210938 290.277344 167.023438 Z M 296.058594 207.328125 C 296.6875 206.265625 296.21875 205.140625 295.316406 204.472656 C 293.277344 202.929688 291.226562 201.914062 288.644531 201.839844 C 285.925781 201.78125 285.925781 205.992188 288.644531 206.042969 C 290.472656 206.105469 291.757812 207.054688 293.191406 208.09375 C 294.117188 208.796875 295.515625 208.253906 296.058594 207.328125 Z M 297.121094 203.125 C 298.246094 205.597656 301.851562 203.460938 300.742188 201.027344 C 300.347656 200.1875 300.085938 199.457031 299.46875 198.726562 C 297.738281 196.652344 294.761719 199.617188 296.503906 201.691406 C 296.789062 202.039062 296.921875 202.730469 297.121094 203.125 Z M 303.226562 167.171875 C 304.214844 166.890625 305.140625 165.652344 304.695312 164.589844 C 303.460938 161.613281 301.828125 159.007812 299.046875 157.265625 C 296.761719 155.78125 294.648438 159.425781 296.921875 160.882812 C 298.691406 162.007812 299.839844 163.800781 300.617188 165.714844 C 301.074219 166.777344 302.027344 167.507812 303.226562 167.171875 Z M 310.195312 193.304688 C 311.453125 195.726562 315.074219 193.589844 313.839844 191.203125 C 312.824219 189.277344 311.566406 187.507812 310.550781 185.59375 C 309.316406 183.183594 305.671875 185.324219 306.929688 187.695312 C 307.921875 189.632812 309.207031 191.402344 310.195312 193.304688 Z M 315.347656 188.175781 C 316.558594 190.585938 320.203125 188.460938 318.980469 186.050781 C 318.324219 184.777344 317.59375 183.691406 316.359375 182.960938 C 314 181.578125 311.898438 185.199219 314.234375 186.609375 C 314.789062 186.941406 315.050781 187.582031 315.347656 188.175781 Z M 355.007812 95.933594 C 359.445312 92.472656 379.71875 83.355469 375.964844 100.417969 C 372.9375 114.183594 360.679688 126.4375 352.066406 137.433594 C 346.964844 137.582031 341.15625 140.128906 337.449219 142.066406 C 329.011719 146.503906 319.78125 153.59375 313.171875 161.367188 C 313.171875 161.191406 313.171875 161.03125 313.097656 160.859375 C 312.429688 158.808594 311.640625 156.929688 310.304688 155.226562 C 308.933594 153.484375 307.128906 152.113281 305.558594 150.566406 C 303.621094 148.691406 300.617188 151.65625 302.582031 153.53125 C 303.855469 154.804688 305.226562 155.980469 306.488281 157.238281 C 307.808594 158.585938 308.453125 160.21875 309.03125 161.984375 C 309.464844 163.15625 310.550781 163.527344 311.503906 163.355469 C 310.726562 164.367188 309.933594 165.40625 309.265625 166.40625 C 306.066406 171.214844 304.347656 178.304688 299.246094 182.035156 C 294.5625 185.484375 290.671875 189.808594 286.199219 193.589844 C 282.246094 196.925781 278.265625 199.566406 274.003906 201.78125 C 273.695312 201.222656 273.125 200.828125 272.273438 200.914062 C 271.335938 201.027344 270.421875 201.273438 269.46875 201.382812 C 268.480469 201.46875 267.640625 200.851562 266.773438 200.519531 C 264.5 199.679688 262.808594 198.046875 261.128906 196.394531 C 259.226562 194.464844 256.246094 197.429688 258.152344 199.371094 C 260.042969 201.222656 261.980469 202.992188 264.390625 204.078125 C 265.121094 204.421875 265.875 204.71875 266.625 205.003906 C 265.539062 205.398438 264.441406 205.757812 263.289062 206.128906 C 259.757812 207.253906 256.582031 211.539062 252.960938 213.332031 C 251.984375 213.839844 251.789062 214.765625 252.035156 215.582031 C 250.8125 216.421875 249.664062 217.371094 248.402344 218.136719 C 245.621094 219.84375 242.730469 222.871094 243.0625 226.378906 C 243.324219 229.070312 247.523438 229.097656 247.277344 226.378906 C 247.054688 224.105469 249.378906 222.472656 251.09375 221.410156 C 252.070312 220.832031 253.058594 220.199219 253.949219 219.507812 C 254.742188 218.867188 255.765625 217.851562 256.839844 217.742188 C 258.375 217.570312 259.027344 216.113281 258.804688 214.960938 C 263.601562 212.21875 268.171875 209.09375 273.359375 206.882812 C 284.667969 202.0625 291.84375 192.945312 301.382812 185.65625 C 308.453125 180.269531 310.167969 171.238281 315.714844 164.8125 C 324.636719 154.546875 336.363281 146.75 349.039062 142.402344 C 358.121094 139.289062 356.21875 151.210938 354.144531 155.894531 C 351.957031 160.808594 347.855469 163.996094 345.050781 168.457031 C 337.253906 180.886719 328.34375 194.960938 318.460938 205.734375 C 314.617188 209.910156 310.527344 213.863281 306.734375 218.136719 C 301.210938 224.351562 294.425781 228.738281 287.582031 233.445312 C 278.304688 239.808594 267.132812 243.6875 258.125 250.273438 C 257.679688 250.582031 257.457031 251.003906 257.347656 251.421875 C 251.230469 256.054688 245.574219 261.40625 238.9375 265.222656 C 230.472656 270.128906 223.074219 276.835938 214.683594 281.542969 C 198.273438 290.75 179.394531 300.027344 161.441406 305.894531 C 153.980469 308.367188 148.589844 313.890625 141.214844 316.609375 C 138.804688 317.507812 137.546875 318.632812 135.667969 320.253906 C 132.304688 323.167969 127.054688 328.074219 124.273438 331.359375 C 113.699219 343.75 100.328125 306.179688 93.3125 304.289062 C 92.164062 303.980469 91.101562 304.660156 90.730469 305.746094 C 91.65625 302.941406 89.320312 301.917969 87.109375 298.347656 C 85.269531 295.40625 84.984375 292.6875 83.351562 289.820312 C 81.339844 286.3125 80.855469 280.035156 79.820312 275.824219 C 79.175781 273.214844 75.097656 274.316406 75.753906 276.949219 C 78.582031 288.253906 80.609375 301.941406 90.753906 309.539062 C 91.484375 310.070312 92.433594 309.789062 93.113281 309.316406 C 94.4375 311.222656 96.253906 315.347656 96.585938 315.964844 C 99.070312 320.226562 103.046875 323.957031 105.851562 328.023438 C 108.792969 332.347656 111.882812 334.535156 115.949219 336.351562 C 109.496094 339.6875 104.085938 342.578125 98.527344 347.964844 C 93.621094 352.757812 89.976562 357.550781 84.191406 361.652344 C 81.253906 363.753906 76.484375 365.890625 73.960938 368.414062 C 71.34375 371.019531 66.105469 376.691406 62.964844 376.515625 C 56.230469 376.183594 50.203125 373.550781 44.503906 370.179688 C 32.222656 362.851562 27.617188 350.878906 19.730469 339.859375 C 11.714844 328.667969 6.5 317.164062 6.5 303.175781 C 6.5 297.53125 6.328125 291.921875 6.300781 286.289062 C 6.253906 278.011719 8.328125 273.390625 16.484375 273.746094 C 22.535156 274.007812 30.59375 268.867188 34.632812 264.296875 C 38.453125 259.984375 42.960938 260.738281 47.261719 259.195312 C 47.089844 261.492188 47.285156 263.714844 47.707031 264.804688 C 52.414062 276.589844 60.46875 286.882812 73.035156 291.058594 C 75.605469 291.898438 76.707031 287.832031 74.160156 286.992188 C 68.957031 285.25 60.753906 279.925781 57.851562 275.355469 C 56.007812 272.351562 47.113281 257.117188 53.117188 255.523438 C 57.378906 254.375 58.839844 249.914062 62.484375 247.839844 C 64.757812 246.542969 65.992188 245.109375 67.09375 243.429688 C 67.167969 244.773438 67.253906 246.035156 67.289062 246.9375 C 67.535156 255.328125 76.570312 264.246094 81.4375 270.410156 C 83.128906 272.550781 86.070312 269.546875 84.414062 267.433594 C 79.261719 260.898438 71.664062 252.964844 71.40625 244.132812 C 71.378906 243.492188 71.492188 236.671875 71.910156 236.363281 C 72.75 235.769531 73.589844 235.347656 74.429688 234.902344 C 75.582031 236.027344 78.027344 235.519531 78.027344 233.382812 C 78.027344 233.382812 81.871094 214.011719 84.03125 204.496094 C 85.6875 197.234375 85.046875 190.621094 89.40625 183.964844 C 93.421875 177.886719 96.164062 171.460938 98.96875 164.789062 C 101.773438 158.140625 103.542969 150.949219 107.199219 144.699219 C 110.585938 138.867188 114.488281 133.519531 117.453125 127.402344 C 118.753906 124.796875 121.976562 126.785156 123.0625 124.597656 C 124.585938 121.644531 121.558594 117.246094 123.210938 115.21875 C 125.4375 112.5 127.980469 111.191406 128.03125 107.175781 C 128.15625 100.195312 131.167969 94.5 134.320312 88.472656 C 140.90625 75.820312 149.183594 61.351562 158.808594 50.738281 C 163.777344 45.277344 172.191406 49.652344 172.636719 56.347656 C 172.921875 60.203125 172.882812 64.046875 172.921875 67.875 C 173.007812 76.238281 168.953125 82.269531 166.46875 89.78125 C 162.34375 102.125 157.574219 114.269531 153.84375 126.722656 C 151.320312 135.136719 151.433594 139.96875 155.917969 147.503906 C 159.722656 153.929688 173.054688 151.183594 178.53125 148.738281 C 184.050781 146.304688 188.230469 143.414062 192.40625 139.066406 C 195.097656 136.261719 200.261719 132.972656 202.09375 129.75 C 202.226562 129.503906 203.882812 130.257812 205.058594 129.5625 C 209.359375 127.054688 211.308594 119.496094 213.730469 115.527344 C 220.824219 103.867188 229.300781 93.550781 235.859375 81.476562 C 239.53125 74.757812 243.125 67.714844 247.945312 61.710938 C 252.542969 55.988281 258.855469 51.664062 263.796875 46.140625 C 272.742188 36.109375 280.253906 26.089844 291.648438 18.542969 C 294.515625 16.664062 297.628906 15.316406 300.878906 14.367188 C 313.46875 10.695312 311.167969 21.878906 309.824219 26.351562 C 308.140625 31.898438 304.324219 36.976562 301.210938 41.792969 C 291.339844 57.136719 282.34375 72.878906 271.707031 87.742188 C 261.300781 102.296875 249.972656 115.925781 243.570312 132.777344 C 243.460938 132.617188 243.347656 132.503906 243.238281 132.308594 C 240.542969 127.957031 234.625 124.621094 229.832031 123.386719 C 227.1875 122.71875 226.0625 126.785156 228.707031 127.453125 C 234.738281 128.996094 237.960938 133.28125 241.941406 137.519531 C 242.445312 138.050781 243.261719 138.25 243.992188 138.050781 C 246.992188 137.273438 249.070312 139.125 252.292969 137.519531 C 254.964844 136.175781 257.0625 128.601562 259.101562 125.882812 C 264.835938 118.308594 270.582031 113.09375 277.957031 107.261719 C 284.578125 102.050781 289.347656 94.414062 296.21875 89.59375 C 308.847656 80.785156 318.832031 69.0625 331.484375 60.386719 C 337.167969 56.460938 341.996094 51.617188 348.027344 48.019531 C 351.535156 45.523438 355.402344 44.746094 359.667969 45.671875 C 366.4375 51.898438 367.683594 57.535156 363.460938 62.585938 C 360.765625 66.726562 357.652344 70.914062 353.96875 74.1875 C 344.667969 82.464844 334.363281 92.25 327.601562 102.777344 C 318.300781 117.246094 304.832031 126.722656 293.746094 139.597656 C 283.738281 151.210938 270.496094 157.808594 259.078125 167.878906 C 251.207031 174.832031 255.496094 183.382812 257.621094 191.882812 C 258.273438 194.515625 262.339844 193.390625 261.660156 190.757812 C 259.730469 183.050781 255.667969 175.671875 263.511719 169.78125 C 270.160156 164.789062 276.980469 160.019531 283.652344 155.078125 C 286.433594 153.878906 292.933594 154.078125 294.785156 151.320312 C 297.171875 147.703125 302.25 148.160156 304.472656 144.699219 C 311.847656 133.320312 325.984375 128.550781 333.917969 117.578125 C 338.378906 111.464844 343.121094 103.867188 349.570312 99.886719 C 351.449219 98.699219 353.277344 97.28125 355.007812 95.933594 " fill-opacity="1" fill-rule="nonzero"/><path fill="#000000" d="M 318.980469 186.050781 C 320.203125 188.460938 316.558594 190.585938 315.347656 188.175781 C 315.050781 187.582031 314.789062 186.941406 314.234375 186.609375 C 311.898438 185.199219 314 181.578125 316.359375 182.960938 C 317.59375 183.691406 318.324219 184.777344 318.980469 186.050781 " fill-opacity="1" fill-rule="nonzero"/><path fill="#000000" d="M 313.839844 191.203125 C 315.074219 193.589844 311.453125 195.726562 310.195312 193.304688 C 309.207031 191.402344 307.921875 189.632812 306.929688 187.695312 C 305.671875 185.324219 309.316406 183.183594 310.550781 185.59375 C 311.566406 187.507812 312.824219 189.277344 313.839844 191.203125 " fill-opacity="1" fill-rule="nonzero"/><path fill="#000000" d="M 304.695312 164.589844 C 305.140625 165.652344 304.214844 166.890625 303.226562 167.171875 C 302.027344 167.507812 301.074219 166.777344 300.617188 165.714844 C 299.839844 163.800781 298.691406 162.007812 296.921875 160.882812 C 294.648438 159.425781 296.761719 155.78125 299.046875 157.265625 C 301.828125 159.007812 303.460938 161.613281 304.695312 164.589844 " fill-opacity="1" fill-rule="nonzero"/><path fill="#000000" d="M 300.742188 201.027344 C 301.851562 203.460938 298.246094 205.597656 297.121094 203.125 C 296.921875 202.730469 296.789062 202.039062 296.503906 201.691406 C 294.761719 199.617188 297.738281 196.652344 299.46875 198.726562 C 300.085938 199.457031 300.347656 200.1875 300.742188 201.027344 " fill-opacity="1" fill-rule="nonzero"/><path fill="#000000" d="M 295.316406 204.472656 C 296.21875 205.140625 296.6875 206.265625 296.058594 207.328125 C 295.515625 208.253906 294.117188 208.796875 293.191406 208.09375 C 291.757812 207.054688 290.472656 206.105469 288.644531 206.042969 C 285.925781 205.992188 285.925781 201.78125 288.644531 201.839844 C 291.226562 201.914062 293.277344 202.929688 295.316406 204.472656 " fill-opacity="1" fill-rule="nonzero"/><path fill="#000000" d="M 294.476562 167.023438 C 294.648438 169.71875 290.449219 169.71875 290.277344 167.023438 C 290.226562 166.210938 289.546875 165.492188 289.152344 164.8125 C 287.867188 162.429688 291.511719 160.292969 292.796875 162.675781 C 293.585938 164.144531 294.367188 165.296875 294.476562 167.023438 " fill-opacity="1" fill-rule="nonzero"/><path fill="#000000" d="M 291.535156 214.148438 C 293.613281 215.890625 290.609375 218.867188 288.558594 217.125 C 286.148438 215.136719 284.640625 212.332031 282.46875 210.105469 C 280.601562 208.179688 283.566406 205.175781 285.445312 207.140625 C 287.605469 209.351562 289.125 212.15625 291.535156 214.148438 " fill-opacity="1" fill-rule="nonzero"/><path fill="#000000" d="M 272.519531 198.332031 C 272.71875 201.050781 268.515625 201.027344 268.320312 198.332031 C 268.222656 197.34375 267.246094 196.304688 266.578125 195.613281 C 264.6875 193.675781 267.664062 190.671875 269.542969 192.636719 C 271.0625 194.207031 272.347656 196.121094 272.519531 198.332031 " fill-opacity="1" fill-rule="nonzero"/><path fill="#000000" d="M 260.351562 240.882812 C 260.4375 243.601562 256.222656 243.578125 256.136719 240.882812 C 256.027344 236.449219 254.394531 232.234375 254.285156 227.785156 C 254.195312 225.054688 258.410156 225.09375 258.496094 227.785156 C 258.609375 232.210938 260.238281 236.421875 260.351562 240.882812 " fill-opacity="1" fill-rule="nonzero"/><path fill="#000000" d="M 256.839844 160.242188 C 259.558594 160.242188 259.558594 164.441406 256.839844 164.441406 C 247.328125 164.480469 239.617188 165.652344 232.152344 171.769531 C 230.078125 173.472656 227.074219 170.535156 229.175781 168.792969 C 237.542969 161.921875 246.066406 160.265625 256.839844 160.242188 " fill-opacity="1" fill-rule="nonzero"/><path fill="#000000" d="M 252.628906 233.382812 C 252.628906 236.1875 252.628906 241.808594 252.628906 241.808594 C 252.628906 244.613281 247.019531 244.613281 247.019531 241.808594 C 247.019531 239.003906 247.019531 236.1875 247.019531 233.382812 C 247.019531 230.589844 252.628906 230.589844 252.628906 233.382812 " fill-opacity="1" fill-rule="nonzero"/><path fill="#000000" d="M 248.253906 176.277344 C 249.179688 173.734375 253.246094 174.832031 252.320312 177.402344 C 249.933594 184.050781 243.59375 195.921875 250.835938 201.53125 C 253 203.1875 249.996094 206.128906 247.859375 204.496094 C 238.972656 197.601562 245.335938 184.445312 248.253906 176.277344 " fill-opacity="1" fill-rule="nonzero"/><path fill="#000000" d="M 250.046875 149.726562 C 250.195312 152.445312 245.980469 152.421875 245.84375 149.726562 C 245.757812 147.480469 244.101562 145.464844 243.59375 143.277344 C 242.976562 140.632812 247.019531 139.511719 247.636719 142.152344 C 248.253906 144.785156 249.933594 146.949219 250.046875 149.726562 " fill-opacity="1" fill-rule="nonzero"/><path fill="#000000" d="M 246.089844 153.707031 C 248.785156 153.53125 248.785156 157.746094 246.089844 157.90625 C 245.117188 157.96875 244.25 158.5 243.285156 158.671875 C 242.558594 158.785156 241.1875 158.609375 240.59375 159.007812 C 239.679688 159.6875 238.269531 159.179688 237.738281 158.253906 C 237.097656 157.214844 237.542969 156.066406 238.46875 155.386719 C 239.640625 154.519531 240.878906 154.941406 242.164062 154.609375 C 243.484375 154.273438 244.695312 153.792969 246.089844 153.707031 " fill-opacity="1" fill-rule="nonzero"/><path fill="#000000" d="M 240.0625 176.710938 C 241.644531 174.550781 245.277344 176.648438 243.683594 178.835938 C 242.976562 179.8125 242.164062 180.40625 240.988281 180.75 C 239.863281 181.085938 239.726562 181.578125 239.035156 182.566406 C 237.542969 184.617188 236.480469 186.964844 234.488281 188.597656 C 232.402344 190.3125 229.410156 187.359375 231.511719 185.632812 C 233.414062 184.050781 234.539062 181.664062 235.886719 179.625 C 236.390625 178.835938 237.207031 177.824219 238.011719 177.351562 C 238.40625 177.132812 238.9375 176.957031 239.394531 176.820312 C 239.617188 176.761719 240.347656 176.277344 240.0625 176.710938 " fill-opacity="1" fill-rule="nonzero"/><path fill="#000000" d="M 238.046875 187.980469 C 239.902344 185.988281 242.867188 188.96875 241.027344 190.957031 C 240.0625 191.996094 239.359375 193.167969 239.308594 194.601562 C 239.285156 195.75 238.914062 197.160156 239.480469 198.222656 C 240.742188 200.605469 237.121094 202.730469 235.859375 200.320312 C 233.785156 196.417969 235.179688 191.066406 238.046875 187.980469 " fill-opacity="1" fill-rule="nonzero"/><path fill="#000000" d="M 234.933594 212.6875 C 236.390625 210.441406 240.035156 212.554688 238.554688 214.828125 C 237.566406 216.332031 236.75 217.964844 235.75 219.507812 C 234.292969 221.746094 230.648438 219.644531 232.128906 217.371094 C 233.105469 215.863281 233.957031 214.234375 234.933594 212.6875 " fill-opacity="1" fill-rule="nonzero"/><path fill="#000000" d="M 237.207031 138.730469 C 239.925781 138.707031 239.925781 142.90625 237.207031 142.933594 C 234.488281 142.96875 231.980469 143.414062 229.804688 145.117188 C 227.695312 146.8125 224.691406 143.835938 226.828125 142.152344 C 229.941406 139.683594 233.277344 138.78125 237.207031 138.730469 " fill-opacity="1" fill-rule="nonzero"/><path fill="#000000" d="M 235.800781 133.121094 C 238.605469 133.121094 238.605469 137.324219 235.800781 137.324219 C 235.800781 137.324219 233.894531 137.386719 232.574219 137.296875 C 231.597656 137.25 231.203125 137.015625 230.300781 137.519531 C 227.953125 138.84375 225.109375 135.199219 227.496094 133.875 C 230.140625 132.417969 232.996094 133.121094 235.800781 133.121094 " fill-opacity="1" fill-rule="nonzero"/><path fill="#000000" d="M 219.835938 123.894531 C 221.132812 126.277344 217.511719 128.402344 216.226562 125.992188 C 215.769531 125.214844 215.238281 124.484375 214.820312 123.671875 C 213.535156 121.285156 217.152344 119.148438 218.4375 121.535156 C 218.882812 122.347656 219.425781 123.078125 219.835938 123.894531 " fill-opacity="1" fill-rule="nonzero"/><path fill="#000000" d="M 207.835938 131.332031 C 210.789062 132.308594 211.261719 135.222656 211.261719 138.027344 C 211.261719 140.832031 207.058594 140.832031 207.058594 138.027344 C 207.058594 138.027344 207.15625 135.53125 206.714844 135.394531 C 204.15625 134.542969 205.253906 130.476562 207.835938 131.332031 " fill-opacity="1" fill-rule="nonzero"/><path fill="#000000" d="M 205.652344 145.515625 C 205.761719 148.234375 201.546875 148.207031 201.4375 145.515625 C 201.386719 144.253906 200.96875 143.082031 200.574219 141.871094 C 199.730469 139.289062 203.796875 138.199219 204.636719 140.746094 C 205.167969 142.316406 205.589844 143.859375 205.652344 145.515625 " fill-opacity="1" fill-rule="nonzero"/><path fill="#000000" d="M 193.949219 141.785156 C 194.285156 139.125 198.496094 139.089844 198.164062 141.785156 C 197.546875 146.949219 195.742188 151.65625 193.679688 156.398438 C 192.578125 158.871094 188.957031 156.734375 190.058594 154.273438 C 191.789062 150.285156 193.417969 146.132812 193.949219 141.785156 " fill-opacity="1" fill-rule="nonzero"/><path fill="#000000" d="M 156.957031 98.195312 C 157.820312 100.777344 153.757812 101.902344 152.890625 99.320312 C 152.445312 97.921875 151.964844 96.515625 151.484375 95.117188 C 150.640625 92.535156 154.683594 91.4375 155.546875 93.992188 C 156.03125 95.390625 156.472656 96.796875 156.957031 98.195312 " fill-opacity="1" fill-rule="nonzero"/><path fill="#000000" d="M 152.828125 111.859375 C 152.867188 114.578125 148.652344 114.578125 148.628906 111.859375 C 148.566406 107.707031 147.75 103.890625 145.625 100.308594 C 144.242188 97.972656 147.863281 95.847656 149.269531 98.167969 C 151.765625 102.382812 152.742188 107.003906 152.828125 111.859375 " fill-opacity="1" fill-rule="nonzero"/><path fill="#000000" d="M 134.605469 120.273438 C 134.714844 121.421875 133.53125 122.375 132.503906 122.375 C 131.269531 122.375 130.503906 121.421875 130.390625 120.273438 C 130.34375 119.828125 128.734375 118.753906 128.15625 118.332031 C 125.929688 116.851562 128.03125 113.207031 130.28125 114.726562 C 132.332031 116.097656 134.320312 117.667969 134.605469 120.273438 " fill-opacity="1" fill-rule="nonzero"/><path fill="#000000" d="M 120.40625 324.464844 C 122.285156 326.429688 119.308594 329.394531 117.429688 327.429688 C 113.539062 323.316406 111.089844 318.460938 107.753906 313.914062 C 104.875 309.984375 102.542969 305.921875 100.996094 301.261719 C 100.15625 298.679688 104.222656 297.59375 105.0625 300.136719 C 106.519531 304.636719 109.015625 307.859375 111.398438 311.8125 C 114.09375 316.273438 116.8125 320.648438 120.40625 324.464844 " fill-opacity="1" fill-rule="nonzero"/><path fill="#000000" d="M 96.253906 294.171875 C 96.3125 296.863281 92.101562 296.863281 92.050781 294.171875 C 92 289.933594 91.1875 285.757812 91.125 281.542969 C 91.0625 278.824219 95.277344 278.824219 95.335938 281.542969 C 95.386719 285.757812 96.203125 289.933594 96.253906 294.171875 " fill-opacity="1" fill-rule="nonzero"/><path fill="#000000" d="M 86.800781 328.332031 C 89.097656 329.730469 86.996094 333.386719 84.675781 331.976562 C 63.71875 319.238281 50.84375 300.003906 43.492188 276.949219 C 42.675781 274.367188 46.753906 273.277344 47.558594 275.824219 C 54.574219 297.789062 66.832031 316.210938 86.800781 328.332031 " fill-opacity="1" fill-rule="nonzero"/><path fill="#000000" d="M 85.960938 353.992188 C 86.019531 356.550781 82.339844 356.664062 81.871094 354.414062 C 80.722656 353.042969 81.808594 350.375 83.96875 351.015625 C 85.402344 351.472656 85.933594 352.5625 85.960938 353.992188 " fill-opacity="1" fill-rule="nonzero"/><path fill="#000000" d="M 80.746094 358.121094 C 80.917969 359.246094 80.5 360.355469 79.289062 360.703125 C 78.273438 360.976562 76.839844 360.355469 76.707031 359.246094 C 76.59375 358.503906 75.496094 357.503906 75.023438 356.996094 C 74.160156 356.132812 73.308594 355.203125 72.691406 354.128906 C 71.378906 351.746094 75 349.621094 76.347656 352.003906 C 76.988281 353.179688 78.078125 354.214844 78.953125 355.230469 C 79.707031 356.070312 80.574219 356.933594 80.746094 358.121094 " fill-opacity="1" fill-rule="nonzero"/><path fill="#000000" d="M 73.195312 359.046875 C 75.097656 360.976562 72.132812 363.953125 70.230469 362.011719 C 68.070312 359.824219 66.078125 357.453125 63.695312 355.488281 C 62.792969 354.746094 62.929688 353.265625 63.695312 352.511719 C 64.558594 351.632812 65.757812 351.78125 66.660156 352.511719 C 69.042969 354.476562 71.046875 356.859375 73.195312 359.046875 " fill-opacity="1" fill-rule="nonzero"/><path fill="#000000" d="M 71.183594 327.691406 C 72.554688 330.039062 68.933594 332.148438 67.5625 329.816406 C 65.734375 326.703125 63.496094 323.898438 61.46875 320.933594 C 59.964844 318.683594 63.609375 316.582031 65.128906 318.820312 C 67.140625 321.796875 69.390625 324.578125 71.183594 327.691406 " fill-opacity="1" fill-rule="nonzero"/><path fill="#000000" d="M 67.167969 363.867188 C 69.390625 365.410156 67.289062 369.054688 65.027344 367.484375 C 61.953125 365.324219 59.964844 362.125 57.121094 359.691406 C 55.082031 357.921875 58.046875 354.945312 60.097656 356.710938 C 62.65625 358.898438 64.421875 361.925781 67.167969 363.867188 " fill-opacity="1" fill-rule="nonzero"/><path fill="#000000" d="M 64.867188 337.078125 C 65.375 339.722656 61.335938 340.847656 60.804688 338.203125 C 60.296875 335.648438 58.726562 333.632812 57.121094 331.644531 C 56.429688 330.742188 56.257812 329.542969 57.121094 328.667969 C 57.886719 327.914062 59.394531 327.765625 60.097656 328.667969 C 62.148438 331.222656 64.226562 333.804688 64.867188 337.078125 " fill-opacity="1" fill-rule="nonzero"/><path fill="#000000" d="M 59.652344 370.203125 C 62.175781 371.128906 61.074219 375.195312 58.53125 374.242188 C 49.273438 370.882812 44.976562 363.050781 38.453125 356.402344 C 32.605469 350.523438 28.011719 342.664062 24.082031 335.425781 C 22.796875 333.039062 26.417969 330.914062 27.703125 333.300781 C 31.632812 340.476562 36.3125 347.101562 41.417969 353.4375 C 46.46875 359.777344 51.734375 367.3125 59.652344 370.203125 " fill-opacity="1" fill-rule="nonzero"/><path fill="#000000" d="M 38.761719 267.519531 C 38.808594 270.746094 39.453125 274.785156 38.214844 277.898438 C 37.019531 280.816406 35.410156 283.65625 33.792969 286.335938 C 32.382812 288.671875 28.765625 286.535156 30.171875 284.210938 C 31.433594 282.074219 33.59375 279.195312 34.152344 276.789062 C 34.878906 273.699219 34.609375 270.632812 34.546875 267.519531 C 34.523438 264.804688 38.722656 264.804688 38.761719 267.519531 " fill-opacity="1" fill-rule="nonzero"/><path fill="#000000" d="M 19.992188 316.496094 C 20.632812 319.128906 16.570312 320.253906 15.925781 317.621094 C 14.359375 311.394531 12.863281 305.785156 11.910156 299.445312 C 11.070312 293.6875 11.886719 287.722656 12.589844 282 C 12.886719 279.355469 17.125 279.332031 16.792969 282 C 15.976562 288.425781 16.308594 294.332031 16.308594 300.707031 C 16.308594 306.230469 18.667969 311.246094 19.992188 316.496094 " fill-opacity="1" fill-rule="nonzero"/><path fill="#808080" d="M 55.589844 257.699219 C 56.082031 262.121094 62.382812 261.589844 65.546875 262.53125 C 68.15625 263.308594 69.265625 259.242188 66.660156 258.476562 C 65.425781 258.105469 64.089844 258.007812 62.816406 257.773438 C 62.015625 257.625 61.210938 257.453125 60.421875 257.214844 C 60.246094 257.167969 59.988281 257.09375 59.816406 257.019531 C 59.035156 256.671875 59.679688 256.660156 59.789062 257.699219 C 59.492188 255.03125 55.28125 255.003906 55.589844 257.699219 " fill-opacity="1" fill-rule="nonzero"/><path fill="#808080" d="M 59.085938 268.683594 C 60.964844 268.71875 62.78125 269.175781 64.609375 269.546875 C 67.265625 270.078125 68.390625 266.027344 65.734375 265.480469 C 63.535156 265.039062 61.335938 264.519531 59.085938 264.480469 C 56.378906 264.417969 56.390625 268.632812 59.085938 268.683594 " fill-opacity="1" fill-rule="nonzero"/><path fill="#808080" d="M 64.707031 275.230469 C 65.140625 275.230469 65.621094 275.144531 65.980469 275.402344 C 66.90625 276.082031 68.328125 275.5625 68.859375 274.648438 C 69.476562 273.585938 69.03125 272.449219 68.105469 271.769531 C 67.117188 271.066406 65.882812 271.03125 64.707031 271.015625 C 61.988281 271.003906 61.988281 275.21875 64.707031 275.230469 " fill-opacity="1" fill-rule="nonzero"/><path fill="#808080" d="M 62.707031 297.839844 C 64.027344 298.839844 64.4375 300.570312 65.546875 301.71875 C 67.019531 303.226562 68.304688 304.894531 69.761719 306.402344 C 71.652344 308.355469 74.628906 305.375 72.726562 303.425781 C 71.355469 302.003906 69.664062 300.410156 68.574219 298.742188 C 67.476562 297.039062 66.472656 295.457031 64.832031 294.21875 C 62.65625 292.578125 60.570312 296.234375 62.707031 297.839844 " fill-opacity="1" fill-rule="nonzero"/><path fill="#808080" d="M 75.222656 310.515625 C 75.347656 311.777344 75.988281 312.679688 77.222656 313.011719 C 79.855469 313.730469 80.96875 309.664062 78.347656 308.960938 C 78.707031 309.480469 79.066406 309.996094 79.421875 310.515625 C 79.324219 309.378906 78.558594 308.417969 77.324219 308.417969 C 76.261719 308.417969 75.097656 309.378906 75.222656 310.515625 " fill-opacity="1" fill-rule="nonzero"/><path fill="#808080" d="M 20.992188 296.492188 C 21.3125 301.546875 23.882812 306.144531 24.8125 311.085938 C 25.304688 313.742188 29.359375 312.617188 28.875 309.960938 C 28.023438 305.4375 25.488281 301.089844 25.195312 296.492188 C 25.019531 293.800781 20.820312 293.789062 20.992188 296.492188 " fill-opacity="1" fill-rule="nonzero"/><path fill="#808080" d="M 30.160156 323.265625 C 32.878906 329.125 36.871094 334.273438 40.453125 339.625 C 43.589844 344.34375 47.828125 347.941406 51.523438 352.203125 C 53.304688 354.265625 56.269531 351.277344 54.5 349.238281 C 50.660156 344.789062 46.421875 341.019531 43.148438 336.105469 C 39.871094 331.210938 36.277344 326.503906 33.792969 321.140625 C 32.65625 318.683594 29.035156 320.820312 30.160156 323.265625 " fill-opacity="1" fill-rule="nonzero"/><path fill="#808080" d="M 53.785156 342.875 C 54.367188 344.640625 54.871094 346.445312 55.875 348.050781 C 57.304688 350.335938 60.953125 348.222656 59.503906 345.925781 C 58.691406 344.628906 58.320312 343.183594 57.851562 341.75 C 57.011719 339.179688 52.945312 340.28125 53.785156 342.875 " fill-opacity="1" fill-rule="nonzero"/><path fill="#808080" d="M 112.449219 299.902344 C 115.921875 306.105469 119.777344 313.382812 125.832031 317.484375 C 128.082031 319.003906 130.179688 315.359375 127.957031 313.851562 C 125.300781 312.0625 123.769531 309.195312 121.617188 306.898438 C 119.222656 304.339844 117.777344 300.804688 116.082031 297.777344 C 114.761719 295.40625 111.117188 297.53125 112.449219 299.902344 " fill-opacity="1" fill-rule="nonzero"/><path fill="#808080" d="M 124.855469 304.066406 C 125.472656 306.675781 127.226562 308.578125 128.808594 310.652344 C 129.5 311.554688 130.613281 312.035156 131.6875 311.40625 C 132.589844 310.875 133.148438 309.441406 132.441406 308.527344 C 131.121094 306.796875 129.425781 305.128906 128.921875 302.957031 C 128.289062 300.3125 124.238281 301.4375 124.855469 304.066406 " fill-opacity="1" fill-rule="nonzero"/><path fill="#808080" d="M 144.527344 297.851562 C 146.921875 299.261719 149.480469 300.3125 152.050781 301.335938 C 153.113281 301.757812 154.347656 300.878906 154.632812 299.867188 C 154.953125 298.667969 154.226562 297.703125 153.164062 297.285156 C 150.925781 296.382812 148.726562 295.441406 146.652344 294.21875 C 144.304688 292.835938 142.191406 296.480469 144.527344 297.851562 " fill-opacity="1" fill-rule="nonzero"/><path fill="#808080" d="M 151.570312 292.453125 C 155.894531 294.183594 160.15625 295.53125 164.667969 296.652344 C 167.296875 297.320312 168.410156 293.257812 165.777344 292.601562 C 161.269531 291.476562 157.003906 290.117188 152.695312 288.402344 C 150.171875 287.386719 149.085938 291.464844 151.570312 292.453125 " fill-opacity="1" fill-rule="nonzero"/><path fill="#808080" d="M 154.804688 283.359375 C 162.738281 287.054688 171.398438 289.597656 180.183594 290.660156 C 182.878906 290.984375 182.84375 286.769531 180.183594 286.449219 C 172.253906 285.496094 164.097656 283.0625 156.929688 279.726562 C 154.496094 278.589844 152.359375 282.210938 154.804688 283.359375 " fill-opacity="1" fill-rule="nonzero"/><path fill="#808080" d="M 166.964844 275.414062 C 171.042969 278.023438 175.515625 278.851562 180.199219 279.800781 C 184.804688 280.753906 189.613281 282.1875 194.121094 283.570312 C 196.71875 284.375 197.816406 280.308594 195.234375 279.519531 C 191.183594 278.269531 187.09375 277.269531 183.003906 276.132812 C 178.171875 274.796875 173.4375 274.5625 169.089844 271.785156 C 166.792969 270.3125 164.691406 273.957031 166.964844 275.414062 " fill-opacity="1" fill-rule="nonzero"/><path fill="#808080" d="M 189.070312 271.957031 C 198.039062 272.265625 206.304688 276.355469 215.238281 277.097656 C 217.957031 277.332031 217.933594 273.117188 215.238281 272.894531 C 206.304688 272.152344 198.089844 268.066406 189.070312 267.753906 C 186.351562 267.667969 186.363281 271.871094 189.070312 271.957031 " fill-opacity="1" fill-rule="nonzero"/><path fill="#808080" d="M 203.933594 265.347656 C 209.257812 266.742188 214.71875 266.964844 219.785156 269.335938 C 222.230469 270.472656 224.371094 266.855469 221.910156 265.703125 C 216.449219 263.148438 210.777344 262.789062 205.058594 261.28125 C 202.425781 260.589844 201.3125 264.65625 203.933594 265.347656 " fill-opacity="1" fill-rule="nonzero"/><path fill="#808080" d="M 215.238281 258.871094 C 219.933594 258.957031 223.441406 261.640625 227.78125 263 C 230.375 263.8125 231.472656 259.761719 228.890625 258.945312 C 226.644531 258.242188 224.371094 257.03125 222.21875 256.019531 C 220.03125 254.992188 217.636719 254.707031 215.238281 254.660156 C 212.53125 254.609375 212.53125 258.824219 215.238281 258.871094 " fill-opacity="1" fill-rule="nonzero"/><path fill="#808080" d="M 226.457031 253.734375 C 230.25 253.855469 233.511719 255.015625 237.121094 255.992188 C 239.742188 256.699219 240.863281 252.644531 238.246094 251.941406 C 236.40625 251.445312 234.625 250.78125 232.808594 250.234375 C 230.894531 249.667969 228.472656 249.59375 226.457031 249.519531 C 223.753906 249.433594 223.753906 253.644531 226.457031 253.734375 " fill-opacity="1" fill-rule="nonzero"/><path fill="#808080" d="M 236.195312 249.445312 C 237.257812 249.839844 238.183594 250.472656 239 251.238281 C 240.964844 253.113281 243.941406 250.136719 241.976562 248.273438 C 240.617188 246.972656 239.074219 246.035156 237.304688 245.394531 C 234.761719 244.453125 233.660156 248.519531 236.195312 249.445312 " fill-opacity="1" fill-rule="nonzero"/><path fill="#808080" d="M 235.726562 120.890625 C 237.453125 121.335938 239.160156 121.855469 240.953125 121.902344 C 243.667969 121.992188 243.65625 117.777344 240.953125 117.703125 C 239.554688 117.652344 238.195312 117.183594 236.847656 116.839844 C 234.21875 116.171875 233.09375 120.222656 235.726562 120.890625 " fill-opacity="1" fill-rule="nonzero"/><path fill="#808080" d="M 238.617188 114.898438 C 240.347656 114.9375 242 115.34375 243.667969 115.75 C 246.300781 116.40625 247.425781 112.351562 244.792969 111.699219 C 242.753906 111.191406 240.714844 110.734375 238.617188 110.683594 C 235.910156 110.625 235.910156 114.835938 238.617188 114.898438 " fill-opacity="1" fill-rule="nonzero"/><path fill="#808080" d="M 243.300781 106.484375 C 245.484375 106.507812 247.609375 106.917969 249.75 107.335938 C 252.394531 107.867188 253.53125 103.816406 250.875 103.285156 C 248.363281 102.777344 245.855469 102.308594 243.300781 102.273438 C 240.582031 102.234375 240.582031 106.433594 243.300781 106.484375 " fill-opacity="1" fill-rule="nonzero"/><path fill="#808080" d="M 249.824219 101.566406 C 249.824219 101.566406 252.628906 101.566406 255.445312 101.566406 C 258.25 101.566406 258.25 95.957031 255.445312 95.957031 C 252.628906 95.957031 249.824219 95.957031 249.824219 95.957031 C 247.019531 95.957031 247.019531 101.566406 249.824219 101.566406 C 249.824219 101.566406 247.019531 101.566406 249.824219 101.566406 " fill-opacity="1" fill-rule="nonzero"/><path fill="#808080" d="M 256.851562 91.523438 C 257.484375 91.523438 258.101562 91.523438 258.71875 91.523438 C 261.4375 91.523438 261.4375 87.308594 258.71875 87.308594 C 258.101562 87.308594 257.484375 87.308594 256.851562 87.308594 C 254.136719 87.308594 254.136719 91.523438 256.851562 91.523438 " fill-opacity="1" fill-rule="nonzero"/><path fill="#808080" d="M 268.492188 80.664062 C 269.765625 78.585938 271.71875 77.191406 273.25 75.335938 C 274.65625 73.644531 276.328125 71.953125 277.921875 70.421875 C 281.269531 67.234375 283.503906 63.648438 284.59375 59.128906 C 285.222656 56.484375 281.167969 55.371094 280.539062 58.003906 C 278.363281 67.046875 269.480469 71.074219 264.859375 78.539062 C 263.425781 80.859375 267.058594 82.960938 268.492188 80.664062 " fill-opacity="1" fill-rule="nonzero"/><path fill="#808080" d="M 292.328125 45.597656 C 292.847656 44.574219 293.277344 43.410156 294.019531 42.523438 C 294.664062 41.746094 295.144531 40.890625 295.601562 39.988281 C 296.8125 37.582031 293.191406 35.441406 291.96875 37.863281 C 291.535156 38.730469 291.089844 39.53125 290.425781 40.25 C 289.644531 41.089844 289.199219 42.460938 288.695312 43.484375 C 287.484375 45.894531 291.117188 48.03125 292.328125 45.597656 " fill-opacity="1" fill-rule="nonzero"/><path fill="#808080" d="M 259.1875 152.753906 C 260.003906 152.816406 260.78125 153.335938 261.5 153.679688 C 262.5625 154.210938 263.613281 154.546875 264.796875 154.632812 C 267.515625 154.804688 267.492188 150.59375 264.796875 150.417969 C 263.996094 150.371094 263.203125 149.851562 262.488281 149.492188 C 261.425781 148.972656 260.386719 148.628906 259.1875 148.554688 C 256.484375 148.378906 256.496094 152.582031 259.1875 152.753906 " fill-opacity="1" fill-rule="nonzero"/><path fill="#808080" d="M 269.480469 145.75 C 269.605469 145.761719 269.800781 146.019531 269.863281 146.070312 C 271.792969 147.960938 274.769531 144.996094 272.828125 143.09375 C 271.851562 142.117188 270.863281 141.660156 269.480469 141.535156 C 266.773438 141.300781 266.789062 145.515625 269.480469 145.75 " fill-opacity="1" fill-rule="nonzero"/><path fill="#808080" d="M 275.894531 141.253906 C 276.734375 141.871094 277.796875 141.992188 278.820312 142.003906 C 281.539062 142.03125 281.539062 137.816406 278.820312 137.804688 C 278.476562 137.792969 278.277344 137.816406 278.019531 137.621094 C 277.09375 136.941406 275.671875 137.457031 275.140625 138.375 C 274.511719 139.449219 274.96875 140.574219 275.894531 141.253906 " fill-opacity="1" fill-rule="nonzero"/><path fill="#808080" d="M 290.460938 132.085938 C 293.082031 128.574219 297.664062 126.746094 300.234375 123.039062 C 303.335938 118.59375 305.820312 114.589844 310.28125 111.339844 C 312.441406 109.757812 310.34375 106.101562 308.15625 107.707031 C 303.964844 110.757812 300.570312 114.15625 298.046875 118.742188 C 295.402344 123.558594 290.015625 125.671875 286.816406 129.960938 C 285.199219 132.132812 288.855469 134.234375 290.460938 132.085938 " fill-opacity="1" fill-rule="nonzero"/><path fill="#808080" d="M 317.707031 103.0625 C 318.027344 102.742188 318.335938 102.433594 318.644531 102.125 C 320.574219 100.207031 317.59375 97.230469 315.679688 99.144531 C 315.359375 99.453125 315.050781 99.777344 314.742188 100.085938 C 312.8125 102.011719 315.789062 104.976562 317.707031 103.0625 " fill-opacity="1" fill-rule="nonzero"/><path fill="#808080" d="M 269.0625 188.175781 C 269.800781 189.917969 271.507812 190.523438 273.089844 191.265625 C 275.535156 192.414062 277.671875 188.78125 275.214844 187.632812 C 274.335938 187.238281 273.101562 186.992188 272.695312 186.050781 C 272.238281 185 270.714844 184.765625 269.816406 185.296875 C 268.738281 185.929688 268.605469 187.125 269.0625 188.175781 " fill-opacity="1" fill-rule="nonzero"/><path fill="#808080" d="M 273.558594 183.320312 C 275.015625 184.335938 276.300781 185.582031 277.757812 186.59375 C 279.996094 188.152344 282.097656 184.496094 279.882812 182.960938 C 278.425781 181.949219 277.140625 180.703125 275.683594 179.6875 C 273.449219 178.132812 271.347656 181.789062 273.558594 183.320312 " fill-opacity="1" fill-rule="nonzero"/><path fill="#808080" d="M 280.5625 179.578125 C 281.195312 179.898438 281.949219 180.183594 282.480469 180.652344 C 284.53125 182.417969 287.519531 179.453125 285.457031 177.675781 C 284.605469 176.957031 283.679688 176.453125 282.6875 175.945312 C 280.269531 174.734375 278.140625 178.367188 280.5625 179.578125 " fill-opacity="1" fill-rule="nonzero"/><path fill="#808080" d="M 314.359375 148.085938 C 315.605469 148.160156 316.839844 148.984375 318.003906 149.40625 C 320.558594 150.332031 321.648438 146.269531 319.113281 145.355469 C 317.507812 144.761719 316.113281 143.984375 314.359375 143.871094 C 311.640625 143.699219 311.664062 147.910156 314.359375 148.085938 " fill-opacity="1" fill-rule="nonzero"/><path fill="#808080" d="M 321.832031 142.476562 C 322.609375 142.535156 323.363281 142.871094 324.167969 142.945312 C 326.875 143.15625 326.863281 138.941406 324.167969 138.730469 C 323.390625 138.667969 322.648438 138.324219 321.832031 138.261719 C 319.125 138.050781 319.152344 142.253906 321.832031 142.476562 " fill-opacity="1" fill-rule="nonzero"/><path fill="#808080" d="M 344.359375 133.445312 C 345.285156 132.457031 346.234375 131.320312 347.027344 130.207031 C 347.792969 129.144531 348.929688 128.414062 350.003906 127.699219 C 352.253906 126.191406 350.152344 122.546875 347.878906 124.066406 C 346.59375 124.917969 345.332031 125.796875 344.285156 126.945312 C 343.246094 128.058594 342.429688 129.367188 341.378906 130.464844 C 339.527344 132.441406 342.492188 135.421875 344.359375 133.445312 " fill-opacity="1" fill-rule="nonzero"/><path fill="#808080" d="M 364.324219 113.378906 C 366.265625 110.464844 368.179688 107.535156 369.933594 104.496094 C 371.292969 102.148438 367.660156 100.035156 366.300781 102.382812 C 364.546875 105.410156 362.632812 108.339844 360.691406 111.253906 C 359.183594 113.527344 362.828125 115.628906 364.324219 113.378906 " fill-opacity="1" fill-rule="nonzero"/><path fill="#808080" d="M 267.046875 228.332031 C 267.851562 229.132812 268.679688 229.875 269.578125 230.566406 C 270.199219 231.035156 271.160156 231.136719 271.730469 231.605469 C 273.78125 233.347656 276.785156 230.382812 274.695312 228.628906 C 273.980469 228.023438 273.25 227.761719 272.410156 227.367188 C 271.46875 226.933594 270.742188 226.070312 270.023438 225.351562 C 268.109375 223.4375 265.132812 226.414062 267.046875 228.332031 " fill-opacity="1" fill-rule="nonzero"/><path fill="#808080" d="M 274.992188 224.660156 C 277.066406 225.304688 278.464844 227.28125 280.613281 227.933594 C 283.207031 228.738281 284.308594 224.671875 281.726562 223.882812 C 279.648438 223.253906 278.253906 221.261719 276.117188 220.609375 C 273.507812 219.816406 272.410156 223.871094 274.992188 224.660156 " fill-opacity="1" fill-rule="nonzero"/><path fill="#808080" d="M 286.777344 224.277344 C 289.484375 224.277344 289.484375 220.066406 286.777344 220.066406 C 284.0625 220.066406 284.0625 224.277344 286.777344 224.277344 " fill-opacity="1" fill-rule="nonzero"/><path fill="#808080" d="M 332.273438 177.847656 C 332.78125 176.511719 333.621094 175.328125 334.410156 174.140625 C 335.164062 173.003906 335.535156 171.582031 336.277344 170.410156 C 337.722656 168.113281 334.078125 166 332.644531 168.285156 C 331.890625 169.484375 331.371094 170.757812 330.765625 172.027344 C 329.988281 173.660156 328.863281 175.007812 328.222656 176.734375 C 327.269531 179.28125 331.347656 180.367188 332.273438 177.847656 " fill-opacity="1" fill-rule="nonzero"/><path fill="#808080" d="M 342.023438 161.488281 C 342.367188 161.042969 342.617188 160.511719 342.960938 160.082031 C 343.664062 159.191406 343.839844 157.992188 342.960938 157.105469 C 342.21875 156.363281 340.699219 156.214844 339.984375 157.105469 C 339.625 157.546875 339.390625 158.078125 339.042969 158.511719 C 338.328125 159.414062 338.167969 160.613281 339.042969 161.488281 C 339.785156 162.230469 341.304688 162.390625 342.023438 161.488281 " fill-opacity="1" fill-rule="nonzero"/><path fill="#808080" d="M 131.441406 145.921875 C 134.753906 147.378906 137.941406 149.148438 141.253906 150.59375 C 143.710938 151.667969 145.859375 148.046875 143.390625 146.960938 C 140.054688 145.515625 136.890625 143.746094 133.566406 142.289062 C 131.109375 141.214844 128.957031 144.835938 131.441406 145.921875 " fill-opacity="1" fill-rule="nonzero"/><path fill="#808080" d="M 133.8125 138.65625 C 137.148438 139.71875 139.792969 142.253906 143.167969 143.328125 C 145.761719 144.15625 146.847656 140.089844 144.277344 139.273438 C 140.929688 138.210938 138.300781 135.667969 134.925781 134.59375 C 132.34375 133.765625 131.230469 137.828125 133.8125 138.65625 " fill-opacity="1" fill-rule="nonzero"/><path fill="#808080" d="M 140.3125 130.960938 C 141.820312 131.800781 142.871094 132.898438 144.648438 133.121094 C 145.800781 133.257812 146.761719 132.058594 146.761719 131.007812 C 146.761719 129.761719 145.800781 129.058594 144.648438 128.910156 C 145.15625 128.972656 144.09375 128.441406 143.921875 128.328125 C 143.425781 127.984375 142.96875 127.625 142.449219 127.328125 C 140.078125 126.003906 137.953125 129.636719 140.3125 130.960938 " fill-opacity="1" fill-rule="nonzero"/><path fill="#ffffff" d="M 287.324219 32.933594 C 289.570312 30.761719 292.390625 29.289062 294.808594 27.324219 C 296.910156 25.609375 293.910156 22.65625 291.832031 24.347656 C 289.398438 26.324219 286.605469 27.769531 284.34375 29.957031 C 282.394531 31.847656 285.371094 34.824219 287.324219 32.933594 " fill-opacity="1" fill-rule="nonzero"/><path fill="#ffffff" d="M 300.878906 23.582031 C 300.703125 23.632812 300.519531 23.679688 300.332031 23.730469 C 303.039062 23.667969 303.039062 19.457031 300.332031 19.53125 C 299.308594 19.554688 298.628906 19.898438 297.898438 20.605469 C 295.972656 22.507812 298.949219 25.484375 300.878906 23.582031 " fill-opacity="1" fill-rule="nonzero"/><path fill="#ffffff" d="M 328.9375 74.609375 C 332.496094 73.78125 334.1875 69.40625 337.042969 67.394531 C 338.910156 66.058594 340.785156 64.871094 342.492188 63.316406 C 344.628906 61.363281 345.703125 58.421875 348.570312 57.3125 C 351.078125 56.347656 349.992188 52.28125 347.457031 53.257812 C 343.40625 54.816406 341.664062 58.375 338.601562 61.179688 C 336.769531 62.847656 334.4375 64.046875 332.484375 65.589844 C 330.902344 66.824219 329.789062 70.097656 327.824219 70.554688 C 325.179688 71.160156 326.292969 75.226562 328.9375 74.609375 " fill-opacity="1" fill-rule="nonzero"/><path fill="#ffffff" d="M 355.503906 54.125 C 356.921875 54.085938 358.023438 53.554688 358.457031 52.097656 C 359.234375 49.503906 355.167969 48.390625 354.402344 50.984375 C 354.367188 51.085938 354.339844 51.171875 354.316406 51.257812 C 354.636719 50.835938 354.972656 50.417969 355.28125 49.996094 C 355.355469 49.972656 355.429688 49.9375 355.503906 49.910156 C 352.785156 49.972656 352.773438 54.171875 355.503906 54.125 " fill-opacity="1" fill-rule="nonzero"/><path fill="#ffffff" d="M 342.960938 117.542969 C 344.640625 115.789062 345.925781 113.675781 347.027344 111.511719 C 348.25 109.089844 344.617188 106.964844 343.394531 109.386719 C 342.453125 111.230469 341.417969 113.070312 339.984375 114.566406 C 338.105469 116.53125 341.070312 119.507812 342.960938 117.542969 " fill-opacity="1" fill-rule="nonzero"/><path fill="#ffffff" d="M 351.84375 105.929688 C 352.339844 105.828125 352.757812 105.570312 353.253906 105.460938 C 355.910156 104.914062 354.773438 100.863281 352.128906 101.40625 C 351.636719 101.503906 351.214844 101.777344 350.734375 101.875 C 348.078125 102.433594 349.199219 106.484375 351.84375 105.929688 " fill-opacity="1" fill-rule="nonzero"/><path fill="#ffffff" d="M 320.089844 172.558594 C 322.375 170.867188 323.625 167.925781 324.328125 165.234375 C 325.019531 162.601562 320.96875 161.488281 320.277344 164.109375 C 319.894531 165.554688 319.214844 168 317.964844 168.925781 C 317.050781 169.621094 316.582031 170.730469 317.210938 171.804688 C 317.742188 172.71875 319.175781 173.25 320.089844 172.558594 " fill-opacity="1" fill-rule="nonzero"/><path fill="#ffffff" d="M 202.078125 159.140625 C 203.984375 161.042969 205.921875 162.960938 207.355469 165.257812 C 208.789062 167.554688 212.421875 165.441406 210.988281 163.132812 C 209.371094 160.527344 207.207031 158.328125 205.046875 156.164062 C 203.128906 154.25 200.152344 157.226562 202.078125 159.140625 " fill-opacity="1" fill-rule="nonzero"/><path fill="#ffffff" d="M 207.824219 153.101562 C 209.234375 155.398438 211.074219 157.363281 212.496094 159.648438 C 213.917969 161.960938 217.5625 159.847656 216.128906 157.523438 C 214.707031 155.238281 212.867188 153.273438 211.445312 150.988281 C 210.035156 148.675781 206.390625 150.789062 207.824219 153.101562 " fill-opacity="1" fill-rule="nonzero"/><path fill="#ffffff" d="M 219.453125 151.347656 C 222.171875 151.347656 222.171875 147.132812 219.453125 147.132812 C 216.746094 147.132812 216.746094 151.347656 219.453125 151.347656 " fill-opacity="1" fill-rule="nonzero"/><path fill="#ffffff" d="M 155.484375 72.65625 C 158.007812 70.53125 159.007812 67.308594 160.960938 64.75 C 161.664062 63.847656 161.109375 62.402344 160.21875 61.882812 C 159.132812 61.242188 158.03125 61.722656 157.328125 62.636719 C 155.597656 64.898438 154.730469 67.8125 152.519531 69.691406 C 150.457031 71.445312 153.449219 74.410156 155.484375 72.65625 " fill-opacity="1" fill-rule="nonzero"/><path fill="#ffffff" d="M 167.101562 56.917969 C 169.804688 56.917969 169.804688 52.714844 167.101562 52.714844 C 164.382812 52.714844 164.382812 56.917969 167.101562 56.917969 " fill-opacity="1" fill-rule="nonzero"/><path fill="#ffffff" d="M 91.125 226.09375 C 91.125 226.09375 96.460938 196.777344 101.332031 184.023438 C 102.304688 181.480469 98.242188 180.910156 97.277344 183.417969 C 92.238281 196.613281 86.921875 212.070312 86.921875 226.09375 C 86.921875 228.898438 91.125 228.898438 91.125 226.09375 C 91.125 226.09375 91.125 228.898438 91.125 226.09375 " fill-opacity="1" fill-rule="nonzero"/><path fill="#ffffff" d="M 112.5625 163.355469 C 113.414062 161.191406 114.132812 158.945312 115.144531 156.84375 C 116.332031 154.421875 112.699219 152.285156 111.511719 154.71875 C 110.335938 157.152344 109.496094 159.734375 108.496094 162.242188 C 108.078125 163.304688 108.953125 164.542969 109.96875 164.824219 C 111.164062 165.160156 112.140625 164.417969 112.5625 163.355469 " fill-opacity="1" fill-rule="nonzero"/><path fill="#ffffff" d="M 79.125 244.21875 C 81.488281 247.160156 82.019531 251.050781 83.253906 254.511719 C 84.15625 257.042969 88.234375 255.957031 87.304688 253.386719 C 85.785156 249.136719 84.996094 244.863281 82.09375 241.242188 C 80.398438 239.128906 77.433594 242.132812 79.125 244.21875 " fill-opacity="1" fill-rule="nonzero"/><path fill="#ffffff" d="M 88.9375 265.261719 C 89.445312 265.839844 89.828125 266.53125 90.332031 267.125 C 92.136719 269.175781 95.101562 266.1875 93.3125 264.148438 C 92.804688 263.566406 92.421875 262.875 91.914062 262.28125 C 90.136719 260.230469 87.171875 263.222656 88.9375 265.261719 " fill-opacity="1" fill-rule="nonzero"/></svg>