<svg xmlns="http://www.w3.org/2000/svg" xmlns:xlink="http://www.w3.org/1999/xlink" width="512" zoomAndPan="magnify" viewBox="0 0 384 383.999986" height="512" preserveAspectRatio="xMidYMid meet" version="1.0"><defs><clipPath id="bedfab837b"><path d="M 123 0 L 260.878906 0 L 260.878906 384 L 123 384 Z M 123 0 " clip-rule="nonzero"/></clipPath></defs><g clip-path="url(#bedfab837b)"><path fill="#ffb800" d="M 192.113281 310.652344 C 192.671875 311.113281 193.0625 311.726562 193.410156 312.375 C 197.53125 311.453125 201.757812 311.53125 207.34375 311.226562 C 211.105469 311.019531 213 309.582031 216.738281 308.351562 C 217.945312 307.953125 219.9375 308.285156 221.601562 308.351562 C 220.667969 309.742188 219.59375 310.445312 217.386719 310.074219 C 214.996094 310.972656 212.738281 312.75 208.960938 313.242188 C 202.554688 314.070312 196.230469 312.40625 195.351562 317.84375 C 204.011719 318.359375 212.644531 313.539062 220.949219 314.679688 C 220.515625 317.035156 217.003906 316.046875 214.792969 316.402344 C 212.621094 316.753906 209.953125 318.125 207.019531 318.707031 C 200.582031 319.980469 193.742188 318.972656 191.464844 323.308594 C 191.21875 324.386719 191.828125 324.707031 192.757812 324.746094 C 193.101562 325.820312 191.546875 325.203125 191.789062 326.183594 C 191.109375 334.140625 192.425781 347.285156 191.789062 357.535156 C 191.570312 361.042969 191.671875 364.859375 191.140625 368.46875 C 189.460938 366.652344 189.574219 363.5625 189.523438 360.988281 C 189.292969 350.582031 190.433594 338.535156 190.167969 327.621094 C 188.058594 328.242188 186.4375 329.296875 184.65625 330.210938 C 185.886719 331.277344 187.621094 329.164062 188.871094 330.210938 C 185.785156 331.429688 183.105469 333.132812 178.824219 332.800781 C 177.980469 333.871094 178.972656 336.574219 178.179688 337.691406 C 180.25 337.230469 181.566406 336.09375 183.039062 335.101562 C 183.765625 336.449219 181.195312 336.359375 181.09375 337.402344 C 182.625 338.121094 184.851562 335.640625 186.925781 336.828125 C 183.902344 337.785156 180.898438 338.761719 178.179688 339.988281 C 178.46875 348.996094 177.4375 362.605469 177.851562 373.355469 C 177.105469 376.703125 177.832031 381.960938 176.558594 384 C 174.949219 374.535156 175.691406 363.675781 176.234375 352.359375 C 176.417969 348.546875 176.605469 343.148438 175.585938 339.988281 C 177.691406 334.222656 176.046875 326.816406 175.910156 320.429688 C 169.726562 317.476562 161.796875 319.898438 156.144531 317.265625 C 151.8125 315.25 147.613281 312.5625 143.832031 310.363281 L 143.832031 308.636719 C 142.820312 306.324219 140.648438 305.535156 139.941406 303.171875 C 139.320312 301.097656 140.449219 299.070312 140.265625 296.84375 C 139.902344 292.457031 135.617188 289.5 135.082031 285.625 C 134.652344 285.046875 134.015625 284.652344 133.136719 284.476562 C 133.371094 281.792969 130.984375 278.910156 133.785156 276.707031 C 132.367188 272.109375 132.710938 267.65625 132.164062 262.902344 C 131.523438 257.378906 126.285156 249.46875 130.867188 242.765625 C 130.582031 240.597656 131.167969 239.199219 131.839844 237.878906 C 131.417969 236.714844 131.125 235.445312 130.542969 234.425781 C 132.308594 230.847656 129.351562 226.507812 127.625 222.921875 C 127.777344 219.714844 126.226562 216.058594 126.65625 211.703125 C 128.425781 208.113281 131.898438 203.316406 131.515625 198.46875 C 131.414062 197.199219 129.890625 196.640625 130.867188 195.304688 C 129.628906 194.261719 129.097656 196.261719 127.625 194.730469 C 127.839844 193.207031 127.644531 192.703125 128.597656 191.566406 C 127.304688 189.265625 127.484375 185.652344 125.679688 183.800781 C 126.730469 175.851562 130.035156 168.277344 127.304688 160.789062 C 126.960938 159.722656 128.394531 160.226562 128.597656 159.640625 C 127.265625 156.386719 126.195312 152.265625 125.035156 148.132812 C 124.851562 147.332031 123.78125 147.328125 123.089844 146.984375 C 122.890625 145.75 124.144531 145.8125 124.0625 144.683594 C 123.007812 137.3125 123.675781 130.839844 126.980469 126.558594 C 123.644531 121.394531 128.09375 112.761719 125.035156 108.726562 C 125.910156 105.738281 123.667969 99.984375 125.355469 96.359375 C 126.816406 93.222656 129.566406 89.621094 131.191406 86.292969 C 132.726562 83.144531 134.742188 78.503906 136.703125 75.933594 C 137.363281 75.0625 138.597656 74.644531 139.292969 73.921875 C 140.160156 73.019531 140.441406 71.679688 141.238281 70.757812 C 143.265625 68.410156 146.488281 66.761719 147.394531 63.855469 C 157.367188 58.710938 166.03125 52.398438 180.125 50.914062 C 181.929688 44.308594 180.21875 32.453125 182.066406 25.886719 C 184.921875 27.054688 182.1875 31.484375 183.039062 34.515625 C 185.46875 35.132812 188 33.363281 190.167969 32.789062 C 190.429688 33.800781 188.683594 34.027344 190.167969 34.515625 C 188.136719 35.078125 185.542969 36.65625 183.363281 35.378906 C 182.742188 36.074219 183.160156 37.691406 183.039062 38.832031 C 186.824219 39.308594 188.523438 36.417969 191.464844 37.105469 C 189.109375 38.5625 187.035156 40.265625 183.039062 40.269531 C 182.550781 40.996094 182.800781 44.324219 182.390625 46.019531 C 185.851562 46.480469 189.148438 44.367188 192.4375 43.722656 C 192.019531 42.238281 193.375 41.308594 192.757812 40.554688 C 191.300781 42.417969 186.558594 43.671875 184.011719 41.996094 C 186.714844 40.847656 190.738281 40.871094 192.757812 39.117188 C 192.941406 34.390625 192.710938 31.984375 193.410156 27.902344 C 195.617188 28.660156 194.351562 31.894531 194.378906 34.230469 C 194.433594 38.578125 194.5 44.785156 193.734375 49.1875 C 192.480469 50.375 189.265625 49.820312 187.898438 50.914062 C 188.882812 52.28125 192.503906 50.238281 194.058594 51.199219 C 195.066406 50.648438 193.550781 49.949219 193.734375 49.1875 C 199.191406 47.070312 205.558594 50.777344 212.203125 51.199219 C 225.847656 52.070312 237.839844 57.792969 243.632812 64.71875 C 246.179688 69.652344 250.128906 73.335938 252.386719 78.523438 C 253.066406 79.453125 254.648438 79.585938 255.300781 80.539062 C 255.660156 87.550781 259.496094 92.898438 260.164062 100.671875 C 260.890625 109.171875 259.28125 117.292969 259.191406 125.984375 C 259.183594 126.601562 259.585938 127.136719 259.515625 127.710938 C 259.011719 131.792969 255.6875 135.496094 255.625 139.21875 C 255.582031 141.800781 257.515625 144.910156 255.949219 146.984375 C 258.234375 150.886719 257.242188 158.296875 258.542969 162.226562 C 257.773438 167.101562 255.582031 171.917969 254.332031 176.898438 C 251.785156 187.015625 250.535156 196.851562 252.0625 205.664062 C 250.300781 208.828125 251.453125 212.171875 250.441406 215.730469 C 248.871094 221.25 245.257812 226.390625 246.550781 231.261719 C 248.191406 231.964844 248.992188 232.71875 248.824219 234.425781 L 245.257812 234.425781 C 246.328125 240.382812 245.339844 247.269531 246.875 252.261719 C 244.316406 256.785156 247.875 263.101562 245.582031 267.792969 C 243.316406 272.425781 242.457031 276.511719 241.691406 281.3125 C 240.558594 288.386719 241.195312 296.871094 236.507812 302.882812 C 236.582031 303.300781 237.476562 302.984375 237.480469 303.460938 C 235.132812 305.117188 234.777344 308.539062 232.617188 310.363281 C 232.820312 311.050781 234.03125 310.835938 233.59375 312.089844 C 232.539062 312.257812 232.082031 311.894531 231.324219 311.800781 C 228.242188 313.84375 224.265625 315.355469 219.65625 313.816406 C 221.871094 311.179688 226.007812 310.25 228.730469 308.0625 C 230.148438 307.761719 229.792969 309.035156 231 308.925781 C 232.199219 307.980469 232.617188 306.332031 233.265625 304.898438 C 232.921875 304.246094 231.226562 304.789062 230.351562 304.609375 C 229.164062 305.472656 231.691406 306.765625 230.027344 307.199219 C 227.816406 307.375 228.566406 305.925781 229.054688 304.898438 C 225.945312 305.589844 222.886719 306.324219 219.332031 306.625 C 216.164062 302.800781 210.808594 301.28125 205.074219 298.859375 C 203.835938 298.335938 203.03125 297.3125 201.832031 296.84375 C 198.09375 295.386719 193.542969 296.257812 190.816406 293.96875 C 182.898438 293.828125 177.625 293.066406 173.316406 296.558594 C 176.652344 296.746094 179.863281 297.351562 182.714844 296.84375 C 185.378906 296.371094 187.308594 293.984375 189.84375 294.832031 C 189.574219 295.644531 190.300781 295.574219 190.167969 296.269531 C 185.5 297.40625 180.457031 300.269531 176.558594 300.296875 C 176.46875 301.335938 177.980469 300.957031 178.503906 301.445312 C 179.164062 305.003906 184.621094 307.976562 185.957031 310.9375 C 188.394531 310.757812 191.253906 312.761719 192.113281 310.652344 Z M 190.816406 383.136719 C 187.921875 380.71875 190.375 374.484375 190.492188 371.054688 C 191.8125 373.703125 191.980469 380.171875 190.816406 383.136719 Z M 185.632812 340.277344 C 184.375 341.066406 181.945312 342.273438 180.449219 341.140625 C 180.589844 340.40625 180.902344 339.816406 181.417969 339.414062 C 182.59375 339.140625 181.746094 340.65625 182.390625 340.855469 C 183.59375 340.8125 184.800781 339.75 185.632812 340.277344 Z M 165.539062 304.609375 C 164.667969 305.902344 160.835938 305.753906 161.328125 303.460938 C 162.597656 302.933594 165.332031 303.269531 165.539062 304.609375 Z M 183.363281 302.308594 C 187.726562 303.386719 187.601562 309.78125 192.757812 309.214844 C 193.242188 310.710938 191.140625 310.765625 190.492188 310.652344 C 187.832031 310.183594 183.464844 304.210938 183.363281 302.308594 Z M 196.324219 307.199219 C 195.847656 308.292969 192.597656 307.902344 193.085938 306.335938 C 191.695312 306.882812 189.976562 304.558594 190.816406 303.171875 C 193.921875 303.386719 193.039062 307.144531 196.324219 307.199219 Z M 204.75 305.761719 C 203.808594 307.527344 198.816406 305.976562 200.214844 303.75 C 202.433594 303.789062 202.761719 305.515625 204.75 305.761719 Z M 195.03125 287.925781 C 193.695312 287.5625 194.78125 285.375 194.707031 283.613281 C 194.644531 282.257812 193.375 280.800781 194.378906 279.875 C 197.15625 281.015625 196.582031 286.761719 195.03125 287.925781 Z M 201.832031 287.066406 C 201.105469 284.800781 199.929688 282 200.214844 279.300781 C 202.417969 280.253906 202.960938 284.980469 201.832031 287.066406 Z M 207.667969 287.925781 C 207.566406 284.085938 205.949219 281.589844 205.722656 277.859375 C 208.703125 279.519531 208.9375 285.652344 207.667969 287.925781 Z M 216.09375 288.503906 C 215.980469 288.832031 215.519531 289.230469 215.445312 288.792969 C 213.644531 286.050781 210.996094 281.398438 212.203125 277.859375 C 214.382812 280.023438 213.796875 285.660156 216.09375 288.503906 Z M 212.203125 264.917969 C 214.070312 260.917969 218.820312 259.476562 220.628906 255.421875 C 220.890625 255.273438 221.15625 255.125 221.601562 255.136719 C 221.257812 260.265625 215.9375 262.339844 212.203125 264.917969 Z M 229.054688 257.726562 C 227.316406 260.015625 224.492188 261.347656 222.25 263.191406 C 222.59375 259.835938 226.035156 257.757812 229.054688 257.726562 Z M 151.28125 266.066406 C 151.042969 266.953125 152.171875 266.621094 151.929688 267.503906 C 149.757812 267.878906 150.070312 270.457031 147.394531 270.382812 C 147.15625 270.113281 146.804688 269.945312 146.421875 269.804688 C 150.582031 263.429688 157.542969 259.546875 163.59375 254.847656 C 164.636719 255.320312 164.421875 255.8125 164.242188 256.863281 C 159.644531 259.523438 154.972656 263.542969 151.28125 266.066406 Z M 166.835938 275.558594 L 166.835938 276.421875 C 161.117188 278.019531 156.074219 280.511719 150.957031 283.039062 C 147.773438 284.613281 144.9375 287.09375 141.238281 287.351562 C 141.261719 285.238281 144.332031 284.472656 146.097656 283.613281 C 152.054688 280.710938 159.109375 277.671875 165.539062 275.269531 C 166.21875 275.148438 166.398438 275.46875 166.835938 275.558594 Z M 157.765625 228.671875 C 155.960938 229.855469 154.855469 231.652344 152.582031 232.414062 C 152.820312 233.0625 152.1875 235.027344 150.632812 235.003906 C 150.695312 231.644531 153.871094 228.710938 157.4375 227.523438 C 157.691406 227.777344 157.785156 228.171875 157.765625 228.671875 Z M 220.953125 219.757812 C 221.320312 221.039062 219.960938 220.789062 219.332031 221.195312 C 219.527344 221.789062 218.929688 223.085938 219.65625 223.207031 C 218.292969 224.019531 217.582031 220.929688 218.359375 219.757812 C 219.101562 219.574219 220.316406 219.1875 220.953125 219.757812 Z M 206.046875 199.621094 C 203.070312 198.238281 202.238281 194.726562 200.539062 192.144531 C 198.816406 189.519531 196.585938 186.972656 196 184.375 C 200.882812 186.660156 200.875 193.28125 205.074219 196.171875 C 205.09375 197.589844 206.027344 198.203125 206.046875 199.621094 Z M 164.242188 149.859375 C 165.214844 150.050781 163.9375 150.476562 164.242188 151.011719 C 160.207031 151.925781 158.527344 154.699219 155.171875 155.324219 C 155.21875 156.039062 154.660156 156.214844 154.523438 156.765625 C 151.410156 157.640625 151.53125 161.394531 148.042969 161.941406 C 147.9375 160.3125 148.777344 159.523438 149.988281 159.066406 C 152.511719 155.117188 158.386719 152.300781 164.242188 149.859375 Z M 238.453125 164.816406 C 236.558594 163.164062 233.71875 158.652344 236.183594 155.898438 C 238.410156 157.328125 236.054688 161.964844 239.101562 163.667969 C 239.335938 164.449219 238.457031 164.246094 238.453125 164.816406 Z M 231.648438 194.15625 C 229.957031 195.867188 230.171875 198.195312 228.40625 199.332031 C 226.957031 197.214844 228.785156 193.226562 231.648438 194.15625 Z M 237.480469 199.910156 C 236.101562 199.882812 235.433594 199.230469 235.535156 197.894531 C 237.246094 197.023438 238.1875 198.34375 237.480469 199.910156 Z M 243.3125 199.046875 C 242.773438 200.070312 240.410156 200.253906 240.71875 198.472656 C 241.523438 197.839844 242.859375 198.484375 243.3125 199.046875 Z M 247.199219 200.484375 C 245.894531 200.78125 245.761719 200.035156 245.257812 199.621094 C 245.605469 198.46875 247.59375 199.25 247.199219 200.484375 Z M 210.90625 200.773438 C 210.898438 201.050781 210.511719 200.996094 210.261719 201.058594 C 206.40625 198.632812 206.324219 192.855469 203.128906 189.839844 C 203.121094 187.835938 201.738281 187.050781 201.511719 185.238281 C 204.8125 185.933594 205.265625 189.8125 206.371094 192.429688 C 207.597656 195.332031 209.433594 198.429688 210.90625 200.773438 Z M 220.628906 186.101562 C 218.316406 188.9375 216.046875 191.816406 214.46875 195.304688 C 213.289062 195.492188 212.746094 195.113281 212.203125 194.730469 C 214.535156 191.71875 216.332031 188.230469 219.011719 185.527344 C 220.042969 185.28125 220.011719 185.980469 220.628906 186.101562 Z M 223.222656 187.828125 C 221.742188 191.339844 218.417969 194.082031 216.09375 197.609375 C 215.207031 197.820312 215.4375 197.035156 214.792969 197.035156 C 216.648438 193.402344 219.671875 190.8125 221.925781 187.539062 C 222.503906 187.503906 222.609375 187.890625 223.222656 187.828125 Z M 227.757812 189.839844 C 225.441406 193.058594 222.773438 195.964844 219.980469 198.757812 C 219.554688 198.65625 219.472656 198.25 219.011719 198.183594 C 221.71875 195.21875 223.238281 191.199219 227.757812 189.839844 Z M 211.554688 194.15625 C 210.953125 193.925781 210.367188 193.675781 209.613281 193.582031 C 211.574219 190.433594 213.734375 187.460938 214.792969 183.511719 C 215.742188 183.441406 215.914062 184.054688 216.417969 184.375 C 215.128906 188.429688 213.210938 190.96875 211.554688 194.15625 Z M 200.539062 198.46875 C 195.792969 195.96875 194.871094 190.078125 192.4375 185.527344 C 194.660156 186.304688 196.273438 189.699219 197.296875 191.855469 C 197.949219 193.222656 197.945312 194.753906 198.917969 195.882812 C 199.34375 196.558594 199.917969 197.101562 200.539062 197.609375 Z M 195.03125 195.019531 C 192.242188 193.066406 190 189.148438 190.167969 185.527344 C 193.5 186.984375 192.25 192.5 195.351562 194.15625 C 195.445312 194.621094 195.046875 194.652344 195.03125 195.019531 Z M 222.25 242.191406 C 220.820312 240.980469 219.53125 238.492188 219.332031 236.441406 C 222.007812 236.84375 221.703125 239.898438 222.25 242.191406 Z M 231.96875 245.644531 C 230.71875 243.453125 229.917969 242.386719 228.40625 240.753906 C 229.007812 240.191406 229.59375 240.667969 230.351562 240.753906 C 230.8125 240.6875 230.046875 239.324219 230.351562 238.453125 C 233.691406 238.777344 230.519531 243.414062 231.96875 245.644531 Z M 170.726562 216.878906 C 170.375 217.910156 169.183594 218.199219 168.132812 218.605469 C 168.074219 219.621094 169.503906 220.179688 168.78125 220.90625 C 165.582031 220.355469 161.890625 221.371094 159.0625 222.058594 C 158.265625 222.734375 159.542969 222.59375 159.382812 223.496094 C 152.445312 226.351562 149.105469 232.398438 143.832031 236.726562 C 142.730469 233.613281 148.183594 231.671875 149.335938 228.671875 C 143.859375 230.503906 142.839844 237.394531 137.671875 237.878906 C 138.859375 234.804688 141.980469 233.457031 143.832031 230.972656 C 142.25 230.15625 141.871094 232.875 139.941406 232.699219 C 143.503906 228.515625 148.191406 227.058594 152.253906 223.496094 C 143.894531 223.074219 140.710938 229.738281 134.429688 232.125 C 135.628906 228.363281 141.742188 227.535156 141.886719 223.78125 C 150.742188 220.808594 161.554688 219.570312 170.726562 216.878906 Z M 155.171875 223.207031 L 156.46875 223.207031 C 156.722656 222.101562 154.914062 222.101562 155.171875 223.207031 Z M 173.964844 200.773438 C 170.214844 203.195312 164.90625 204.234375 161.652344 207.101562 C 161.007812 207.097656 161.242188 206.316406 160.355469 206.523438 C 163.070312 202.988281 168.523438 201.886719 172.667969 199.621094 C 173.550781 199.414062 173.324219 200.191406 173.964844 200.195312 Z M 178.824219 202.210938 C 176.511719 203.34375 173.875 205.644531 171.375 205.664062 C 172.957031 203.617188 174.648438 201.664062 178.179688 201.347656 C 178.164062 201.839844 178.417969 202.09375 178.824219 202.210938 Z M 176.234375 187.828125 C 176.160156 189.121094 174.125 189.6875 173.316406 188.691406 C 173.78125 187.855469 174.789062 187.503906 175.910156 187.253906 C 175.859375 187.589844 175.980469 187.765625 176.234375 187.828125 Z M 167.160156 180.0625 C 160.6875 184.65625 156.703125 188.496094 150.957031 194.15625 C 149.960938 194.371094 150.335938 193.367188 149.335938 193.582031 C 154.277344 187.914062 160.132812 183.097656 167.160156 180.0625 Z M 147.394531 178.625 C 148.53125 173.953125 152.527344 169.390625 156.792969 166.542969 C 156.960938 166.773438 157.128906 167.011719 157.117188 167.40625 C 155.167969 169.894531 153.660156 172.773438 150.957031 174.597656 C 150.097656 176.230469 149.75 178.320312 147.394531 178.625 Z M 152.253906 177.1875 C 152.03125 175.492188 154.089844 173.484375 155.496094 172.296875 C 157.300781 169.390625 158.429688 165.890625 162.621094 165.105469 C 161.027344 167.917969 157.453125 171.433594 154.84375 174.3125 C 154.226562 175.484375 154.179688 177.167969 152.253906 177.1875 Z M 168.78125 165.679688 C 166.023438 168.886719 163.878906 172.644531 160.355469 175.171875 C 160.546875 172.597656 165.089844 166.28125 168.78125 165.679688 Z M 175.585938 167.695312 C 174.714844 168.828125 172.683594 171.242188 171.375 169.417969 C 171.914062 167.953125 173.765625 167.207031 175.585938 167.695312 Z M 137.347656 130.875 C 133.726562 129.679688 135.066406 124.082031 133.785156 120.808594 C 131.296875 123.574219 133.472656 131.585938 130.542969 133.753906 C 129.902344 129.277344 130.371094 122.105469 130.21875 117.070312 C 132.5 116.578125 131.921875 118.628906 132.488281 119.65625 C 133.59375 119.871094 133.019531 118.597656 133.785156 118.507812 C 137.3125 120.082031 135.445312 125.234375 136.703125 129.148438 C 138.1875 129.238281 137.453125 130.371094 137.347656 130.875 Z M 166.511719 112.753906 C 165.332031 114.105469 164.519531 115.78125 161.652344 115.632812 C 160.210938 116.277344 157.917969 118.230469 156.144531 116.78125 C 158.96875 114.882812 162.953125 114.003906 166.511719 112.753906 Z M 163.59375 129.148438 C 162.921875 130.40625 160.097656 130.710938 160.03125 128.863281 C 161.691406 128.585938 162.28125 128.628906 163.59375 129.148438 Z M 147.394531 148.421875 C 147.484375 149.171875 147.273438 149.660156 146.421875 149.570312 C 146.066406 146.261719 144.558594 142.980469 145.773438 139.792969 C 148.542969 141.894531 146.308594 147.824219 147.394531 148.421875 Z M 165.863281 144.394531 C 164.863281 144.035156 163.324219 144.15625 163.273438 142.957031 C 164.175781 143.398438 165.785156 143.21875 165.863281 144.394531 Z M 171.375 142.09375 C 170.519531 142.179688 170.308594 141.695312 170.398438 140.941406 C 171.253906 140.855469 171.464844 141.339844 171.375 142.09375 Z M 216.417969 137.78125 C 212.125 139.457031 208.207031 144.460938 203.777344 144.105469 C 202.769531 142.613281 206.5 143.15625 206.371094 141.519531 C 209.800781 140.519531 212.753906 137.621094 216.417969 137.78125 Z M 165.539062 71.621094 C 165.589844 71.957031 165.46875 72.132812 165.21875 72.195312 C 160.742188 75.246094 150.121094 80.515625 145.773438 74.496094 C 149.628906 73.246094 152.246094 78.167969 155.492188 75.074219 C 153.609375 74.0625 150.574219 74.070312 150.632812 71.335938 C 153.253906 71.183594 154.28125 73.160156 156.46875 73.347656 C 159.738281 73.628906 162.398438 70.347656 165.539062 71.621094 Z M 167.484375 91.179688 C 166.179688 92.898438 164.058594 93.890625 162.300781 95.207031 C 159.398438 94.214844 159.046875 95.835938 156.46875 95.207031 C 156.652344 92.984375 159.886719 91.210938 161.328125 89.167969 C 162.191406 89.359375 162.511719 90.03125 162.949219 90.605469 C 164.050781 90.144531 164.679688 89.265625 166.1875 89.167969 C 166.949219 89.546875 166.335938 91.148438 167.484375 91.179688 Z M 181.417969 66.15625 C 178.550781 66.058594 173.894531 68.140625 171.375 65.871094 C 169.613281 66.511719 167.121094 67.195312 165.21875 66.15625 C 165.484375 65.34375 164.761719 65.410156 164.890625 64.71875 C 167.78125 63.160156 169.796875 60.828125 172.992188 59.539062 C 173.929688 59.667969 174.472656 60.148438 174.613281 60.976562 C 174.058594 61.597656 171.765625 61.691406 172.667969 62.707031 C 174.328125 63.210938 175.886719 61.15625 178.179688 61.265625 C 178.066406 61.84375 178.242188 62.164062 178.824219 62.128906 C 178.515625 63.386719 176.84375 63.433594 176.234375 64.429688 C 177.386719 65.859375 181.78125 62.417969 181.417969 66.15625 Z M 180.125 89.742188 C 180.566406 90.402344 181.457031 90.667969 182.066406 91.179688 C 181.421875 92.722656 180.535156 94.039062 179.476562 95.207031 C 178.648438 95.660156 177.304688 94.582031 176.882812 93.769531 C 177.492188 91.773438 177.898438 91.386719 178.179688 89.167969 C 176.648438 89.632812 176.324219 91.164062 175.585938 92.332031 C 172.542969 91.453125 175.445312 88.855469 176.558594 87.441406 C 177.96875 85.648438 179.9375 83.929688 180.449219 82.265625 C 177.816406 83.09375 175.925781 87.070312 173.964844 89.453125 C 172.609375 89.316406 172.414062 88.148438 171.375 87.730469 C 171.542969 86.730469 172.238281 86.199219 172.34375 85.140625 C 170.09375 85.390625 167.28125 85.03125 165.21875 85.140625 C 158.199219 85.515625 154.53125 91.433594 146.742188 91.46875 C 143.6875 90.253906 138.765625 90.691406 138 87.441406 C 139.820312 86.949219 142.144531 88.308594 143.503906 89.167969 C 145.773438 88.964844 147.394531 89.332031 149.011719 89.167969 C 153.515625 88.707031 155.628906 85.375 159.058594 84.277344 C 162.375 83.214844 166.1875 84.527344 170.722656 83.414062 C 171.933594 83.105469 171.648438 84.128906 172.667969 83.988281 C 174.902344 83.09375 174.507812 79.871094 177.207031 79.386719 C 178.71875 80.5 180.601562 79.519531 181.09375 81.402344 C 181.910156 80.957031 182.179688 80.234375 183.363281 80.828125 C 184.085938 82.253906 181.78125 82.65625 181.417969 83.988281 C 182.21875 85.054688 183 82.167969 184.011719 83.414062 C 184.574219 86.058594 181.070312 87.492188 180.121094 89.742188 Z M 175.585938 83.703125 C 177.199219 83.601562 177.390625 82.234375 177.851562 81.113281 C 176.5625 81.5 175.875 82.425781 175.585938 83.703125 Z M 160.03125 81.113281 C 156.304688 79.65625 147.582031 83.382812 145.773438 77.664062 C 147.445312 77.035156 149.398438 78.40625 150.3125 79.386719 C 153.347656 79.792969 157.433594 79.128906 160.03125 78.238281 C 162.390625 76.675781 163.785156 74.019531 167.160156 74.210938 C 169.460938 74.339844 171.085938 76.625 173.316406 76.511719 C 174.570312 76.449219 179.171875 74.476562 180.449219 73.632812 C 182.140625 72.519531 182.648438 70.292969 184.984375 69.894531 C 185.261719 70.125 185.175781 70.683594 185.632812 70.757812 C 184.511719 73.554688 178.421875 78.074219 174.292969 78.523438 C 171.882812 78.785156 170.796875 77.070312 168.457031 76.800781 C 164.339844 76.324219 162.222656 79.335938 160.03125 81.113281 Z M 217.0625 128.574219 C 217.160156 129.238281 216.128906 128.894531 216.09375 129.4375 C 215.125 128.1875 214.292969 126.816406 214.46875 124.546875 C 214.847656 124.59375 215.046875 124.484375 215.121094 124.261719 C 216.878906 124.714844 215.53125 127.921875 217.0625 128.574219 Z M 219.332031 105.851562 C 218.671875 106.351562 218.695312 105.636719 218.035156 106.140625 C 216.539062 109.90625 214.703125 112 212.203125 114.480469 C 214.992188 109.617188 216.308594 105.03125 220.949219 102.109375 C 222.175781 103.839844 218.574219 104.492188 219.332031 105.851562 Z M 237.480469 117.359375 C 235.128906 118.820312 232.945312 120.425781 230.351562 121.671875 C 229.675781 122.351562 227.949219 124.402344 226.785156 122.824219 C 229.972656 120.667969 233.179688 118.527344 237.480469 117.359375 Z M 236.832031 98.660156 C 234.511719 101.394531 233.832031 105.582031 231 107.863281 C 232.382812 104.148438 233.210938 101.527344 234.886719 98.371094 C 235.6875 98.335938 236.449219 98.328125 236.832031 98.660156 Z M 250.117188 119.367188 C 247.542969 117.507812 248.128906 113.835938 247.523438 110.742188 C 246.878906 107.421875 245.828125 103.964844 245.582031 100.382812 C 246.976562 100.105469 246.523438 101.464844 247.523438 101.535156 C 248.515625 107.777344 248.945312 113.148438 250.4375 118.507812 C 250.535156 118.972656 250.136719 119 250.117188 119.367188 Z M 251.738281 122.246094 C 251.707031 115.582031 248.855469 106.34375 250.765625 100.671875 C 252.796875 101.246094 251.546875 104.382812 251.738281 107 C 252.074219 111.601562 253.835938 119.679688 251.738281 122.246094 Z M 232.292969 68.746094 C 231.734375 69.878906 231.59375 68.75 231 68.746094 C 226.355469 68.703125 222.617188 71.90625 217.710938 72.195312 C 217.566406 71.367188 216.566406 71.296875 216.738281 70.183594 C 217.207031 70.972656 217.558594 70.515625 218.359375 70.183594 C 216.035156 68.695312 211.644531 74.03125 208.960938 71.335938 C 206.726562 71.769531 206.042969 73.355469 203.777344 73.058594 C 203.609375 71.773438 202.585938 71.242188 202.480469 69.894531 C 205.734375 68.148438 208.722656 64.746094 213.824219 65.582031 C 214.511719 66.183594 213.441406 66.703125 213.175781 67.308594 C 214.09375 67.257812 215.398438 67.554688 215.445312 66.730469 C 216.105469 70.5 222.148438 65.648438 222.898438 68.746094 C 225.878906 68.042969 230.179688 66.195312 232.292969 68.746094 Z M 193.410156 89.453125 C 189.902344 89.671875 191.832031 82.222656 193.085938 80.539062 C 196.367188 82.457031 191.816406 86.445312 193.410156 89.453125 Z M 200.214844 83.703125 C 199.675781 84.746094 199.242188 85.433594 199.242188 86.292969 C 197.597656 86.601562 197.894531 85.183594 197.296875 84.566406 C 195.570312 85.796875 196.5 88.570312 196 90.320312 C 191.921875 89.648438 195.359375 84.101562 196 82.265625 C 197.078125 82.363281 197.152344 83.355469 197.945312 83.703125 C 198.277344 83.421875 198.601562 83.132812 198.917969 82.839844 C 199.578125 82.925781 199.554688 83.617188 200.214844 83.703125 Z M 208.3125 76.511719 C 205.828125 79.527344 196.808594 77.5625 197.621094 74.210938 C 200.332031 74.835938 203.332031 78.457031 206.046875 75.648438 C 206.890625 75.859375 207.949219 75.875 208.3125 76.511719 Z M 228.730469 90.605469 C 228.785156 90.941406 228.660156 91.117188 228.40625 91.179688 C 223.332031 90.515625 218.863281 90.53125 213.824219 90.605469 C 211.890625 90.632812 209.730469 89.613281 207.667969 89.742188 C 203.320312 90.019531 200.75 94.558594 194.378906 93.195312 C 192.59375 92.8125 189.695312 91.796875 189.195312 88.878906 C 191.378906 89.242188 192.316406 90.714844 194.054688 91.46875 C 199.980469 92.125 202.328125 89.605469 205.722656 88.015625 C 210.039062 87.636719 214.300781 90.25 217.386719 88.304688 C 219.675781 88.191406 220.75 89.15625 222.574219 89.453125 C 222.632812 88.15625 220.5625 88.746094 220.949219 87.152344 C 222.089844 86.554688 223.164062 87.730469 224.519531 87.152344 C 224.113281 87.828125 223.332031 89.125 223.867188 89.742188 C 224.085938 90.289062 227.582031 89.441406 228.730469 90.605469 Z M 230.351562 66.15625 C 228.519531 64.824219 227.886719 62.878906 226.460938 61.265625 C 225.210938 59.847656 222.652344 58.6875 222.574219 56.378906 C 227.175781 57.90625 229.175781 62.4375 230.351562 66.15625 Z M 234.238281 66.730469 C 230.621094 66.105469 230.09375 60.246094 227.433594 57.816406 C 231.375 57.082031 231.226562 64.746094 234.238281 66.730469 Z M 237.15625 85.714844 C 235.183594 84.726562 234.445312 85.992188 232.941406 85.714844 C 232.464844 85.296875 232.464844 83.832031 232.941406 83.414062 C 234.875 83.710938 236.566406 84.222656 237.15625 85.714844 Z M 203.128906 80.828125 C 206.394531 81.378906 208.082031 83.960938 211.878906 81.6875 C 215.488281 79.527344 217.960938 75.472656 223.222656 75.933594 C 225.957031 76.175781 226.339844 77.734375 229.054688 79.101562 C 236.136719 79.25 239.457031 76.058594 241.367188 71.621094 C 242.304688 71.75 242.132812 72.859375 242.988281 73.058594 C 240.933594 77.730469 233.234375 83.441406 227.433594 80.539062 C 226.367188 80.003906 226.199219 78.652344 224.839844 78.238281 C 218.222656 76.210938 214.867188 85.609375 208.636719 84.855469 C 206.8125 84.632812 203.707031 83.171875 203.128906 80.828125 Z M 183.039062 23.296875 C 180.886719 20.5 181.96875 16.320312 181.742188 12.941406 C 181.503906 9.382812 181.210938 5.984375 182.390625 2.875 C 185.21875 3.550781 183.503906 6.960938 183.039062 9.203125 C 184.679688 14.363281 182.585938 17.183594 183.039062 23.296875 Z M 190.167969 31.066406 C 189.164062 32.066406 186.296875 32.375 184.65625 31.925781 C 186.210938 30.175781 187.8125 30.34375 190.167969 31.066406 Z M 194.054688 20.996094 C 191.804688 14.972656 193.101562 7.136719 193.734375 0 C 196.949219 1.296875 194.996094 5.664062 194.707031 8.628906 C 194.261719 13.136719 196.105469 18.378906 194.054688 20.996094 Z M 177.53125 283.613281 C 178.914062 283.402344 179.296875 282.304688 181.09375 282.460938 C 186.078125 272.734375 202.121094 274.34375 211.878906 268.65625 C 211.882812 269.226562 212.765625 269.019531 212.527344 269.804688 C 205.363281 275.59375 191.445312 274.960938 184.984375 280.449219 C 183.703125 281.535156 181.121094 283.925781 181.09375 285.050781 C 181.035156 287.300781 183.941406 288.023438 185.308594 289.652344 C 186.007812 287.996094 182.472656 287.816406 182.714844 285.625 C 184.636719 285.644531 185.652344 286.46875 186.28125 287.640625 C 190.96875 289.496094 194.210938 288.210938 200.859375 288.503906 C 202.007812 288.347656 201.660156 289.519531 202.804688 289.367188 C 208.8125 288.207031 214.835938 289.738281 220.304688 289.941406 C 218.992188 286.316406 216.378906 281.082031 217.710938 276.996094 C 218.730469 276.859375 219.035156 277.355469 219.332031 277.859375 C 217.976562 282.660156 220.9375 285.984375 221.277344 290.230469 C 222.835938 290.664062 223.476562 291.921875 225.164062 292.242188 C 224.9375 288.746094 223.15625 285.277344 224.195312 281.597656 C 223.050781 279.960938 222.238281 276.519531 223.222656 274.695312 C 224.265625 274.902344 224.597656 275.621094 224.84375 276.421875 C 226.117188 280.644531 224.714844 287.507812 226.136719 291.957031 C 227.339844 292.039062 226.929688 293.550781 228.40625 293.394531 C 228.628906 287.777344 227.980469 279.320312 231 275.269531 C 231.882812 279.554688 229.277344 286.464844 229.703125 291.378906 C 233.660156 287.796875 231.007812 278.347656 236.832031 276.421875 C 234.136719 281.800781 232.910156 288.472656 229.703125 293.394531 C 230.992188 294.355469 234.742188 293.136719 235.210938 294.832031 C 234.046875 294.988281 232.039062 295.472656 231 294.832031 C 231.222656 297.714844 228.734375 298.191406 227.109375 299.433594 C 228.457031 299.761719 230.382812 299.320312 231 300.871094 C 230.378906 302.046875 228.832031 302.398438 228.082031 303.460938 C 230.378906 303.582031 232.152344 303.238281 233.914062 302.882812 C 235.925781 298.113281 237.992188 293.945312 238.773438 288.789062 C 239.597656 283.378906 239.226562 277.511719 240.71875 272.109375 C 241.117188 270.667969 242.519531 269.53125 242.988281 268.078125 C 244.515625 263.347656 242.429688 258.179688 243.960938 252.835938 C 243.023438 252.519531 241.613281 253.917969 241.042969 254.847656 C 240.960938 256.363281 242.644531 257.515625 241.691406 258.875 C 239.535156 257.980469 239.726562 256.164062 238.128906 254.847656 C 234.6875 252.015625 227.554688 252.453125 222.25 250.535156 C 220.410156 249.871094 219.539062 248.300781 217.386719 248.808594 C 216.867188 248.121094 216.226562 247.539062 215.769531 246.792969 C 212.117188 247.738281 209.160156 245.824219 205.398438 245.933594 C 207.210938 248.15625 213.15625 247.929688 215.769531 248.519531 C 215.375 249.035156 215.707031 250.195312 215.121094 250.535156 C 213.429688 250.40625 212.246094 249.824219 210.582031 249.671875 C 209.839844 252.269531 207.34375 253.316406 205.074219 254.5625 C 204.605469 255.578125 204.582031 256.136719 204.429688 256.863281 C 200.546875 258.980469 197.777344 262.082031 195.03125 265.203125 C 198.480469 265.417969 199.941406 262.308594 201.832031 260.601562 C 202.921875 259.621094 203.515625 259.789062 204.429688 258.875 C 205.71875 257.578125 206.777344 256.339844 208.3125 255.421875 C 208.734375 254.710938 207.589844 254.027344 208.3125 253.984375 C 210.863281 253.660156 211.460938 251.601562 214.148438 251.398438 C 214.652344 252.847656 213.234375 254.445312 211.230469 254.5625 C 207.679688 258.753906 203.847656 261.054688 200.539062 265.203125 C 203.910156 265.742188 208.457031 264.351562 210.90625 265.203125 C 214.78125 266.550781 219.675781 269.242188 224.839844 269.230469 C 227.929688 269.226562 230.203125 269.984375 233.59375 270.09375 C 234.445312 269.699219 234.488281 268.585938 235.210938 268.078125 C 236.007812 268.925781 239.910156 266.929688 240.070312 268.945312 C 239.132812 269.644531 237.96875 270.148438 236.183594 270.09375 C 233.351562 274.683594 225.203125 269.289062 220.628906 270.957031 C 220.089844 270.382812 220.660156 270.589844 220.628906 269.804688 C 216.855469 269.914062 213.019531 267.089844 208.960938 266.640625 C 202.828125 265.96875 196.539062 267.230469 191.789062 268.945312 C 196.25 270.28125 203.765625 266.453125 207.019531 269.519531 C 197.902344 271.476562 184.65625 270.117188 178.179688 276.132812 C 178.058594 277.738281 177.910156 277.945312 176.558594 278.722656 C 179.539062 284.472656 172.894531 286.566406 170.398438 289.367188 C 173.078125 288.867188 173.90625 286.726562 176.558594 286.203125 C 176.632812 288.894531 169.722656 292.300781 166.1875 291.953125 C 165.882812 293.125 164.851562 293.644531 162.949219 293.394531 C 167.609375 296.507812 175.179688 293.242188 178.179688 292.242188 C 178.824219 291.851562 178.078125 290.234375 179.148438 290.226562 C 180.617188 289.960938 181.96875 289.867188 182.714844 289.652344 C 181.761719 287.429688 178.6875 287.089844 178.824219 283.902344 C 177.757812 283.648438 176.800781 284.640625 177.53125 283.613281 Z M 257.570312 120.234375 C 261.082031 101.753906 254.714844 83.839844 246.230469 71.910156 C 242.347656 66.453125 239.804688 61.730469 233.589844 59.253906 C 229.863281 57.769531 226.175781 55.046875 222.25 54.074219 C 216.113281 52.5625 209.222656 52.78125 203.453125 52.0625 C 203.824219 53.171875 206.257812 52.449219 206.371094 53.789062 C 206.523438 54.691406 205.5 54.546875 205.398438 55.226562 C 206.820312 56.554688 208.046875 58.054688 209.609375 59.253906 C 208.804688 59.210938 208.039062 59.199219 207.992188 59.828125 C 208.53125 60.417969 208.53125 62.976562 207.992188 63.566406 C 206.191406 63.339844 206.011719 61.679688 205.722656 60.117188 C 203.84375 60.078125 203.714844 61.59375 202.15625 61.84375 C 201.316406 61.726562 201.179688 60.984375 200.214844 60.976562 C 198.664062 63.660156 195.175781 63.46875 193.085938 65.582031 C 191.851562 66.824219 192.109375 68.648438 191.464844 70.757812 C 190.292969 74.597656 188.679688 79.460938 188.542969 82.839844 C 188.496094 84.097656 189.242188 85.1875 189.195312 86.292969 C 189.152344 87.304688 188.304688 88.496094 188.222656 89.453125 C 187.894531 93.203125 188.402344 96.683594 187.25 99.523438 C 187.953125 100.71875 189.492188 101.175781 190.492188 102.109375 C 190.339844 106.675781 187.03125 108.4375 186.925781 113.042969 C 190.332031 109.640625 192.84375 105.445312 194.703125 100.671875 C 192.136719 100.460938 189.808594 100.03125 189.195312 98.085938 C 193.65625 97.972656 199.085938 99.453125 204.101562 99.8125 C 205.539062 99.230469 206.429688 97.457031 208.636719 97.222656 C 211.21875 96.945312 214.308594 98.523438 217.386719 98.085938 C 220 97.710938 220.699219 95.6875 222.898438 96.933594 C 220.664062 97.316406 220.472656 97.980469 219.007812 99.234375 C 214.664062 101.003906 208.609375 98.078125 206.042969 101.535156 C 205.023438 101.679688 204.898438 101.019531 203.777344 101.25 C 200.617188 105.441406 197.878906 110.011719 193.410156 113.042969 C 192.25 115.285156 193.378906 116.359375 191.140625 117.644531 C 191.105469 117.101562 190.066406 117.445312 190.167969 116.78125 C 193.160156 111.1875 198.59375 106.242188 201.1875 101.25 C 200.183594 100.828125 197.644531 101.234375 196 100.671875 C 196.757812 105.761719 190.757812 109.558594 188.222656 113.617188 C 189.359375 115.394531 188.128906 117.40625 188.542969 119.082031 C 191.609375 118.734375 192.835938 116.753906 196.648438 117.070312 C 197.15625 115.410156 198.808594 114.769531 199.238281 113.042969 C 200.964844 112.558594 201.21875 110.769531 202.804688 110.164062 C 203.257812 108.320312 205.320312 107.390625 206.695312 105.851562 C 208.222656 104.140625 209.21875 100.777344 212.203125 101.25 C 212.199219 101.539062 212.464844 101.589844 212.527344 101.824219 C 210.300781 105.019531 205.222656 106.914062 204.425781 110.453125 C 201.257812 110.9375 200.753906 114.371094 199.238281 117.070312 C 200.039062 117.03125 200.804688 117.023438 201.1875 117.359375 C 203.378906 114.128906 205.027344 110.410156 208.636719 108.4375 C 210.929688 105.96875 214.011719 100.460938 217.710938 101.535156 C 212.59375 106.773438 205.808594 110.527344 202.804688 117.644531 C 206.222656 118 208.375 120.746094 211.554688 120.519531 C 213.238281 120.398438 214.757812 118.132812 216.417969 117.644531 C 217.101562 117.441406 218.117188 117.699219 218.6875 117.644531 C 221.601562 117.363281 223.765625 115.941406 226.136719 115.917969 C 230.824219 109.628906 236.332031 104.066406 240.070312 96.933594 C 235.644531 97.839844 225.40625 98.871094 223.542969 94.917969 C 232.359375 97.300781 245.195312 94.914062 250.4375 90.320312 C 249.578125 87.726562 249.527344 84.417969 247.199219 83.128906 C 246.546875 84.800781 248.636719 89.175781 246.875 90.894531 C 244.53125 89.785156 244.824219 84.890625 242.339844 84.855469 C 242.328125 86.296875 243.242188 90.609375 242.015625 91.757812 C 240.316406 89.925781 240.441406 85.359375 240.71875 82.550781 C 243.574219 82.796875 243.628906 85.527344 245.578125 86.578125 C 245.691406 83.726562 243.890625 81.355469 245.253906 79.101562 C 247.027344 79.734375 246.792969 82.144531 248.820312 82.550781 C 248.625 79.785156 244.511719 77.648438 245.578125 75.648438 C 249.082031 78.269531 253.058594 84.824219 252.0625 90.03125 C 251.203125 94.492188 245.941406 94.867188 241.691406 96.648438 C 242.808594 97.511719 242.339844 97.433594 242.015625 98.660156 C 244.328125 105.046875 244.664062 112.972656 246.230469 119.082031 C 243.152344 117.539062 243.996094 113.300781 243.3125 110.164062 C 242.515625 106.515625 241.773438 102.957031 240.71875 100.097656 C 240.339844 101.007812 239.609375 101.605469 239.097656 102.398438 C 239.585938 102.832031 240.460938 102.914062 240.71875 103.550781 C 241.226562 107.988281 242.78125 113.035156 242.339844 117.359375 C 238.894531 114.472656 241.257812 106.425781 238.449219 102.972656 C 235.160156 107.78125 231.527344 110.671875 228.40625 115.34375 C 231.050781 115.601562 234.453125 112.527344 237.15625 113.617188 C 237.285156 111.015625 235.1875 108.113281 237.15625 106.425781 C 237.726562 106.6875 238.15625 107.070312 238.449219 107.578125 C 236.027344 115.667969 244.234375 121.265625 250.4375 123.398438 C 248.007812 124.398438 246.648438 121.972656 244.28125 121.960938 C 240.972656 124.003906 236.789062 125.277344 233.914062 127.710938 C 235.261719 129.3125 235.375 127.59375 236.832031 127.136719 C 240.136719 127.359375 243.160156 124.910156 246.875 124.546875 C 245.03125 126.652344 241.105469 126.90625 239.421875 129.148438 C 242.101562 129.515625 242.214844 127.601562 244.28125 127.425781 C 243.941406 129.328125 241.804688 129.632812 241.042969 131.164062 C 244.238281 134.5625 247.164062 138.195312 253.035156 139.21875 C 254.871094 134.085938 258.800781 126.828125 255.949219 121.097656 C 256.171875 120.527344 257.878906 121.273438 257.570312 120.234375 Z M 253.679688 148.421875 C 253.742188 150.382812 253.46875 152.636719 254.976562 153.3125 C 255.371094 152.015625 255.125 149.023438 253.679688 148.421875 Z M 254.65625 168.554688 C 254.222656 168.269531 253.449219 168.285156 253.355469 167.695312 C 253.851562 164.582031 253.878906 161.058594 254.003906 157.625 C 252.847656 157.597656 252.835938 156.554688 251.738281 156.476562 L 251.738281 165.679688 C 252.292969 166.472656 253.585938 167.1875 252.386719 167.980469 C 250.636719 167.328125 249.847656 165.824219 248.171875 165.105469 C 247.589844 166.0625 248.710938 166.863281 247.199219 167.117188 C 246.101562 162.957031 239.34375 160.714844 238.773438 156.1875 C 242.171875 156.074219 242.289062 161.292969 245.582031 162.226562 C 245.714844 160.34375 243.878906 156.289062 244.609375 153.886719 C 248.925781 153.90625 244.757812 163.90625 249.792969 164.242188 C 249.902344 161.773438 249.59375 157.050781 250.117188 154.75 L 251.738281 154.75 C 251.789062 154.035156 251.226562 153.859375 251.089844 153.3125 C 249.445312 152.808594 250.332031 154.5625 249.144531 154.460938 C 246.109375 154.789062 244.957031 149.542969 248.171875 149.285156 C 248.121094 145.726562 243.722656 142.597656 245.582031 140.082031 C 239.445312 133.28125 232.125 127.5625 222.574219 123.972656 C 221.304688 123.496094 219.148438 124.175781 219.011719 121.957031 C 222.722656 121.175781 224.238281 124.464844 227.433594 124.546875 C 228.503906 124.574219 231.324219 123.550781 232.941406 122.824219 C 235.546875 121.644531 237.867188 119.800781 240.71875 119.65625 C 239.847656 117.460938 237.75 116.351562 235.859375 115.054688 C 233 115.488281 231.578125 117.199219 229.703125 118.507812 C 222.222656 118.386719 216.117188 119.488281 212.527344 122.824219 C 212.382812 122.65625 211.132812 122.257812 210.90625 123.109375 C 212.023438 125.089844 213.316406 128.445312 213.175781 130.589844 C 210.261719 128.859375 210.230469 124.570312 208.960938 121.382812 C 205.785156 120.65625 203.027344 119.558594 199.566406 119.082031 C 199.601562 121.710938 200.113281 125.480469 200.539062 129.148438 C 202.488281 128.480469 202.476562 129.046875 204.429688 129.148438 C 205.515625 126.84375 202.082031 124.074219 203.453125 120.808594 C 205.195312 120.605469 204.703125 122.382812 204.75 123.683594 C 205.664062 125.363281 205.828125 127.710938 206.371094 129.726562 C 210.683594 130.382812 218.027344 132.808594 222.898438 133.753906 C 222.824219 134.296875 223.261719 134.386719 223.222656 134.902344 C 233.042969 136.441406 236.425781 143.699219 242.988281 148.132812 C 239.632812 146.957031 235.816406 144.410156 232.941406 141.519531 C 232.25 140.820312 231.773438 139.558594 231 138.929688 C 229.480469 137.695312 227.570312 138.097656 225.164062 137.78125 C 222.832031 137.46875 220.984375 135.757812 218.6875 135.191406 C 214.226562 134.09375 209.71875 134.398438 204.101562 134.039062 C 203.167969 135.085938 201.148438 135.523438 199.886719 135.476562 C 199.164062 136.332031 196.382812 137.121094 194.707031 137.492188 C 193.234375 138.8125 188.285156 141.417969 186.605469 138.929688 C 190.808594 137.105469 194.253906 136.476562 198.269531 134.902344 C 200.363281 134.082031 202.585938 132.332031 204.429688 132.027344 C 207.695312 131.488281 210.640625 133.542969 214.472656 132.886719 C 211.84375 131.464844 208.605469 131.757812 205.722656 131.449219 C 203.917969 131.257812 202.300781 130.226562 200.539062 130.875 C 195.9375 132.570312 192.429688 134.1875 189.523438 136.628906 C 188.609375 136.285156 187.65625 135.980469 186.605469 135.765625 C 185.910156 136.414062 187.023438 137.03125 185.957031 137.492188 C 183.371094 137.628906 181.734375 135.695312 179.800781 136.914062 C 180.585938 138.125 180.035156 138.945312 181.417969 139.792969 C 181.195312 140.363281 179.488281 139.613281 179.800781 140.65625 C 180.695312 141.488281 182.1875 141.796875 183.363281 142.378906 C 183.988281 141.003906 182.847656 140.089844 183.039062 139.503906 C 184.511719 138.714844 185.640625 140.359375 185.957031 141.519531 C 188.757812 142.042969 189.851562 144.460938 192.4375 144.96875 C 193.148438 145.109375 193.816406 144.683594 194.707031 144.683594 C 197.460938 144.671875 200.914062 145.765625 203.457031 146.121094 C 211.960938 147.316406 214.207031 140.6875 220.628906 140.941406 C 217.082031 142.683594 213.894531 144.742188 211.230469 147.269531 C 215.007812 150 218.226562 145.460938 221.601562 145.546875 C 221.078125 147.191406 218.980469 147.4375 218.035156 148.710938 C 222.460938 150.769531 228.824219 149.863281 233.59375 151.011719 C 234.976562 151.34375 235.753906 152.375 237.15625 152.449219 C 240.839844 152.644531 241.574219 149.796875 244.933594 149.285156 C 244.9375 149.855469 245.820312 149.652344 245.582031 150.433594 C 243.039062 152.207031 240.976562 154.324219 237.480469 154.175781 C 235.9375 154.109375 234.753906 153.023438 233.265625 152.738281 C 230.988281 152.296875 228.257812 152.835938 225.8125 152.449219 C 222.0625 151.851562 217.695312 150.273438 214.796875 150.148438 C 218.925781 156.261719 223.3125 162.148438 228.730469 167.117188 C 231.078125 166.855469 231.792969 168.042969 233.917969 167.980469 C 232.222656 163.042969 226.355469 158.796875 226.785156 153.886719 C 228.800781 154.527344 228.308594 156.433594 229.054688 157.914062 C 230.90625 161.597656 234.542969 164.988281 235.210938 168.554688 C 237.734375 168.8125 239.410156 169.8125 242.019531 169.996094 C 242.875 169.765625 241.292969 168.640625 242.664062 168.554688 C 245.582031 170.09375 251.609375 168.863281 252.710938 172.007812 C 249.394531 171.761719 246.40625 172.992188 243.3125 174.3125 C 244.152344 175.289062 243.976562 177.171875 243.960938 178.910156 C 245.855469 178.582031 244.582031 175.4375 245.90625 174.597656 C 248.609375 175.632812 246.0625 180.683594 247.527344 181.5 C 248.707031 179.636719 246.886719 176.890625 248.824219 175.746094 C 251.097656 177.5625 248.746094 182.183594 250.441406 184.089844 C 252.035156 179.082031 252.757812 173.296875 254.65625 168.554688 Z M 245.582031 138.066406 C 245.507812 139.761719 247.410156 139.703125 248.171875 140.65625 C 248.082031 142.558594 248.3125 144.179688 249.144531 145.257812 C 250.105469 144.347656 248.078125 141.621094 249.792969 140.941406 C 251.347656 140.902344 250.96875 142.582031 253.035156 142.09375 C 251.5625 139.390625 247.410156 139.222656 245.582031 138.066406 Z M 248.824219 192.144531 C 243.640625 190.890625 241.984375 186.511719 234.886719 186.964844 C 231.660156 185.355469 229.007812 183.105469 225.164062 182.652344 C 224.167969 182.535156 222.972656 182.863281 221.925781 182.652344 C 220.933594 182.449219 220.207031 181.441406 219.332031 181.210938 C 218.402344 180.96875 217.152344 181.371094 216.09375 181.210938 C 214.722656 181.007812 213.351562 180.214844 212.203125 180.0625 C 203.277344 178.882812 195.203125 182.976562 186.925781 184.664062 C 187.996094 180.890625 193.273438 181.574219 196.324219 180.636719 C 197.777344 180.191406 198.808594 179.195312 200.214844 178.914062 C 204.203125 178.109375 209.632812 177.5 213.5 178.050781 C 216.484375 178.472656 219.394531 180.3125 222.574219 180.925781 C 227.46875 181.867188 231.828125 182.613281 234.886719 185.238281 C 241.933594 184.210938 244.015625 190.492188 248.824219 189.554688 C 247.359375 189.753906 248.078125 189.070312 248.171875 188.402344 C 246.882812 188.246094 247.199219 188.246094 245.90625 188.402344 C 245.351562 187.84375 245.34375 186.792969 244.933594 186.101562 C 242.5625 186.949219 242.222656 184.5625 240.71875 183.800781 C 233.226562 182.6875 227.097656 177.867188 219.65625 175.746094 C 219.152344 174.839844 220.050781 174.03125 219.011719 174.019531 C 213.464844 174.726562 209.429688 175.105469 204.429688 175.171875 C 205.285156 174.921875 206.394531 175.875 205.722656 176.035156 C 200.734375 174.914062 195.714844 179.777344 191.789062 177.761719 C 189.691406 179.828125 187.679688 181.972656 184.335938 182.9375 C 187.742188 185.128906 186.378906 190.804688 185.308594 194.445312 C 190.53125 197.863281 198.914062 198.472656 202.804688 203.074219 C 211.300781 203.910156 219.148438 200.511719 227.433594 204.222656 C 227.941406 203.203125 226.332031 204.050781 226.460938 203.359375 C 232.339844 204.757812 238.640625 205.78125 242.988281 208.539062 C 244.007812 208.675781 243.722656 207.65625 244.933594 207.960938 C 245.636719 209.066406 247.148438 209.449219 248.171875 210.265625 C 250.535156 204.441406 248.613281 199.40625 248.824219 192.144531 Z M 243.632812 170.570312 C 243.488281 171.492188 242.402344 171.585938 242.339844 172.585938 C 243.875 172.125 246.132812 172.308594 246.550781 170.859375 C 245.371094 170.945312 244.445312 170.8125 243.632812 170.570312 Z M 226.460938 229.824219 C 226.28125 229.824219 226.09375 229.589844 226.460938 229.535156 C 232.429688 229.703125 235.890625 232.097656 241.367188 232.699219 C 245.539062 230.015625 244.4375 222.449219 246.230469 218.316406 C 244.578125 217.746094 240.1875 216.511719 236.832031 217.457031 C 235.789062 216.941406 235.1875 216.039062 234.886719 214.867188 C 231.761719 213.226562 227.171875 214.269531 222.898438 214.003906 C 217.058594 213.644531 211.292969 210.695312 206.042969 211.992188 C 206.277344 211.234375 207.898438 211.714844 207.992188 210.839844 C 201.519531 210.273438 192.402344 208.988281 186.28125 209.113281 C 175.558594 215.59375 161.359375 209.84375 147.070312 213.71875 C 146.113281 214.460938 148.28125 215.042969 147.394531 215.730469 C 140.421875 217.402344 136.96875 222.203125 130.542969 224.359375 C 133.292969 229.019531 132.226562 233.683594 133.785156 239.316406 C 137.824219 239.273438 148.832031 236.917969 149.664062 240.753906 C 144.832031 240 137.796875 240.238281 133.136719 241.90625 C 133.503906 244.441406 131.710938 245.050781 131.515625 247.082031 C 133.296875 247.894531 135.699219 246.492188 137.347656 247.082031 C 137.410156 245.6875 135.578125 245.96875 135.726562 244.496094 C 140.171875 245.054688 144.207031 244.375 148.6875 244.207031 C 148.480469 243.082031 146.75 242.988281 147.71875 241.617188 C 150.660156 242.367188 153.222656 240.917969 155.820312 240.46875 C 157.003906 236.976562 155.566406 233.40625 157.117188 230.972656 C 158.761719 228.386719 164.578125 226.769531 167.808594 225.222656 C 172.042969 223.191406 175.832031 221.398438 178.503906 219.183594 C 176.5 218.820312 176.085938 219.148438 173.640625 219.183594 C 173.371094 218.460938 172.753906 218.050781 172.667969 217.167969 C 173.367188 216.730469 173.636719 215.917969 174.9375 216.015625 C 175.691406 217.246094 174 217.484375 175.261719 218.03125 C 176.066406 217.210938 178.101562 217.484375 178.179688 216.015625 C 180.335938 215.855469 182.121094 213.914062 184.335938 213.429688 C 187.359375 212.765625 192.03125 214.019531 195.675781 214.003906 C 198.648438 213.992188 201.480469 213.867188 204.101562 213.71875 C 209.433594 213.414062 212.09375 215.789062 217.0625 216.59375 C 220.210938 217.101562 223.835938 216.652344 226.136719 217.167969 C 231.199219 218.308594 234.574219 221.425781 238.773438 222.347656 C 240.929688 222.816406 242.671875 221.550781 243.632812 223.496094 C 243.074219 224.738281 240.664062 224.527344 238.773438 224.070312 C 235.753906 223.34375 232.28125 220.792969 228.730469 219.757812 C 223.722656 218.296875 219.261719 219.511719 215.117188 218.03125 C 213.945312 222.292969 218.703125 224.171875 217.710938 226.371094 C 215.335938 224.074219 213.34375 221.429688 213.175781 217.167969 C 211.277344 217.496094 210.320312 215.820312 209.285156 216.304688 C 209.253906 219.640625 213.085938 222.160156 213.5 224.933594 C 211.589844 224.121094 211.054688 222.035156 209.933594 220.621094 C 208.757812 219.136719 207.253906 217.890625 206.695312 216.015625 C 202.558594 215.796875 199.335938 216.386719 195.351562 216.304688 C 199.042969 218.300781 203.914062 219.25 206.371094 222.347656 C 202.953125 221.363281 199.960938 219.328125 196.324219 218.605469 C 195.582031 218.457031 194.105469 218.601562 193.410156 218.316406 C 192.101562 217.789062 191.671875 215.867188 190.492188 215.441406 C 188.449219 214.707031 186.339844 216.238281 184.011719 215.441406 C 183.757812 216.722656 184.441406 217.167969 184.335938 218.316406 C 187.679688 219.183594 189.140625 221.722656 193.734375 221.484375 C 194.40625 222.035156 194.96875 222.683594 195.351562 223.496094 C 196.414062 223.027344 196.589844 223.5625 197.945312 223.496094 C 198.210938 222.472656 195.9375 222.234375 196.972656 221.484375 C 201.675781 221.382812 205.273438 223.828125 209.285156 225.222656 C 214.878906 227.164062 221.503906 226.183594 228.40625 227.523438 C 228.179688 228.410156 228.179688 228.074219 228.40625 228.960938 C 226.507812 229.167969 226.191406 229.039062 224.191406 228.960938 C 224.226562 229.71875 226.421875 230.023438 226.460938 229.824219 Z M 240.71875 209.113281 C 237.320312 210.601562 232.234375 210.59375 229.375 212.566406 C 232.972656 212.632812 235.316406 213.816406 237.15625 215.441406 C 240.675781 215.425781 242.484375 215.4375 244.929688 216.015625 C 247.734375 211.640625 244.667969 209.5 240.71875 209.113281 Z M 242.988281 244.78125 C 241.308594 246.070312 241.542969 249.0625 241.042969 251.398438 C 241.910156 251.066406 243.648438 251.226562 244.28125 250.824219 C 242.753906 249.347656 244.472656 245.703125 242.988281 244.78125 Z M 241.367188 119.945312 C 237.984375 121.71875 233.894531 123.339844 230.027344 125.984375 C 235.101562 126.441406 239.222656 122.09375 243.3125 121.671875 C 243.296875 121.273438 243.464844 121.039062 243.632812 120.808594 C 242.824219 120.570312 242.363281 120.019531 241.367188 119.945312 Z M 243.3125 240.179688 C 243.339844 237.882812 242.679688 237.148438 242.988281 235.003906 C 236.914062 234.335938 228.132812 235.449219 224.519531 231.550781 C 221.8125 230.378906 218.769531 231.152344 215.769531 230.398438 C 212.863281 229.671875 210.84375 227.597656 207.667969 226.949219 C 203.101562 226.015625 196.304688 225.050781 193.734375 226.660156 C 192.671875 226.410156 191.589844 226.558594 190.816406 225.507812 C 190.375 224.21875 192.246094 224.226562 191.464844 223.496094 C 188.898438 224.097656 186.8125 220.914062 184.984375 220.90625 C 185.191406 222.042969 185.984375 223.023438 184.984375 223.785156 C 183.648438 224.011719 184.375 222.40625 183.039062 222.632812 C 182.664062 224.699219 182.949219 227.347656 181.742188 228.671875 C 180.480469 228.277344 179.863281 227.746094 180.445312 226.375 C 174.21875 228.417969 170.347656 232.558594 165.21875 235.578125 C 164.742188 235.328125 164.1875 235.148438 164.242188 234.425781 C 164.351562 233.371094 165.898438 233.597656 165.863281 232.414062 C 163.171875 233.859375 160.8125 236.8125 157.761719 237.015625 C 158.011719 239.058594 157.363281 240.300781 157.4375 242.191406 C 155.8125 242.570312 153.441406 242.289062 153.550781 244.207031 C 157.0625 244.585938 159.753906 241.300781 162.949219 241.617188 C 167.640625 242.082031 172.945312 243.582031 177.851562 244.496094 C 178.820312 240.453125 176.699219 235.175781 176.882812 231.835938 C 179.992188 234.148438 179.109375 241.453125 179.796875 244.207031 C 181.796875 244.160156 183.699219 244.027344 184.65625 243.054688 C 184.457031 238.730469 180.550781 236.160156 180.769531 232.414062 C 183.144531 234.699219 184.839844 238.53125 185.308594 241.617188 C 186.792969 241.902344 187.507812 239.703125 190.167969 240.753906 C 189.484375 237.621094 186.304688 235.171875 186.925781 231.839844 C 188.945312 234.074219 189.820312 237.324219 191.140625 240.179688 C 192.246094 239.722656 193.710938 239.585938 195.03125 239.316406 C 195.289062 239.855469 195.570312 240.371094 195.675781 241.042969 C 197.09375 241.050781 198.203125 240.792969 199.238281 240.46875 C 199 236.988281 194.722656 234.183594 196.324219 230.972656 C 197.621094 231.167969 197.742188 232.402344 197.621094 233.851562 C 198.722656 235.558594 199.964844 237.140625 199.886719 239.894531 C 200.792969 240.546875 201.488281 239.601562 202.480469 240.179688 C 202.066406 240.558594 202.066406 241.238281 202.480469 241.617188 C 204.601562 241.292969 207.335938 241.515625 208.3125 240.179688 C 208.785156 238.160156 204.234375 235.265625 206.046875 232.988281 C 208.460938 235.160156 209.121094 238.890625 210.261719 242.191406 C 208.566406 242.894531 206.613281 243.367188 205.074219 244.207031 C 207.757812 244.535156 211.972656 243.835938 215.121094 243.632812 C 216.445312 247.035156 222.128906 244.703125 225.164062 245.644531 C 225.664062 247.042969 224.226562 246.726562 224.195312 247.660156 C 227.296875 248.140625 230.28125 245.882812 231.96875 248.808594 C 233.96875 248.816406 236.128906 248.375 238.128906 247.660156 C 238.433594 243.902344 241.300781 242.421875 243.3125 240.179688 Z M 228.730469 175.460938 C 228.027344 176.6875 226.304688 175.570312 224.839844 175.746094 C 226.417969 177.039062 229.339844 178.65625 231.324219 178.625 C 230.972656 177.878906 229.703125 177.953125 230.027344 176.609375 C 233.464844 177.203125 234.523438 179.90625 237.480469 180.925781 C 237.773438 179.605469 235.289062 177.023438 235.859375 175.460938 C 239.328125 174.972656 237.230469 179.417969 239.425781 180.0625 C 240.320312 178.582031 239.011719 176.863281 239.425781 174.882812 C 240.042969 175.425781 240.007812 174.714844 241.042969 174.882812 C 241.226562 176.160156 240.480469 178.261719 242.015625 178.335938 C 242.300781 177.101562 241.78125 175.789062 242.339844 174.3125 C 237.375 172.65625 234.214844 177.34375 228.730469 175.460938 Z M 240.070312 132.890625 C 239.488281 131.296875 238.792969 129.804688 236.832031 129.4375 C 236.503906 130.765625 239.101562 131.777344 240.070312 132.890625 Z M 238.773438 249.386719 C 237.921875 250.449219 235.074219 249.742188 234.238281 250.824219 C 235.75 251.492188 237.652344 251.820312 239.421875 252.261719 C 239.25 251.261719 239.90625 249.53125 238.773438 249.386719 Z M 183.6875 184.378906 C 183.65625 183.441406 181.757812 184.175781 182.066406 182.941406 C 183.492188 179.234375 185.03125 175.789062 185.632812 171.433594 C 186.929688 169.988281 190.445312 170.738281 189.84375 173.445312 C 191.109375 173.214844 192.367188 170.605469 193.734375 172.296875 C 193.78125 173.371094 192.007812 173.785156 192.757812 174.597656 C 194.390625 174.414062 194.867188 173.207031 196.972656 173.445312 C 197.050781 173.855469 197.507812 173.933594 197.621094 174.3125 C 197.480469 174.980469 196.191406 175.078125 196.972656 175.746094 C 200.5 175.253906 204.429688 171.886719 209.285156 173.734375 C 217.980469 168.527344 230.683594 177.0625 237.15625 172.007812 C 233.015625 169.789062 222.398438 170.949219 218.6875 167.40625 C 208.492188 165.949219 202.128906 162.191406 191.140625 161.078125 C 195.746094 165.425781 208.441406 164.128906 211.878906 168.554688 C 207.683594 167.105469 201.910156 167.050781 197.621094 165.679688 C 195.5 167.246094 192.351562 165.910156 189.84375 165.394531 C 186.046875 169.882812 182.417969 174.523438 173.640625 174.597656 C 165.640625 177.910156 156.15625 179.847656 147.394531 181.789062 C 144.839844 181.644531 143.308594 181.917969 141.5625 183.226562 C 139.136719 185.042969 136.898438 188.519531 133.457031 190.417969 C 133.824219 190.480469 133.964844 190.734375 134.109375 190.992188 C 132.949219 191.210938 132.050781 191.660156 131.839844 192.71875 C 131.886719 193.828125 132.9375 194.046875 132.8125 195.308594 L 136.050781 195.308594 C 136.164062 194.273438 136.546875 193.921875 136.050781 193.007812 C 140.449219 190.003906 145.015625 185.621094 151.28125 185.238281 C 150.398438 185.894531 149.28125 186.339844 149.011719 187.542969 C 152.398438 186.21875 155.1875 182.878906 158.410156 182.363281 C 153.566406 186.5 147.890625 189.902344 143.832031 194.730469 C 144.832031 195.011719 145.417969 195.453125 144.800781 196.457031 C 147.3125 197.292969 148.125 195.042969 150.3125 194.730469 C 151.578125 196.199219 153.269531 193.960938 155.820312 194.15625 C 155.84375 193.65625 155.746094 193.261719 155.492188 193.007812 C 160.4375 188.957031 166.09375 184.007812 171.050781 180.925781 C 167.59375 186.105469 161.625 189.054688 158.085938 194.15625 C 160.757812 194.039062 161.789062 193.734375 163.917969 193.582031 L 163.917969 192.144531 C 167.734375 189.773438 169.621094 184.164062 174.292969 183.511719 C 171.652344 186.363281 168.222656 190.007812 166.835938 193.007812 C 170.804688 192.238281 177.566406 192.636719 181.742188 192.144531 C 182.136719 190.671875 182.941406 189.566406 183.039062 187.828125 C 181.964844 187.570312 181.632812 189.429688 181.09375 188.691406 C 182.332031 187.582031 183.734375 186.625 183.6875 184.378906 Z M 213.175781 204.511719 C 208.011719 207.066406 200.851562 204.257812 195.03125 204.222656 C 194.039062 204.21875 193.25 204.589844 192.4375 204.511719 C 187.8125 204.074219 187.09375 199.671875 185.308594 197.320312 C 183.234375 197.050781 182.164062 196.40625 180.449219 195.308594 C 176.003906 196.222656 168.359375 195.617188 169.105469 200.195312 C 164.625 201.804688 160.597656 205.269531 155.820312 205.664062 C 154.550781 207.796875 151.210938 208.632812 149.664062 209.691406 C 149.230469 209.402344 148.683594 209.214844 148.363281 208.828125 C 152.871094 205.445312 159.652344 204.082031 163.917969 200.488281 C 155.984375 203.671875 148.234375 206.453125 142.53125 209.691406 C 141.964844 209.425781 141.40625 209.15625 141.5625 208.253906 C 147.113281 206.660156 151.367188 203.917969 156.792969 202.210938 C 159.492188 197.699219 167.296875 196.535156 171.699219 194.445312 C 163.398438 194.652344 155.796875 197.972656 150.632812 201.925781 C 144.664062 203.316406 140.40625 208.050781 134.105469 207.390625 C 134.078125 208.609375 133.089844 208.976562 132.488281 209.691406 C 131.554688 209.5625 131.722656 208.453125 130.867188 208.25 C 130.027344 210.09375 129.390625 212.117188 128.597656 214.003906 C 133.773438 216.230469 138.472656 212.800781 144.476562 213.140625 C 145.273438 212.792969 145.105469 211.589844 146.097656 211.417969 C 153.339844 209.988281 160.417969 209.605469 167.808594 209.691406 C 169.746094 209.710938 171.789062 210.375 173.640625 210.265625 C 179.644531 209.910156 184.136719 206.777344 190.167969 206.8125 C 195.207031 206.84375 201.148438 207.730469 206.371094 208.539062 C 208.164062 208.816406 211.039062 209.796875 212.851562 209.691406 C 217.238281 209.433594 221.046875 205.183594 225.488281 205.664062 C 225.65625 206.472656 226.273438 206.882812 226.460938 207.675781 C 225.695312 207.765625 225.855469 208.675781 224.839844 208.539062 C 223.859375 208.453125 223.933594 207.429688 222.898438 207.390625 C 219.804688 209.121094 216.945312 207.765625 214.46875 210.265625 C 221.8125 213.726562 231.617188 211.601562 237.15625 207.390625 C 229.453125 205.554688 221.886719 204.3125 213.175781 204.511719 Z M 227.109375 249.386719 C 226.832031 250.445312 230.21875 250.832031 230.027344 249.960938 C 228.816406 249.777344 228.4375 248.6875 227.109375 249.386719 Z M 217.386719 303.171875 C 219.757812 305.839844 227.257812 303.265625 229.699219 300.871094 C 225.121094 300.085938 220.554688 301.746094 217.386719 303.171875 Z M 225.164062 295.980469 C 226.46875 295.796875 228.609375 296.355469 229.375 295.695312 C 227.980469 294.886719 226.035156 294.605469 225.164062 295.980469 Z M 213.824219 300.871094 C 218.992188 300.917969 223.953125 298.382812 228.730469 297.132812 C 228.777344 296.792969 229.304688 296.480469 228.730469 296.269531 C 224.476562 297.734375 217.464844 298.039062 213.824219 300.871094 Z M 222.25 313.527344 C 223.558594 313.382812 227.101562 312.894531 227.757812 311.226562 C 225.644531 311.761719 223.679688 311.878906 222.25 313.527344 Z M 213.5 150.433594 C 213.972656 150.847656 214.523438 150.65625 214.46875 149.859375 C 209.457031 148.535156 204.355469 148.265625 199.886719 146.984375 C 204.082031 153.332031 208.859375 159.15625 214.46875 164.242188 C 215.492188 164.382812 215.207031 163.359375 216.417969 163.667969 C 216.160156 163.867188 215.695312 165.273438 216.417969 165.390625 C 217.171875 164.558594 218.164062 165.933594 219.332031 165.679688 C 215.972656 162.453125 212.75 159.296875 209.609375 155.898438 C 207.523438 153.640625 204.925781 151.339844 204.101562 148.710938 C 212.65625 153.761719 214.75 164.894531 225.488281 166.542969 C 226.046875 166.558594 226.320312 166.320312 226.460938 165.96875 C 221.386719 161.460938 216.660156 156.644531 213.5 150.433594 Z M 222.574219 293.105469 C 222.285156 294.289062 219.238281 293.019531 219.332031 294.542969 C 221.609375 294.453125 222.625 294.382812 224.191406 294.257812 C 224.242188 293.351562 223.363281 293.269531 222.574219 293.105469 Z M 209.285156 297.996094 C 209.5625 298.898438 210.535156 299.1875 211.554688 299.433594 C 213.035156 296.71875 218.789062 297.804688 220.949219 295.695312 C 216.433594 295.898438 213.300781 297.339844 209.285156 297.996094 Z M 217.0625 292.242188 C 217.621094 292.59375 219.652344 292.410156 219.980469 291.667969 C 218.992188 291.648438 217.011719 290.722656 217.0625 292.242188 Z M 214.148438 227.808594 C 214.832031 228.066406 215.105469 228.6875 216.09375 228.671875 C 216.109375 228.304688 216.507812 228.273438 216.417969 227.808594 C 215.835938 227.519531 214.425781 226.710938 214.148438 227.808594 Z M 203.453125 295.980469 C 206.390625 296.542969 211.597656 294.484375 215.769531 294.257812 C 215.785156 293.886719 216.183594 293.859375 216.09375 293.394531 C 211.835938 294.21875 206.851562 294.394531 203.453125 295.980469 Z M 196.972656 146.984375 C 196.089844 147.007812 196.320312 146.503906 195.675781 146.984375 C 199.125 151.976562 201.902344 157.566406 206.695312 161.363281 C 207.917969 161.78125 207.316406 160.574219 208.3125 160.789062 C 208.570312 160.992188 209.035156 162.394531 208.3125 162.515625 C 200.339844 160.769531 198.859375 150.777344 192.4375 146.695312 C 192.765625 148.738281 196.308594 150.328125 196.972656 153.023438 C 195.492188 152.128906 194.945312 150.414062 193.410156 149.570312 C 193.410156 153.328125 198.441406 160.992188 202.804688 160.503906 C 202.703125 160.890625 202.34375 161.050781 202.480469 161.652344 C 205.394531 162.902344 209.125 163.429688 212.527344 164.242188 C 212.78125 164.179688 212.902344 164 212.851562 163.667969 C 206.191406 159.320312 202.652344 152.199219 196.972656 146.984375 Z M 188.871094 255.710938 C 189.253906 255.851562 189.605469 256.019531 189.84375 256.285156 C 188.773438 256.964844 188.703125 258.535156 186.925781 258.585938 L 186.925781 261.175781 C 186.164062 261.183594 185.972656 260.683594 184.984375 260.890625 C 183.355469 262.609375 182.234375 264.78125 179.796875 265.78125 C 177.027344 263.089844 182.546875 261.167969 183.363281 258.875 C 180.28125 257.390625 178.289062 254.941406 174.292969 254.273438 C 175.519531 257.304688 177.84375 259.363281 179.476562 262.039062 C 177.003906 262.882812 176.449219 268.28125 176.882812 269.804688 C 178.269531 268.847656 180.320312 267 182.066406 268.078125 C 187.285156 262.742188 192.335938 257.253906 197.945312 252.261719 C 197.644531 251.953125 196.75 252.171875 196.972656 251.398438 C 199.34375 251.007812 199.585938 248.734375 202.480469 248.808594 C 202.480469 249.097656 202.742188 249.152344 202.804688 249.382812 C 201.085938 252.746094 197.691406 254.621094 194.707031 256.863281 C 191.859375 260.953125 187.863281 264.019531 184.984375 268.078125 C 186.527344 267.722656 188.144531 267.433594 189.523438 266.929688 C 189.523438 266.417969 188.648438 265.257812 189.523438 264.917969 C 190.316406 264.878906 191.082031 264.875 191.464844 265.203125 C 197.582031 260.183594 202.929688 254.476562 208.960938 249.382812 C 200.359375 245.230469 187.308594 247.570312 177.207031 249.382812 C 177.027344 248.679688 175.953125 248.769531 176.234375 247.660156 C 178.582031 247.351562 181.089844 247.757812 182.714844 246.21875 C 175.261719 247.0625 168.65625 243.503906 162.300781 244.207031 C 159.6875 244.496094 156.347656 246.832031 153.226562 247.371094 C 151.289062 247.703125 150.359375 247.46875 149.664062 248.808594 C 154.316406 248.289062 157.894531 246.441406 161.652344 245.933594 C 162.054688 248.667969 166.621094 245.488281 167.808594 246.21875 C 167.519531 248.484375 168.773438 249.597656 170.398438 250.820312 C 170.433594 250.371094 170.359375 249.824219 171.050781 249.960938 C 172.925781 252.460938 178.078125 251.429688 180.449219 253.984375 C 179.875 254.050781 178.824219 253.695312 179.148438 254.5625 C 180.933594 255.757812 182.167969 257.445312 184.65625 258.011719 C 188.199219 255.472656 191.375 251.15625 195.675781 250.246094 C 195.832031 253.050781 191.09375 255.035156 188.871094 255.710938 Z M 200.214844 56.664062 C 199.414062 55.488281 197.320312 54.136719 197.621094 52.921875 C 200.070312 52.765625 202.128906 53.269531 203.128906 52.351562 C 199.453125 51.117188 196.859375 52.355469 193.085938 52.636719 C 193.132812 53.351562 192.917969 53.832031 192.4375 54.074219 C 188.476562 53.410156 185.445312 54.832031 182.390625 52.351562 C 181.835938 52.71875 182.382812 54.070312 181.417969 54.074219 C 178.914062 53.023438 175.742188 54.175781 172.992188 54.074219 C 172.707031 55.125 173.566406 55.605469 172.992188 56.089844 C 169.402344 56.546875 166.1875 57.335938 162.949219 58.101562 C 162.957031 59.550781 161.445312 59.644531 159.707031 59.539062 C 159.335938 59.878906 159.339844 60.558594 159.382812 61.265625 C 152.246094 65.382812 145.988281 70.28125 140.910156 76.222656 C 140.347656 76.203125 139.902344 76.289062 139.617188 76.511719 C 135.226562 83.277344 130.789062 90.652344 127.304688 98.945312 C 129.445312 98.933594 130.59375 98.03125 132.164062 97.507812 C 131.660156 94.761719 134.613281 93.15625 134.105469 90.316406 C 137.90625 90.507812 134.519531 93.960938 134.757812 96.070312 C 135.707031 96.476562 137.320312 95.386719 138.644531 95.207031 C 139.246094 95.714844 138.503906 96.046875 138.320312 96.644531 C 145.125 93.714844 152.351562 98.992188 158.410156 97.507812 C 161.886719 98.613281 163.578125 101.195312 167.484375 100.960938 C 169.179688 100.855469 170.734375 99.757812 172.667969 99.808594 C 175.117188 99.875 177.136719 101.265625 179.476562 100.671875 C 178.855469 100.429688 178.597656 99.410156 179.148438 98.945312 C 180.195312 99.363281 180.585938 100.355469 181.09375 101.246094 C 182.160156 100.546875 185.496094 101.375 185.957031 102.972656 C 184.753906 103.855469 183.570312 102.808594 182.390625 102.6875 C 176.773438 102.113281 171.035156 101.5 165.539062 102.972656 C 161.699219 106.085938 156.09375 109.160156 153.550781 112.464844 C 155.777344 111.066406 158.535156 109.472656 161.328125 108.152344 C 164.105469 106.839844 167.652344 104.910156 169.75 105.273438 C 168.949219 106.351562 167.214844 107.917969 165.863281 107.574219 C 163.660156 110.007812 159.738281 113.207031 155.820312 115.054688 C 155.542969 116.753906 153.296875 119.359375 151.605469 117.929688 C 154.753906 114.300781 159.105469 111.742188 162.621094 108.4375 C 157.378906 110.417969 152.441406 113.558594 148.6875 116.78125 C 147.640625 117.683594 146.160156 120.457031 144.152344 118.792969 C 148.316406 114.050781 154.257812 110.886719 158.410156 106.140625 C 158.40625 105.332031 157.527344 106.824219 157.761719 105.5625 C 159.898438 104.578125 162.148438 103.703125 163.59375 102.109375 C 163.496094 101.335938 162.234375 101.59375 161.976562 100.960938 C 157.992188 102.421875 155.859375 106.03125 152.578125 107.289062 C 151.191406 111.964844 143.976562 113.28125 141.886719 118.21875 C 145.085938 121.515625 149.300781 123.90625 152.253906 127.421875 C 157.71875 123.550781 165.664062 121.878906 172.992188 119.65625 C 172.972656 117.632812 177.539062 114.105469 177.207031 111.601562 C 177.148438 111.164062 174.707031 109.464844 175.261719 109.015625 C 175.679688 108.671875 177.695312 110.40625 178.503906 110.453125 C 179.273438 108.546875 179.390625 106.0625 180.445312 104.410156 C 183.609375 104.863281 184.414062 107.40625 184.984375 110.164062 C 186.871094 108.582031 187.148438 105.566406 187.898438 102.972656 C 183.199219 99.171875 187.824219 93.265625 185.953125 87.152344 C 186.425781 86.613281 187.019531 86.183594 187.574219 85.714844 C 186.003906 77.089844 188.910156 72.792969 190.167969 65.582031 C 191.695312 64.347656 193.578125 63.429688 194.707031 61.839844 C 194.019531 61.300781 192.144531 61.8125 192.757812 60.117188 C 188.515625 59.421875 184.042969 60.707031 181.417969 58.675781 C 181.476562 56.324219 178.160156 56.96875 178.179688 54.648438 C 183.277344 56.359375 189.957031 56.523438 195.351562 54.074219 C 195.070312 54.996094 196.191406 54.671875 196.324219 55.226562 C 195.320312 57.019531 191.195312 56.039062 191.140625 58.675781 C 193.101562 58.886719 195.511719 57.300781 196.972656 58.964844 C 196.136719 59.375 195.140625 59.636719 195.027344 60.691406 C 198.183594 61.652344 201.046875 58.199219 203.453125 56.664062 C 202 55.996094 201.105469 57.066406 200.214844 56.664062 Z M 198.59375 245.070312 C 199.648438 244.800781 201.574219 246.1875 201.832031 244.78125 C 201.023438 244.382812 198.769531 243.625 198.59375 245.070312 Z M 190.167969 198.472656 C 193.074219 200.203125 195.320312 202.527344 199.566406 203.074219 C 199.582031 202.707031 199.980469 202.675781 199.886719 202.210938 C 196.914062 200.917969 193.367188 198.601562 190.167969 198.472656 Z M 199.566406 129.148438 C 198.402344 126.253906 198.214844 122.484375 197.621094 119.082031 C 193.105469 118.078125 189.28125 121.398438 184.984375 120.519531 C 185.367188 119.667969 187.191406 120.480469 187.574219 119.082031 C 184.429688 117.273438 184.324219 112.761719 182.390625 109.878906 C 181.191406 111.363281 181.539062 112.730469 182.390625 114.191406 C 180.308594 115.527344 178.453125 117.882812 175.910156 117.929688 C 176.167969 118.929688 175.425781 119.039062 175.585938 119.945312 C 172.179688 121.542969 167.664062 123.625 163.269531 124.835938 C 160.71875 125.539062 158.355469 125.308594 156.46875 126.5625 C 154.503906 127.863281 153.910156 130.199219 151.605469 129.4375 C 148.46875 124.9375 143.828125 121.769531 138.96875 118.796875 C 139.234375 117.980469 138.511719 118.050781 138.644531 117.359375 C 137.535156 117.28125 137.085938 116.628906 135.726562 116.78125 C 135.734375 116.105469 135.167969 115.933594 135.40625 115.054688 C 132.617188 114.078125 130.605469 110.878906 127.625 111.027344 C 128.519531 114.785156 126.503906 119.960938 127.625 123.972656 C 127.898438 124.945312 129.160156 125.636719 129.25 126.5625 C 129.449219 128.65625 127.519531 129.941406 126.65625 132.027344 C 125.234375 135.449219 126.128906 138.929688 126.332031 142.667969 C 127.160156 141.292969 127.363281 139.367188 128.597656 138.355469 C 128.789062 137.132812 126.851562 137.796875 127.304688 136.339844 C 129.441406 136.167969 131.652344 134.5 133.136719 132.886719 C 137.902344 132.230469 140.601562 129.738281 145.449219 129.148438 C 145.480469 128.699219 145.40625 128.152344 146.097656 128.285156 C 147.273438 128.390625 147.300781 129.519531 148.363281 129.726562 C 152.335938 130.273438 154.714844 134.601562 160.03125 134.902344 C 162.253906 133.59375 164.242188 133.054688 167.808594 133.464844 C 170.207031 130.226562 169.359375 124.105469 173.316406 122.246094 C 172.886719 125.808594 170.34375 129.953125 169.105469 133.753906 C 170.394531 133.679688 171.808594 134.652344 173.964844 134.613281 C 175.824219 132.867188 174.429688 124.152344 178.824219 123.972656 C 177.851562 126.703125 175.964844 131.53125 176.230469 133.464844 C 178.671875 131.164062 182.417969 128.917969 182.714844 124.835938 C 182.933594 121.789062 180.964844 118.871094 181.742188 116.207031 C 182.691406 116.417969 183.136719 117.078125 183.6875 117.644531 C 184.101562 116.898438 184.355469 116.738281 185.304688 117.070312 C 183.476562 119.828125 184.542969 123.746094 185.304688 126.5625 C 185.6875 126.132812 185.585938 125.277344 186.605469 125.410156 C 188.589844 127.441406 185.925781 130.976562 186.28125 133.464844 C 188.027344 133.0625 187.996094 134.242188 189.195312 134.328125 C 190.546875 133.226562 192.652344 132.792969 193.085938 130.875 C 193.460938 131.117188 193.953125 131.253906 194.703125 131.164062 C 194.210938 127.175781 193.761719 124.582031 194.378906 119.945312 L 195.675781 119.945312 C 196.480469 124.117188 195.625 127.449219 195.675781 130.875 C 196.808594 130.152344 199.1875 130.539062 199.566406 129.148438 Z M 190.816406 148.132812 C 189.195312 148.230469 188.359375 149.019531 187.25 149.570312 C 187.921875 152.523438 188.402344 155.644531 189.195312 158.488281 C 192.074219 159.4375 196.054688 159.628906 198.59375 160.214844 C 195.039062 157.042969 192.136719 153.292969 190.816406 148.132812 Z M 188.546875 199.621094 C 189.003906 202.652344 192.632812 203.957031 195.675781 203.074219 C 193.226562 202.15625 190.535156 200.003906 188.546875 199.621094 Z M 192.113281 314.390625 C 192.453125 316.605469 190.417969 317.433594 191.789062 318.992188 C 193.679688 317.984375 194.597656 316.117188 195.351562 314.101562 C 194.148438 314.289062 193.316406 314.980469 192.113281 314.390625 Z M 192.113281 244.207031 C 192.019531 244.960938 192.230469 245.441406 193.085938 245.355469 C 193.101562 244.988281 193.5 244.960938 193.410156 244.496094 C 192.972656 244.402344 192.789062 244.085938 192.113281 244.207031 Z M 190.167969 46.308594 C 191.121094 46.515625 191.40625 47.320312 192.757812 47.171875 L 192.757812 44.871094 C 191.757812 45.230469 190.21875 45.109375 190.167969 46.308594 Z M 185.308594 49.472656 C 187.804688 49.714844 191.128906 49.664062 192.757812 48.609375 L 192.757812 47.746094 C 190.78125 48.769531 187.148438 48.328125 185.308594 49.472656 Z M 183.039062 292.242188 C 186.050781 291.65625 190.421875 292.277344 192.113281 290.515625 C 188.898438 290.921875 184.898438 290.632812 183.039062 292.242188 Z M 188.546875 145.257812 C 188.3125 146.136719 188.878906 146.304688 188.871094 146.984375 C 189.765625 146.820312 190.6875 146.679688 190.492188 145.546875 C 189.5 145.753906 189.535156 145.050781 188.546875 145.257812 Z M 186.605469 312.953125 C 187.5625 314.878906 186.105469 318.957031 188.871094 319.28125 C 190.171875 316.886719 192.0625 312.359375 186.605469 312.953125 Z M 188.222656 161.652344 C 187.726562 162.699219 189.410156 163.246094 189.84375 162.515625 C 189.53125 162.027344 188.824219 161.886719 188.222656 161.652344 Z M 181.417969 271.53125 C 184.636719 270.59375 186.785156 271.203125 189.84375 269.519531 C 187.582031 268 183.375 269.75 181.417969 271.53125 Z M 189.195312 323.59375 C 186.46875 325.871094 181.886719 326.503906 179.476562 329.058594 C 182.847656 328.871094 185.976562 326.027344 189.84375 325.320312 C 189.839844 324.558594 190.023438 323.628906 189.195312 323.59375 Z M 183.6875 328.484375 C 182.046875 329.289062 179.019531 330.046875 178.503906 331.648438 C 182.777344 330.265625 186.828125 328.683594 189.84375 326.183594 C 187.671875 326.597656 185.523438 327.582031 183.6875 328.484375 Z M 178.503906 327.910156 C 181.464844 326.566406 186.367188 324.566406 189.523438 322.445312 C 184.929688 322.878906 183.367188 325.996094 178.503906 326.183594 C 178.882812 326.945312 177.878906 327.878906 178.503906 327.910156 Z M 172.667969 161.652344 C 170.488281 161.722656 167.027344 162.839844 163.917969 163.378906 C 158.214844 164.371094 153.78125 165.730469 150.632812 167.117188 C 144.40625 173.863281 135.429688 178.171875 128.921875 184.664062 C 129.355469 186.378906 130.109375 188.398438 130.21875 189.554688 C 134.808594 188.386719 137.394531 182.925781 141.5625 180.636719 C 143.480469 179.585938 145.351562 180.074219 147.71875 180.0625 C 152.375 180.039062 156 177.582031 160.679688 176.609375 C 164.671875 175.78125 166.171875 174.570312 169.105469 173.734375 C 173.160156 172.582031 177.195312 172.527344 181.09375 171.144531 C 183.277344 168.960938 186.238281 167.464844 187.574219 164.53125 C 182.144531 165.199219 177.949219 161.488281 172.667969 161.652344 Z M 184.984375 149.570312 C 184.394531 144.917969 180.984375 143.976562 178.824219 141.230469 C 177.054688 143.589844 173.714844 144.558594 171.375 146.40625 L 169.429688 146.40625 C 167.546875 148.527344 164.53125 148.269531 161.652344 149.285156 C 160.398438 149.726562 159.402344 150.894531 158.085938 151.296875 C 154.898438 152.28125 151.066406 151.445312 148.042969 152.449219 C 145.121094 153.417969 144.285156 155.332031 141.886719 156.765625 C 141.199219 159.796875 139.324219 161.777344 138 164.242188 C 139.410156 165.289062 139.839844 167.207031 141.238281 168.269531 C 147.699219 165.761719 151.390625 160.792969 157.761719 158.203125 C 157.816406 157.769531 157.648438 157.140625 158.085938 157.050781 C 161.957031 155.882812 163.265625 152.445312 167.808594 151.875 C 169.160156 149.253906 172.847656 148.214844 176.554688 146.984375 C 171.605469 150.253906 165.84375 152.84375 161.976562 157.050781 C 167.1875 156.472656 173.4375 155.488281 178.503906 156.1875 C 181.847656 156.652344 183.925781 159.339844 186.925781 158.488281 C 186.441406 155.445312 185.359375 152.570312 184.980469 149.570312 Z M 186.605469 162.226562 C 184.585938 161.984375 183.554688 159.378906 181.09375 158.488281 C 178.785156 157.652344 166.476562 157.863281 163.269531 158.488281 C 158.457031 159.429688 155.355469 160.773438 153.875 163.09375 C 157.519531 163.808594 159.996094 162.222656 162.621094 161.652344 C 164.105469 161.332031 166.171875 161.464844 167.808594 161.078125 C 169.730469 160.625 171.027344 159.65625 172.34375 159.640625 C 177.355469 159.570312 181.433594 163.289062 186.605469 163.09375 Z M 184.65625 312.664062 L 182.066406 312.664062 C 182.195312 315.183594 182.789062 317.335938 183.039062 318.992188 C 183.511719 319.4375 184.699219 319.246094 185.632812 319.28125 C 186.226562 317.488281 185.261719 314.917969 184.65625 312.664062 Z M 181.742188 135.191406 C 183.09375 134.949219 183.273438 135.75 184.335938 135.765625 C 184.574219 134.5 183.285156 134.589844 183.039062 133.753906 C 183.472656 133.464844 183.671875 132.972656 184.335938 132.886719 L 184.335938 131.449219 C 182.699219 132.011719 182.433594 133.792969 181.742188 135.191406 Z M 155.171875 304.609375 C 156.804688 305.078125 157.5 306.375 158.410156 307.488281 C 164.726562 309.648438 166.308594 316.011719 173.316406 317.554688 C 171.171875 314.28125 166.144531 313.566406 165.21875 309.214844 C 167.953125 309.566406 169.242188 311.199219 171.050781 312.375 C 171.230469 311.613281 169.71875 310.914062 170.726562 310.363281 C 175.597656 312.171875 176.90625 317.152344 181.09375 319.566406 C 181.535156 317.355469 180.382812 315.277344 180.125 312.089844 C 178.429688 311.867188 177.460938 311 176.558594 310.074219 C 172.964844 308.757812 167.351562 309.234375 164.242188 307.488281 C 172.371094 305.039062 177.34375 309.929688 184.011719 310.652344 C 181.332031 307.242188 178.578125 305.371094 175.585938 302.023438 C 175.917969 301.644531 175.902344 300.960938 176.234375 300.582031 C 167.410156 301.945312 159.78125 301.769531 151.605469 302.882812 C 151.847656 303.769531 150.71875 303.4375 150.957031 304.324219 C 154.453125 306.878906 157.125 310.164062 160.679688 312.664062 C 159.605469 309.648438 154.269531 307.480469 155.171875 304.609375 Z M 178.824219 216.882812 C 180.1875 217.109375 181.148438 217.695312 182.714844 217.742188 L 182.714844 216.304688 C 180.703125 216.496094 179.792969 216.027344 178.824219 216.882812 Z M 180.445312 221.769531 C 179.621094 222.816406 180.226562 223.550781 179.796875 224.648438 C 181.496094 224.804688 181.882812 222.289062 181.417969 221.484375 C 181.363281 221.820312 180.90625 221.796875 180.445312 221.769531 Z M 177.851562 273.257812 C 179.546875 273.324219 180.304688 272.558594 181.09375 271.820312 C 179.757812 271.292969 178.277344 272.128906 177.851562 273.257812 Z M 173.964844 140.082031 C 170.546875 139.734375 169.222656 141.242188 166.1875 141.230469 C 166.21875 140.296875 168.121094 141.027344 167.808594 139.792969 C 163.480469 140.238281 161.902344 141.972656 158.410156 141.804688 C 153.453125 141.570312 146.597656 133.007812 141.238281 138.066406 C 144.316406 143.359375 140.367188 148.695312 141.886719 154.175781 C 144.941406 150.652344 151.394531 150.492188 157.761719 149.570312 C 164.089844 145.503906 174.339844 144.921875 178.179688 138.640625 C 176.085938 139.125 174.488281 138.558594 173.964844 140.082031 Z M 165.21875 300.296875 C 170 299.945312 175.359375 300.097656 178.179688 297.996094 C 172.3125 297.964844 168.933594 297.769531 165.21875 300.296875 Z M 176.882812 273.832031 C 175.246094 274.089844 174.304688 276.183594 175.910156 276.996094 C 176.046875 275.847656 177.824219 275.027344 176.882812 273.832031 Z M 175.261719 134.039062 C 175.597656 134.855469 175.597656 135.238281 175.261719 136.054688 C 176.066406 136.097656 176.265625 135.601562 176.882812 135.476562 C 176.695312 134.683594 176.539062 133.867188 175.261719 134.039062 Z M 160.03125 267.503906 C 161.113281 268.484375 158.132812 268.296875 158.734375 269.804688 C 161.761719 269.769531 165.234375 268.265625 169.75 268.65625 C 171.75 266.65625 173.550781 263.71875 173.640625 260.890625 C 174.558594 260.917969 175.015625 261.972656 175.910156 261.175781 C 176.070312 259.710938 174.527344 258.394531 173.640625 257.148438 C 172.652344 255.761719 171.699219 253.296875 170.398438 253.984375 C 170.667969 255.480469 173.308594 256.382812 172.34375 258.011719 C 167.011719 256.996094 167.644531 250.679688 159.707031 251.972656 C 156.273438 256.085938 151.933594 260.378906 148.363281 263.476562 C 148.128906 264.261719 149.007812 264.058594 149.011719 264.628906 C 146.320312 267.183594 143.765625 268.742188 141.886719 271.53125 C 147.429688 271.472656 149.816406 270.4375 156.144531 269.804688 C 159.496094 266.167969 161.734375 261.539062 167.484375 260.027344 C 167.378906 260.695312 167.535156 261.128906 167.808594 261.464844 C 164.484375 262.695312 162.621094 266.0625 160.03125 267.503906 Z M 175.261719 282.75 C 175.917969 277.949219 173.753906 275.648438 170.398438 274.410156 C 170.410156 272.292969 168.503906 271.875 167.484375 270.667969 C 164.507812 271.136719 161.195312 271.421875 156.792969 271.820312 C 156.582031 273.417969 158.703125 271.15625 158.410156 272.683594 C 155.65625 273.027344 153.378906 275.175781 150.957031 275.847656 C 148.296875 276.585938 148.761719 276.753906 146.742188 277.859375 C 145.996094 278.269531 145.136719 278.5 144.476562 279.011719 C 141.960938 280.960938 137.765625 281.746094 136.375 284.476562 C 144.121094 282.148438 152.109375 274.207031 161.652344 274.695312 C 155.613281 276.925781 149.761719 279.171875 144.800781 283.324219 C 144.667969 282.964844 144.382812 282.738281 143.832031 282.75 C 142.308594 284.566406 139.488281 285.222656 138 287.066406 C 139.046875 290.160156 141.144531 292.324219 141.886719 295.695312 C 143.96875 295.53125 145.46875 294.851562 146.097656 293.394531 C 146.949219 293.308594 146.351562 294.507812 147.394531 294.257812 C 153.632812 293.664062 159.191406 294.167969 163.917969 291.378906 C 156.847656 293.863281 146.703125 288.726562 141.886719 292.816406 C 141.554688 292.4375 141.566406 291.757812 141.238281 291.378906 C 142.105469 291 142.960938 290.605469 143.832031 290.230469 C 143.894531 289.210938 142.308594 289.660156 142.53125 288.503906 C 150.164062 284.921875 158.601562 279.3125 167.808594 279.011719 C 159.371094 281.847656 152.796875 284.796875 145.773438 289.078125 C 151.644531 288.527344 157.589844 284.039062 163.59375 283.613281 C 160.296875 285.855469 155.503906 286.542969 152.253906 289.652344 C 158.039062 290.035156 164.109375 289.511719 169.429688 289.941406 C 168.417969 287.109375 173.738281 285.21875 175.261719 282.75 Z M 172.023438 271.53125 C 172.804688 271.414062 172.726562 272.058594 173.640625 271.820312 C 174.015625 271.480469 174.007812 270.804688 173.964844 270.09375 C 172.84375 270.152344 171.859375 270.332031 172.023438 271.53125 Z M 160.679688 136.914062 C 158.921875 136.773438 157.429688 135.105469 155.820312 135.765625 C 155.640625 137.238281 158.105469 136.675781 158.410156 136.914062 C 157.40625 138.875 155.222656 136.941406 153.550781 136.914062 C 153.675781 138.535156 156.085938 139.359375 157.4375 139.503906 C 162.554688 140.058594 170.140625 136.929688 173.640625 135.476562 C 170.261719 135.230469 162.933594 134.492188 160.679688 136.914062 Z M 158.734375 235.003906 C 162.449219 232.070312 166.941406 229.820312 170.398438 226.660156 C 165.621094 228.457031 160.164062 231.191406 158.734375 235.003906 Z M 142.210938 298.859375 C 142.757812 309.167969 151.234375 314.777344 162.621094 316.402344 C 161.976562 314.820312 160.253906 314.882812 158.734375 314.679688 C 156.03125 313.167969 154.199219 310.816406 151.929688 308.925781 C 149.644531 307.019531 146.457031 305.925781 144.800781 303.460938 C 152.425781 300.640625 160.878906 298.558594 170.074219 297.132812 C 170.09375 296.765625 170.492188 296.734375 170.398438 296.269531 C 160.566406 296.40625 149.019531 293.832031 142.210938 298.859375 Z M 166.1875 249.097656 C 164.832031 249.328125 163.242188 249.355469 162.621094 250.246094 C 163.074219 250.902344 164.878906 250.355469 165.863281 250.535156 C 166.785156 251.347656 166.875 252.898438 168.132812 253.410156 C 168.8125 251.859375 166.433594 250.761719 166.1875 249.097656 Z M 153.226562 104.988281 C 153.769531 103.835938 157.808594 102.089844 159.382812 100.097656 C 159.34375 99.460938 158.007812 99.976562 157.4375 99.8125 C 153.519531 102.566406 149.671875 105.382812 145.773438 108.152344 C 146.34375 108.222656 146.511719 108.648438 146.417969 109.304688 C 143.429688 111.058594 140.308594 112.699219 138.96875 115.917969 C 139.332031 115.980469 139.472656 116.238281 139.617188 116.492188 C 144.839844 113.085938 148.453125 109.285156 153.226562 105.5625 C 152.835938 105.652344 152.109375 104.734375 152.902344 104.699219 C 153.488281 105.445312 153.175781 105.089844 153.226562 104.988281 Z M 138.96875 270.957031 C 142.367188 268.027344 145.214844 264.617188 148.6875 261.753906 C 148.769531 262.195312 149.222656 261.792969 149.335938 261.464844 C 150.355469 257.859375 154.933594 254.925781 157.4375 251.683594 C 153.660156 251.203125 150.171875 254.714844 147.71875 257.148438 C 146.761719 258.097656 146.429688 259.636719 145.449219 260.3125 C 145.269531 260.4375 144.890625 259.9375 144.800781 260.027344 C 143.097656 261.722656 142.179688 263.972656 140.589844 265.203125 C 141.796875 266.132812 141.90625 264.246094 143.179688 264.339844 C 140.894531 266.816406 138.226562 268.957031 136.375 271.820312 C 136.914062 272.300781 138.277344 272.046875 139.292969 272.109375 C 139.363281 271.5625 138.929688 271.472656 138.96875 270.957031 Z M 138 273.257812 C 137.503906 274.277344 136.613281 273.160156 136.050781 274.121094 C 137.027344 276.554688 133.980469 279.335938 135.078125 281.886719 C 141.730469 278.585938 147.804688 274.773438 155.492188 272.394531 C 150.667969 271.757812 143.027344 274.882812 138 273.257812 Z M 145.125 107.578125 C 148.042969 105.433594 152.855469 101.882812 150.632812 101.535156 C 151.695312 100.945312 153.503906 101.015625 153.550781 99.523438 C 152.714844 99.394531 151.265625 99.378906 149.988281 98.945312 C 147.570312 101.5 142.980469 103.660156 141.886719 106.425781 C 143.609375 106.03125 145.128906 103.945312 146.417969 104.125 C 142.40625 106.984375 138.128906 109.613281 135.078125 113.332031 C 136.027344 113.804688 137.148438 114.5 137.671875 113.90625 C 138.648438 111.882812 142.894531 109.214844 145.125 107.578125 Z M 151.929688 136.054688 C 152.867188 135.925781 153.40625 135.445312 153.550781 134.613281 C 152.433594 133.601562 150.902344 135.164062 151.929688 136.054688 Z M 148.363281 200.195312 C 150.417969 199.621094 152.398438 198.980469 152.902344 197.035156 C 151.34375 196.960938 149.34375 198.8125 148.363281 200.195312 Z M 134.429688 267.792969 L 134.429688 269.519531 C 141.203125 262.933594 145.90625 256.941406 152.253906 250.820312 C 151.296875 249.691406 149.769531 250.710938 148.042969 250.535156 C 145.0625 254.886719 140.828125 258.132812 138 262.613281 C 139.625 262.621094 139.640625 261.199219 140.910156 260.890625 C 138.578125 263.035156 137.335938 266.152344 134.429688 267.792969 Z M 138.644531 133.464844 C 134.746094 135.238281 131.148438 137.34375 128.921875 141.230469 C 131.523438 141.152344 132.035156 137.089844 134.757812 138.929688 C 138.253906 136.125 143.285156 132.800781 149.335938 135.476562 C 149.917969 133.285156 146.085938 132.644531 144.476562 131.449219 C 141.863281 132.007812 139.023438 133.894531 137.671875 134.613281 C 137.804688 134.0625 138.929688 134.386719 138.644531 133.464844 Z M 146.421875 130.300781 C 146.019531 131.597656 148.476562 132.164062 148.6875 131.164062 C 147.96875 130.839844 147.59375 129.347656 146.421875 130.300781 Z M 144.800781 168.84375 C 146.507812 169.5 147.789062 167.535156 148.6875 166.542969 C 146.980469 166.945312 145.257812 167.332031 144.800781 168.84375 Z M 135.726562 99.8125 C 134.78125 103.074219 134.523438 108.144531 131.839844 110.164062 C 131.703125 111.246094 132.851562 111.183594 133.136719 111.890625 C 136.636719 109.628906 139.324219 106.644531 142.210938 103.835938 C 138.621094 104.105469 137.429688 108.027344 134.105469 107.578125 C 138.898438 104.542969 144.316406 102.066406 148.042969 98.085938 C 143.292969 97.179688 140.347656 98.734375 135.726562 99.8125 Z M 138.320312 195.019531 C 139.3125 194.8125 139.5 195.3125 140.261719 195.304688 C 142.230469 192.257812 145.679688 190.527344 147.71875 187.542969 C 144.433594 188.582031 139.921875 192.488281 138.320312 195.019531 Z M 143.828125 202.210938 C 144.914062 202.214844 145.988281 202.210938 145.773438 201.058594 C 144.863281 200.714844 143.707031 200.894531 143.828125 202.210938 Z M 145.125 250.246094 C 141.054688 247.542969 135.199219 250.925781 131.515625 248.519531 C 130.964844 254.957031 133.613281 258.546875 134.429688 263.765625 C 138.628906 259.820312 142.308594 255.417969 145.125 250.246094 Z M 130.867188 179.777344 C 135.082031 176.902344 139.046875 173.800781 143.179688 170.855469 C 137.117188 172.089844 133.5625 175.546875 130.867188 179.777344 Z M 140.589844 139.21875 C 138.734375 140.0625 137.347656 141.324219 136.050781 142.667969 C 136.894531 147.410156 135.292969 157.246094 136.703125 161.941406 C 141.492188 157.378906 141.082031 146.75 140.589844 139.21875 Z M 138 166.542969 C 136.910156 167.175781 137.894531 170.292969 139.617188 170.28125 C 140.074219 169.191406 138.917969 167.339844 138 166.542969 Z M 136.703125 199.332031 C 137.226562 199.804688 138.738281 199.679688 138.644531 198.757812 C 138.152344 198.316406 136.421875 198.246094 136.703125 199.332031 Z M 134.429688 172.007812 C 134.945312 171.410156 137.003906 172.183594 136.703125 170.855469 C 135.601562 169.113281 135.957031 165.957031 135.078125 163.378906 C 134.300781 162.921875 132.726562 163.167969 132.488281 162.226562 C 134.4375 161.835938 134.757812 162.894531 136.375 162.804688 C 136.460938 161.863281 135.121094 162.195312 135.078125 161.363281 C 135.070312 156.246094 135.566406 149.523438 134.105469 143.820312 C 132.894531 144.179688 131.171875 144.089844 130.21875 144.683594 C 130.835938 151.621094 128.957031 156.847656 130.542969 162.226562 C 131.105469 162.492188 132.28125 162.21875 132.164062 163.09375 C 132.03125 164.027344 130.621094 163.832031 129.898438 164.242188 C 132.363281 169.378906 128.703125 174.972656 129.570312 178.625 C 130.769531 176.042969 133.34375 174.683594 134.429688 172.007812 Z M 136.050781 215.730469 C 134.695312 216.925781 131.40625 218.152344 129.25 216.878906 C 129.453125 218.675781 129.050781 219.367188 129.570312 220.621094 C 131.773438 219.355469 136.558594 217.507812 136.050781 215.730469 Z M 134.429688 197.894531 C 133.355469 199.050781 133.386719 201.1875 132.8125 202.785156 C 134.640625 201.839844 134.976562 199.628906 134.429688 197.894531 Z M 132.8125 98.945312 C 131.492188 99.117188 130.609375 99.679688 130.21875 100.671875 C 131.699219 101.386719 130.863281 102.390625 132.488281 102.972656 C 134.039062 101.816406 132.269531 100.136719 132.8125 98.945312 Z M 126.980469 100.382812 C 126.609375 101.910156 126.832031 102.519531 126.980469 104.125 C 127.921875 103.234375 128.558594 102.078125 128.921875 100.671875 C 128.15625 100.679688 127.96875 100.179688 126.980469 100.382812 Z M 127.304688 146.40625 L 126.332031 146.40625 C 127.453125 149.242188 127.519531 153.023438 128.921875 155.613281 C 128.898438 151.417969 128.363281 148.671875 127.304688 146.40625 Z M 127.304688 146.40625 " fill-opacity="1" fill-rule="nonzero"/></g></svg>